SplineFontDB: 3.0
FontName: Strobrod-Regular
FullName: Strobrod
FamilyName: Strobrod
Weight: Book
Copyright: CC, Aaron Christianson, Nicolas Mercier
UComments: "2017-3-27: Created with FontForge (http://fontforge.org)"
Version: 001.000
StrokeWidth: 614
ItalicAngle: 0
UnderlinePosition: -1
UnderlineWidth: 0
Ascent: 8
Descent: 2
InvalidEm: 0
LayerCount: 2
Layer: 0 0 "Back" 1
Layer: 1 0 "Fore" 0
StrokedFont: 1
HasVMetrics: 1
XUID: [1021 68 1269985762 15680502]
StyleMap: 0x0040
FSType: 0
OS2Version: 3
OS2_WeightWidthSlopeOnly: 0
OS2_UseTypoMetrics: 1
CreationTime: 1490615230
ModificationTime: 1495627322
PfmFamily: 49
TTFWeight: 400
TTFWidth: 5
LineGap: 0
VLineGap: 0
Panose: 2 11 5 9 0 0 0 0 0 0
OS2TypoAscent: 8
OS2TypoAOffset: 0
OS2TypoDescent: -2
OS2TypoDOffset: 0
OS2TypoLinegap: 0
OS2WinAscent: 8
OS2WinAOffset: 0
OS2WinDescent: 2
OS2WinDOffset: 0
HheadAscent: 8
HheadAOffset: 0
HheadDescent: -2
HheadDOffset: 0
OS2Vendor: 'PfEd'
MarkAttachClasses: 1
DEI: 91125
LangName: 1033
GaspTable: 3 0 1 10 1 65535 0 1
DesignSize: 100
Encoding: iso8859-15
UnicodeInterp: none
NameList: AGL For New Fonts
DisplaySize: 10
AntiAlias: 1
FitToEm: 0
WinInfo: 0 61 19
BeginPrivate: 0
EndPrivate
TeXData: 1 10485760 0 524288 262144 174762 524288 1048576 174762 783286 444596 497025 792723 393216 433062 380633 303038 157286 324010 404750 52429 2506097 1059062 262144
BeginChars: 546 546

StartChar: exclam
Encoding: 33 33 1
Width: 6
VWidth: 0
Flags: W
HStem: 0 0.996094<3.125 4.17969> 5.99609 0G<3.125 4.17969>
VStem: 3.00781 0.996094<0 1.03516 2.08984 6.25>
LayerCount: 2
Back
SplineSet
3.125 6.25 m 29
 4.1669921875 6.25 l 25
 4.1669921875 2.0830078125 l 25
 3.125 2.0830078125 l 25
 3.125 6.25 l 29
3.125 1.0419921875 m 25
 4.1669921875 1.0419921875 l 25
 4.1669921875 0 l 25
 3.125 0 l 25
 3.125 1.0419921875 l 25
EndSplineSet
Fore
SplineSet
3.0078125 5.99609375 m 25
 4.00390625 5.99609375 l 25
 4.00390625 2.01171875 l 25
 3.0078125 2.01171875 l 25
 3.0078125 5.99609375 l 25
3.0078125 0.99609375 m 25
 4.00390625 0.99609375 l 25
 4.00390625 0 l 25
 3.0078125 0 l 25
 3.0078125 0.99609375 l 25
EndSplineSet
EndChar

StartChar: quotedbl
Encoding: 34 34 2
Width: 6
VWidth: 0
Flags: W
HStem: 5 2.01172<2.08984 3.125 4.17969 5.21484>
VStem: 2.01172 0.996094<5.21484 7.28516> 4.00391 0.996094<5.21484 7.28516>
LayerCount: 2
Back
SplineSet
4.1669921875 7.2919921875 m 29
 5.2080078125 7.2919921875 l 25
 5.2080078125 5.2080078125 l 25
 4.1669921875 5.2080078125 l 25
 4.1669921875 7.2919921875 l 29
2.0830078125 7.2919921875 m 25
 3.125 7.2919921875 l 25
 3.125 5.2080078125 l 25
 2.0830078125 5.2080078125 l 25
 2.0830078125 7.2919921875 l 25
EndSplineSet
Fore
SplineSet
4.00390625 7.001953125 m 25
 5 7.001953125 l 25
 5 5 l 25
 4.00390625 5 l 25
 4.00390625 7.001953125 l 25
2.01171875 7.001953125 m 25
 3.0078125 7.001953125 l 25
 3.0078125 5 l 25
 2.01171875 5 l 25
 2.01171875 7.001953125 l 25
EndSplineSet
EndChar

StartChar: numbersign
Encoding: 35 35 3
Width: 6
VWidth: 0
Flags: W
HStem: 2.01172 0.996094<1.03516 2.08984 3.125 4.17969 5.21484 6.25> 4.00391 0.996094<1.03516 2.08984 3.125 4.17969 5.21484 6.25> 5.99609 0G<2.08984 3.125 4.17969 5.21484>
VStem: 2.01172 0.996094<1.03516 2.08984 3.125 4.17969 5.21484 6.25> 4.00391 0.996094<1.03516 2.08984 3.125 4.17969 5.21484 6.25>
LayerCount: 2
Back
SplineSet
3.125 4.1669921875 m 29
 3.125 3.125 l 25
 4.1669921875 3.125 l 25
 4.1669921875 4.1669921875 l 25
 3.125 4.1669921875 l 29
1.0419921875 5.2080078125 m 25
 2.0830078125 5.2080078125 l 25
 2.0830078125 6.25 l 25
 3.125 6.25 l 25
 3.125 5.2080078125 l 25
 4.1669921875 5.2080078125 l 25
 4.1669921875 6.25 l 25
 5.2080078125 6.25 l 25
 5.2080078125 5.2080078125 l 25
 6.25 5.2080078125 l 25
 6.25 4.1669921875 l 25
 5.2080078125 4.1669921875 l 25
 5.2080078125 3.125 l 25
 6.25 3.125 l 25
 6.25 2.0830078125 l 25
 5.2080078125 2.0830078125 l 25
 5.2080078125 1.0419921875 l 25
 4.1669921875 1.0419921875 l 25
 4.1669921875 2.0830078125 l 25
 3.125 2.0830078125 l 25
 3.125 1.0419921875 l 25
 2.0830078125 1.0419921875 l 25
 2.0830078125 2.0830078125 l 25
 1.0419921875 2.0830078125 l 25
 1.0419921875 3.125 l 25
 2.0830078125 3.125 l 25
 2.0830078125 4.1669921875 l 25
 1.0419921875 4.1669921875 l 25
 1.0419921875 5.2080078125 l 25
EndSplineSet
Fore
SplineSet
3.0078125 4.00390625 m 25
 3.0078125 3.0078125 l 25
 4.00390625 3.0078125 l 25
 4.00390625 4.00390625 l 25
 3.0078125 4.00390625 l 25
0.99609375 5 m 25
 2.01171875 5 l 25
 2.01171875 5.99609375 l 25
 3.0078125 5.99609375 l 25
 3.0078125 5 l 25
 4.00390625 5 l 25
 4.00390625 5.99609375 l 25
 5 5.99609375 l 25
 5 5 l 25
 5.99609375 5 l 25
 5.99609375 4.00390625 l 25
 5 4.00390625 l 25
 5 3.0078125 l 25
 5.99609375 3.0078125 l 25
 5.99609375 2.01171875 l 25
 5 2.01171875 l 25
 5 0.99609375 l 25
 4.00390625 0.99609375 l 25
 4.00390625 2.01171875 l 25
 3.0078125 2.01171875 l 25
 3.0078125 0.99609375 l 25
 2.01171875 0.99609375 l 25
 2.01171875 2.01171875 l 25
 0.99609375 2.01171875 l 25
 0.99609375 3.0078125 l 25
 2.01171875 3.0078125 l 25
 2.01171875 4.00390625 l 25
 0.99609375 4.00390625 l 25
 0.99609375 5 l 25
EndSplineSet
EndChar

StartChar: dollar
Encoding: 36 36 4
Width: 6
VWidth: 0
Flags: W
HStem: -0.996094 0G<3.125 4.17969> 0 0.996094<1.03516 3.125 4.17969 5.21484> 0.996094 0.996094<5.21484 6.25> 2.01172 0.996094<2.08984 5.21484> 3.00781 0.996094<1.03516 2.08984> 4.00391 0.996094<2.08984 3.125 4.17969 6.25> 5.99609 0G<3.125 4.17969>
VStem: 0.996094 0.996094<3.125 4.17969> 3.00781 0.996094<-1.03516 0 5.21484 6.25> 5 0.996094<1.03516 2.08984>
CounterMasks: 1 01c0
LayerCount: 2
Back
SplineSet
1.0419921875 1.0419921875 m 29
 5.2080078125 1.0419921875 l 25
 5.2080078125 0 l 25
 4.1669921875 0 l 25
 4.1669921875 -1.0419921875 l 25
 3.125 -1.0419921875 l 25
 3.125 0 l 25
 1.0419921875 0 l 25
 1.0419921875 1.0419921875 l 29
5.2080078125 2.0830078125 m 25
 6.25 2.0830078125 l 25
 6.25 1.0419921875 l 25
 5.2080078125 1.0419921875 l 25
 5.2080078125 2.0830078125 l 25
2.0830078125 3.125 m 25
 5.2080078125 3.125 l 25
 5.2080078125 2.0830078125 l 25
 2.0830078125 2.0830078125 l 25
 2.0830078125 3.125 l 25
1.0419921875 4.1669921875 m 25
 2.0830078125 4.1669921875 l 25
 2.0830078125 3.125 l 25
 1.0419921875 3.125 l 25
 1.0419921875 4.1669921875 l 25
2.0830078125 5.2080078125 m 25
 3.125 5.2080078125 l 25
 3.125 6.25 l 25
 4.1669921875 6.25 l 25
 4.1669921875 5.2080078125 l 25
 6.25 5.2080078125 l 25
 6.25 4.1669921875 l 25
 2.0830078125 4.1669921875 l 25
 2.0830078125 5.2080078125 l 25
EndSplineSet
Fore
SplineSet
0.99609375 0.99609375 m 25xc3c0
 5 0.99609375 l 25
 5 0 l 25
 4.00390625 0 l 25
 4.00390625 -0.99609375 l 25
 3.0078125 -0.99609375 l 25
 3.0078125 0 l 25
 0.99609375 0 l 25
 0.99609375 0.99609375 l 25xc3c0
5 2.01171875 m 25xa3c0
 5.99609375 2.01171875 l 25
 5.99609375 0.99609375 l 25xa3c0
 5 0.99609375 l 25xc3c0
 5 2.01171875 l 25xa3c0
2.01171875 3.0078125 m 25x93c0
 5 3.0078125 l 25x93c0
 5 2.01171875 l 25xa3c0
 2.01171875 2.01171875 l 25
 2.01171875 3.0078125 l 25x93c0
0.99609375 4.00390625 m 25x8bc0
 2.01171875 4.00390625 l 25x8bc0
 2.01171875 3.0078125 l 25x93c0
 0.99609375 3.0078125 l 25
 0.99609375 4.00390625 l 25x8bc0
2.01171875 5 m 25x87c0
 3.0078125 5 l 25
 3.0078125 5.99609375 l 25
 4.00390625 5.99609375 l 25
 4.00390625 5 l 25
 5.99609375 5 l 25
 5.99609375 4.00390625 l 25x87c0
 2.01171875 4.00390625 l 25x8bc0
 2.01171875 5 l 25x87c0
EndSplineSet
EndChar

StartChar: percent
Encoding: 37 37 5
Width: 6
VWidth: 0
Flags: W
HStem: 0.996094 0.996094<1.03516 2.08984 4.17969 5.21484> 2.01172 0.996094<2.08984 3.125> 3.00781 0.996094<3.125 4.17969> 4.00391 0.996094<1.03516 2.08984 4.17969 5.21484>
VStem: 0.996094 0.996094<1.03516 2.08984 4.17969 5.21484> 2.01172 0.996094<2.08984 3.125> 3.00781 0.996094<3.125 4.17969> 4.00391 0.996094<1.03516 2.08984 4.17969 5.21484>
LayerCount: 2
Back
SplineSet
4.1669921875 2.0830078125 m 29
 5.2080078125 2.0830078125 l 25
 5.2080078125 1.0419921875 l 25
 4.1669921875 1.0419921875 l 25
 4.1669921875 2.0830078125 l 29
1.0419921875 2.0830078125 m 25
 2.0830078125 2.0830078125 l 25
 2.0830078125 3.125 l 25
 3.125 3.125 l 25
 3.125 4.1669921875 l 25
 4.1669921875 4.1669921875 l 25
 4.1669921875 5.2080078125 l 25
 5.2080078125 5.2080078125 l 25
 5.2080078125 4.1669921875 l 25
 4.1669921875 4.1669921875 l 25
 4.1669921875 3.125 l 25
 3.125 3.125 l 25
 3.125 2.0830078125 l 25
 2.0830078125 2.0830078125 l 25
 2.0830078125 1.0419921875 l 25
 1.0419921875 1.0419921875 l 25
 1.0419921875 2.0830078125 l 25
1.0419921875 5.2080078125 m 25
 2.0830078125 5.2080078125 l 25
 2.0830078125 4.1669921875 l 25
 1.0419921875 4.1669921875 l 25
 1.0419921875 5.2080078125 l 25
EndSplineSet
Fore
SplineSet
4.00390625 2.01171875 m 25x81
 5 2.01171875 l 25
 5 0.99609375 l 25
 4.00390625 0.99609375 l 25
 4.00390625 2.01171875 l 25x81
0.99609375 2.01171875 m 25x88
 2.01171875 2.01171875 l 25x88
 2.01171875 3.0078125 l 25
 3.0078125 3.0078125 l 25x44
 3.0078125 4.00390625 l 25
 4.00390625 4.00390625 l 25x22
 4.00390625 5 l 25
 5 5 l 25
 5 4.00390625 l 25x11
 4.00390625 4.00390625 l 25
 4.00390625 3.0078125 l 25x22
 3.0078125 3.0078125 l 25
 3.0078125 2.01171875 l 25x44
 2.01171875 2.01171875 l 25
 2.01171875 0.99609375 l 25
 0.99609375 0.99609375 l 25
 0.99609375 2.01171875 l 25x88
0.99609375 5 m 25x18
 2.01171875 5 l 25
 2.01171875 4.00390625 l 25
 0.99609375 4.00390625 l 25
 0.99609375 5 l 25x18
EndSplineSet
EndChar

StartChar: ampersand
Encoding: 38 38 6
Width: 6
VWidth: 0
Flags: W
HStem: 0 0.996094<2.08984 4.17969 5.21484 6.25> 0.996094 2.01172<1.03516 2.08984 4.17969 5.21484> 3.00781 0.996094<3.125 4.17969 5.21484 6.25> 5.99609 0.996094<3.125 5.21484>
VStem: 0.996094 0.996094<1.03516 3.125> 2.01172 2.01172<0 1.03516 3.125 4.17969> 2.01172 0.996094<4.17969 6.25> 4.00391 0.996094<1.03516 3.125> 5 0.996094<0 1.03516 3.125 4.17969>
LayerCount: 2
Back
SplineSet
2.0830078125 3.125 m 29
 2.0830078125 1.0419921875 l 25
 4.1669921875 1.0419921875 l 25
 4.1669921875 3.125 l 25
 2.0830078125 3.125 l 29
1.0419921875 3.125 m 25
 2.0830078125 3.125 l 25
 2.0830078125 6.25 l 25
 3.125 6.25 l 25
 3.125 7.2919921875 l 25
 5.2080078125 7.2919921875 l 25
 5.2080078125 6.25 l 25
 3.125 6.25 l 25
 3.125 4.1669921875 l 25
 4.1669921875 4.1669921875 l 25
 4.1669921875 3.125 l 25
 5.2080078125 3.125 l 25
 5.2080078125 4.1669921875 l 25
 6.25 4.1669921875 l 25
 6.25 3.125 l 25
 5.2080078125 3.125 l 25
 5.2080078125 1.0419921875 l 25
 6.25 1.0419921875 l 25
 6.25 0 l 25
 5.2080078125 0 l 25
 5.2080078125 1.0419921875 l 25
 4.1669921875 1.0419921875 l 25
 4.1669921875 0 l 25
 2.0830078125 0 l 25
 2.0830078125 1.0419921875 l 25
 1.0419921875 1.0419921875 l 25
 1.0419921875 3.125 l 25
EndSplineSet
Fore
SplineSet
2.01171875 3.0078125 m 25x58
 2.01171875 0.99609375 l 25x98
 4.00390625 0.99609375 l 25x94
 4.00390625 3.0078125 l 25x54
 2.01171875 3.0078125 l 25x58
0.99609375 3.0078125 m 25x58
 2.01171875 3.0078125 l 25x58
 2.01171875 5.99609375 l 25
 3.0078125 5.99609375 l 25
 3.0078125 7.001953125 l 25
 5 7.001953125 l 25
 5 5.99609375 l 25
 3.0078125 5.99609375 l 25
 3.0078125 4.00390625 l 25x3280
 4.00390625 4.00390625 l 25x34
 4.00390625 3.0078125 l 25x54
 5 3.0078125 l 25x51
 5 4.00390625 l 25
 5.99609375 4.00390625 l 25
 5.99609375 3.0078125 l 25x3080
 5 3.0078125 l 25x51
 5 0.99609375 l 25x91
 5.99609375 0.99609375 l 25
 5.99609375 0 l 25
 5 0 l 25x9080
 5 0.99609375 l 25x91
 4.00390625 0.99609375 l 25
 4.00390625 0 l 25
 2.01171875 0 l 25x94
 2.01171875 0.99609375 l 25x98
 0.99609375 0.99609375 l 25
 0.99609375 3.0078125 l 25x58
EndSplineSet
EndChar

StartChar: quotesingle
Encoding: 39 39 7
Width: 6
VWidth: 0
Flags: W
HStem: 5 2.01172<2.08984 3.125>
VStem: 2.01172 0.996094<5.21484 7.28516>
LayerCount: 2
Back
SplineSet
2.0830078125 7.2919921875 m 29
 3.125 7.2919921875 l 25
 3.125 5.2080078125 l 25
 2.0830078125 5.2080078125 l 25
 2.0830078125 7.2919921875 l 29
EndSplineSet
Fore
SplineSet
2.01171875 7.001953125 m 25
 3.0078125 7.001953125 l 25
 3.0078125 5 l 25
 2.01171875 5 l 25
 2.01171875 7.001953125 l 25
EndSplineSet
EndChar

StartChar: parenleft
Encoding: 40 40 8
Width: 6
VWidth: 0
Flags: W
HStem: -0.996094 0.996094<3.125 4.17969> 5.99609 0.996094<3.125 4.17969>
VStem: 2.01172 0.996094<0 6.25> 3.00781 0.996094<-1.03516 0 6.25 7.28516>
LayerCount: 2
Back
SplineSet
2.0830078125 6.25 m 29
 3.125 6.25 l 25
 3.125 7.2919921875 l 25
 4.1669921875 7.2919921875 l 25
 4.1669921875 6.25 l 25
 3.125 6.25 l 25
 3.125 0 l 25
 4.1669921875 0 l 25
 4.1669921875 -1.0419921875 l 25
 3.125 -1.0419921875 l 25
 3.125 0 l 25
 2.0830078125 0 l 25
 2.0830078125 6.25 l 29
EndSplineSet
Fore
SplineSet
2.01171875 5.99609375 m 25xe0
 3.0078125 5.99609375 l 25xe0
 3.0078125 7.001953125 l 25
 4.00390625 7.001953125 l 25
 4.00390625 5.99609375 l 25xd0
 3.0078125 5.99609375 l 25
 3.0078125 0 l 25xe0
 4.00390625 0 l 25
 4.00390625 -0.99609375 l 25
 3.0078125 -0.99609375 l 25xd0
 3.0078125 0 l 25
 2.01171875 0 l 25
 2.01171875 5.99609375 l 25xe0
EndSplineSet
EndChar

StartChar: parenright
Encoding: 41 41 9
Width: 6
VWidth: 0
Flags: W
HStem: -0.996094 0.996094<2.08984 3.125> 5.99609 0.996094<2.08984 3.125>
VStem: 2.01172 0.996094<-1.03516 0 6.25 7.28516> 3.00781 0.996094<0 6.25>
LayerCount: 2
Back
SplineSet
2.0830078125 7.2919921875 m 29
 3.125 7.2919921875 l 25
 3.125 6.25 l 25
 4.1669921875 6.25 l 25
 4.1669921875 0 l 25
 3.125 0 l 25
 3.125 -1.0419921875 l 25
 2.0830078125 -1.0419921875 l 25
 2.0830078125 0 l 25
 3.125 0 l 25
 3.125 6.25 l 25
 2.0830078125 6.25 l 25
 2.0830078125 7.2919921875 l 29
EndSplineSet
Fore
SplineSet
2.01171875 7.001953125 m 25xe0
 3.0078125 7.001953125 l 25
 3.0078125 5.99609375 l 25xe0
 4.00390625 5.99609375 l 25
 4.00390625 0 l 25xd0
 3.0078125 0 l 25
 3.0078125 -0.99609375 l 25
 2.01171875 -0.99609375 l 25
 2.01171875 0 l 25
 3.0078125 0 l 25
 3.0078125 5.99609375 l 25
 2.01171875 5.99609375 l 25
 2.01171875 7.001953125 l 25xe0
EndSplineSet
EndChar

StartChar: asterisk
Encoding: 42 42 10
Width: 6
VWidth: 0
Flags: W
HStem: 0 0G<3.125 4.17969> 0.996094 0.996094<1.03516 2.08984 5.21484 6.25> 2.01172 0.996094<2.08984 3.125 4.17969 5.21484> 3.00781 0.996094<1.03516 2.08984 5.21484 6.25> 5 0G<3.125 4.17969>
VStem: 0.996094 0.996094<1.03516 2.08984 3.125 4.17969> 3.00781 0.996094<0 2.08984 3.125 5.21484> 5 0.996094<1.03516 2.08984 3.125 4.17969>
CounterMasks: 1 07
LayerCount: 2
Back
SplineSet
1.0419921875 4.1669921875 m 29
 2.0830078125 4.1669921875 l 25
 2.0830078125 3.125 l 25
 3.125 3.125 l 25
 3.125 5.2080078125 l 25
 4.1669921875 5.2080078125 l 25
 4.1669921875 3.125 l 25
 5.2080078125 3.125 l 25
 5.2080078125 4.1669921875 l 25
 6.25 4.1669921875 l 25
 6.25 3.125 l 25
 5.2080078125 3.125 l 25
 5.2080078125 2.0830078125 l 25
 6.25 2.0830078125 l 25
 6.25 1.0419921875 l 25
 5.2080078125 1.0419921875 l 25
 5.2080078125 2.0830078125 l 25
 4.1669921875 2.0830078125 l 25
 4.1669921875 0 l 25
 3.125 0 l 25
 3.125 2.0830078125 l 25
 2.0830078125 2.0830078125 l 25
 2.0830078125 1.0419921875 l 25
 1.0419921875 1.0419921875 l 25
 1.0419921875 2.0830078125 l 25
 2.0830078125 2.0830078125 l 25
 2.0830078125 3.125 l 25
 1.0419921875 3.125 l 25
 1.0419921875 4.1669921875 l 29
EndSplineSet
Fore
SplineSet
0.99609375 4.00390625 m 25x9f
 2.01171875 4.00390625 l 25x9f
 2.01171875 3.0078125 l 25
 3.0078125 3.0078125 l 25
 3.0078125 5 l 25
 4.00390625 5 l 25
 4.00390625 3.0078125 l 25
 5 3.0078125 l 25xaf
 5 4.00390625 l 25
 5.99609375 4.00390625 l 25
 5.99609375 3.0078125 l 25x9f
 5 3.0078125 l 25xaf
 5 2.01171875 l 25
 5.99609375 2.01171875 l 25
 5.99609375 0.99609375 l 25
 5 0.99609375 l 25
 5 2.01171875 l 25xcf
 4.00390625 2.01171875 l 25
 4.00390625 0 l 25
 3.0078125 0 l 25
 3.0078125 2.01171875 l 25xaf
 2.01171875 2.01171875 l 25
 2.01171875 0.99609375 l 25
 0.99609375 0.99609375 l 25
 0.99609375 2.01171875 l 25
 2.01171875 2.01171875 l 25xcf
 2.01171875 3.0078125 l 25xaf
 0.99609375 3.0078125 l 25
 0.99609375 4.00390625 l 25x9f
EndSplineSet
EndChar

StartChar: plus
Encoding: 43 43 11
Width: 6
VWidth: 0
Flags: W
HStem: 0 0G<3.125 4.17969> 2.01172 0.996094<1.03516 3.125 4.17969 6.25> 5 0G<3.125 4.17969>
VStem: 3.00781 0.996094<0 2.08984 3.125 5.21484>
LayerCount: 2
Back
SplineSet
1.0419921875 3.125 m 29
 3.125 3.125 l 25
 3.125 5.2080078125 l 25
 4.1669921875 5.2080078125 l 25
 4.1669921875 3.125 l 25
 6.25 3.125 l 25
 6.25 2.0830078125 l 25
 4.1669921875 2.0830078125 l 25
 4.1669921875 0 l 25
 3.125 0 l 25
 3.125 2.0830078125 l 25
 1.0419921875 2.0830078125 l 25
 1.0419921875 3.125 l 29
EndSplineSet
Fore
SplineSet
0.99609375 3.0078125 m 25
 3.0078125 3.0078125 l 25
 3.0078125 5 l 25
 4.00390625 5 l 25
 4.00390625 3.0078125 l 25
 5.99609375 3.0078125 l 25
 5.99609375 2.01171875 l 25
 4.00390625 2.01171875 l 25
 4.00390625 0 l 25
 3.0078125 0 l 25
 3.0078125 2.01171875 l 25
 0.99609375 2.01171875 l 25
 0.99609375 3.0078125 l 25
EndSplineSet
EndChar

StartChar: comma
Encoding: 44 44 12
Width: 6
VWidth: 0
Flags: W
HStem: -0.996094 0.996094<2.08984 3.125>
VStem: 2.01172 0.996094<-1.03516 0> 3.00781 0.996094<0 2.08984>
LayerCount: 2
Back
SplineSet
2.0830078125 0 m 29
 3.125 0 l 25
 3.125 2.0830078125 l 25
 4.1669921875 2.0830078125 l 25
 4.1669921875 0 l 25
 3.125 0 l 25
 3.125 -1.0419921875 l 25
 2.0830078125 -1.0419921875 l 25
 2.0830078125 0 l 29
EndSplineSet
Fore
SplineSet
2.01171875 0 m 25xc0
 3.0078125 0 l 25xc0
 3.0078125 2.01171875 l 25
 4.00390625 2.01171875 l 25
 4.00390625 0 l 25xa0
 3.0078125 0 l 25
 3.0078125 -0.99609375 l 25
 2.01171875 -0.99609375 l 25
 2.01171875 0 l 25xc0
EndSplineSet
EndChar

StartChar: hyphen
Encoding: 45 45 13
Width: 6
VWidth: 0
Flags: W
HStem: 2.01172 0.996094<1.03516 6.25>
LayerCount: 2
Back
SplineSet
1.0419921875 3.125 m 29
 6.25 3.125 l 25
 6.25 2.0830078125 l 25
 1.0419921875 2.0830078125 l 25
 1.0419921875 3.125 l 29
EndSplineSet
Fore
SplineSet
0.99609375 3.0078125 m 25
 5.99609375 3.0078125 l 25
 5.99609375 2.01171875 l 25
 0.99609375 2.01171875 l 25
 0.99609375 3.0078125 l 25
EndSplineSet
EndChar

StartChar: period
Encoding: 46 46 14
Width: 6
VWidth: 0
Flags: W
HStem: 0 2.01172<2.08984 4.17969>
VStem: 2.01172 2.01172<0 2.08984>
LayerCount: 2
Back
SplineSet
2.0830078125 2.0830078125 m 29
 4.1669921875 2.0830078125 l 25
 4.1669921875 0 l 25
 2.0830078125 0 l 25
 2.0830078125 2.0830078125 l 29
EndSplineSet
Fore
SplineSet
2.01171875 2.01171875 m 25
 4.00390625 2.01171875 l 25
 4.00390625 0 l 25
 2.01171875 0 l 25
 2.01171875 2.01171875 l 25
EndSplineSet
EndChar

StartChar: slash
Encoding: 47 47 15
Width: 6
VWidth: 0
Flags: W
HStem: -0.996094 0G<1.03516 2.08984> 7.00195 0G<4.17969 5.21484>
VStem: 0.996094 0.996094<-1.03516 1.03516> 2.01172 0.996094<1.03516 3.125> 3.00781 0.996094<3.125 5.21484> 4.00391 0.996094<5.21484 7.28516>
LayerCount: 2
Back
SplineSet
1.0419921875 1.0419921875 m 29
 2.0830078125 1.0419921875 l 25
 2.0830078125 3.125 l 25
 3.125 3.125 l 25
 3.125 5.2080078125 l 25
 4.1669921875 5.2080078125 l 25
 4.1669921875 7.2919921875 l 25
 5.2080078125 7.2919921875 l 25
 5.2080078125 5.2080078125 l 25
 4.1669921875 5.2080078125 l 25
 4.1669921875 3.125 l 25
 3.125 3.125 l 25
 3.125 1.0419921875 l 25
 2.0830078125 1.0419921875 l 25
 2.0830078125 -1.0419921875 l 25
 1.0419921875 -1.0419921875 l 25
 1.0419921875 1.0419921875 l 29
EndSplineSet
Fore
SplineSet
0.99609375 0.99609375 m 25xe0
 2.01171875 0.99609375 l 25xe0
 2.01171875 3.0078125 l 25
 3.0078125 3.0078125 l 25xd0
 3.0078125 5 l 25
 4.00390625 5 l 25xc8
 4.00390625 7.001953125 l 25
 5 7.001953125 l 25
 5 5 l 25xc4
 4.00390625 5 l 25
 4.00390625 3.0078125 l 25xc8
 3.0078125 3.0078125 l 25
 3.0078125 0.99609375 l 25xd0
 2.01171875 0.99609375 l 25
 2.01171875 -0.99609375 l 25
 0.99609375 -0.99609375 l 25
 0.99609375 0.99609375 l 25xe0
EndSplineSet
EndChar

StartChar: zero
Encoding: 48 48 16
Width: 6
VWidth: 0
Flags: W
HStem: 0 0.996094<2.08984 4.17969> 2.01172 0.996094<2.08984 3.125> 3.00781 0.996094<3.125 4.17969> 5 0.996094<2.08984 4.17969>
VStem: 0.996094 0.996094<1.03516 2.08984 3.125 5.21484> 2.01172 2.01172<0 1.03516 5.21484 6.25> 4.00391 0.996094<1.03516 3.125 4.17969 5.21484>
LayerCount: 2
Back
SplineSet
3.125 3.125 m 29
 3.125 2.0830078125 l 25
 2.0830078125 2.0830078125 l 25
 2.0830078125 1.0419921875 l 25
 4.1669921875 1.0419921875 l 25
 4.1669921875 3.125 l 25
 3.125 3.125 l 29
2.0830078125 5.2080078125 m 25
 2.0830078125 3.125 l 25
 3.125 3.125 l 25
 3.125 4.1669921875 l 25
 4.1669921875 4.1669921875 l 25
 4.1669921875 5.2080078125 l 25
 2.0830078125 5.2080078125 l 25
1.0419921875 5.2080078125 m 25
 2.0830078125 5.2080078125 l 25
 2.0830078125 6.25 l 25
 4.1669921875 6.25 l 25
 4.1669921875 5.2080078125 l 25
 5.2080078125 5.2080078125 l 25
 5.2080078125 1.0419921875 l 25
 4.1669921875 1.0419921875 l 25
 4.1669921875 0 l 25
 2.0830078125 0 l 25
 2.0830078125 1.0419921875 l 25
 1.0419921875 1.0419921875 l 25
 1.0419921875 5.2080078125 l 25
EndSplineSet
Fore
SplineSet
3.0078125 3.0078125 m 25xd2
 3.0078125 2.01171875 l 25
 2.01171875 2.01171875 l 25
 2.01171875 0.99609375 l 25xda
 4.00390625 0.99609375 l 25xd4
 4.00390625 3.0078125 l 25xb2
 3.0078125 3.0078125 l 25xd2
2.01171875 5 m 25
 2.01171875 3.0078125 l 25
 3.0078125 3.0078125 l 25xd8
 3.0078125 4.00390625 l 25
 4.00390625 4.00390625 l 25xba
 4.00390625 5 l 25xb4
 2.01171875 5 l 25
0.99609375 5 m 25
 2.01171875 5 l 25x98
 2.01171875 5.99609375 l 25
 4.00390625 5.99609375 l 25
 4.00390625 5 l 25x94
 5 5 l 25
 5 0.99609375 l 25x92
 4.00390625 0.99609375 l 25
 4.00390625 0 l 25
 2.01171875 0 l 25x94
 2.01171875 0.99609375 l 25
 0.99609375 0.99609375 l 25
 0.99609375 5 l 25
EndSplineSet
EndChar

StartChar: one
Encoding: 49 49 17
Width: 6
VWidth: 0
Flags: W
HStem: 0 0G<3.125 4.17969> 4.00391 0.996094<2.08984 3.125> 5.99609 0G<3.125 4.17969>
VStem: 3.00781 0.996094<0 4.17969 5.21484 6.25>
LayerCount: 2
Back
SplineSet
2.0830078125 5.2080078125 m 29
 3.125 5.2080078125 l 25
 3.125 6.25 l 25
 4.1669921875 6.25 l 25
 4.1669921875 0 l 25
 3.125 0 l 25
 3.125 4.1669921875 l 25
 2.0830078125 4.1669921875 l 25
 2.0830078125 5.2080078125 l 29
EndSplineSet
Fore
SplineSet
2.01171875 5 m 25
 3.0078125 5 l 25
 3.0078125 5.99609375 l 25
 4.00390625 5.99609375 l 25
 4.00390625 0 l 25
 3.0078125 0 l 25
 3.0078125 4.00390625 l 25
 2.01171875 4.00390625 l 25
 2.01171875 5 l 25
EndSplineSet
EndChar

StartChar: two
Encoding: 50 50 18
Width: 6
VWidth: 0
Flags: W
HStem: 0 0.996094<1.03516 2.08984 3.125 5.21484> 2.01172 0.996094<3.125 4.17969> 4.00391 0.996094<1.03516 2.08984> 5 0.996094<2.08984 4.17969>
VStem: 0.996094 0.996094<4.17969 5.21484> 2.01172 0.996094<1.03516 2.08984> 3.00781 0.996094<2.08984 3.125> 4.00391 0.996094<3.125 5.21484>
LayerCount: 2
Back
SplineSet
1.0419921875 4.1669921875 m 29
 1.0419921875 5.2080078125 l 25
 2.0830078125 5.2080078125 l 25
 2.0830078125 6.25 l 25
 4.1669921875 6.25 l 25
 4.1669921875 5.2080078125 l 25
 5.2080078125 5.2080078125 l 25
 5.2080078125 3.125 l 25
 4.1669921875 3.125 l 25
 4.1669921875 2.0830078125 l 25
 3.125 2.0830078125 l 25
 3.125 1.0419921875 l 25
 5.2080078125 1.0419921875 l 25
 5.2080078125 0 l 25
 1.0419921875 0 l 25
 1.0419921875 1.0419921875 l 25
 2.0830078125 1.0419921875 l 25
 2.0830078125 2.0830078125 l 25
 3.125 2.0830078125 l 25
 3.125 3.125 l 25
 4.1669921875 3.125 l 25
 4.1669921875 4.1669921875 l 25
 4.1669921875 5.2080078125 l 25
 2.0830078125 5.2080078125 l 25
 2.0830078125 4.1669921875 l 25
 1.0419921875 4.1669921875 l 29
EndSplineSet
Fore
SplineSet
0.99609375 4.00390625 m 25xe9
 0.99609375 5 l 25
 2.01171875 5 l 25xe9
 2.01171875 5.99609375 l 25
 4.00390625 5.99609375 l 25
 4.00390625 5 l 25
 5 5 l 25
 5 3.0078125 l 25xd5
 4.00390625 3.0078125 l 25
 4.00390625 2.01171875 l 25xd2
 3.0078125 2.01171875 l 25
 3.0078125 0.99609375 l 25xd4
 5 0.99609375 l 25
 5 0 l 25
 0.99609375 0 l 25
 0.99609375 0.99609375 l 25xd9
 2.01171875 0.99609375 l 25
 2.01171875 2.01171875 l 25
 3.0078125 2.01171875 l 25xd4
 3.0078125 3.0078125 l 25
 4.00390625 3.0078125 l 25xd2
 4.00390625 4.00390625 l 25xe1
 4.00390625 5 l 25xd1
 2.01171875 5 l 25
 2.01171875 4.00390625 l 25
 0.99609375 4.00390625 l 25xe9
EndSplineSet
EndChar

StartChar: three
Encoding: 51 51 19
Width: 6
VWidth: 0
Flags: W
HStem: 0 0.996094<1.03516 4.17969> 3.00781 0.996094<2.08984 4.17969> 5 0.996094<1.03516 4.17969>
VStem: 4.00391 0.996094<1.03516 3.125 4.17969 5.21484>
LayerCount: 2
Back
SplineSet
1.0419921875 6.25 m 29
 5.2080078125 6.25 l 25
 5.2080078125 4.1669921875 l 25
 4.1669921875 4.1669921875 l 25
 4.1669921875 3.125 l 25
 5.2080078125 3.125 l 25
 5.2080078125 1.0419921875 l 25
 4.1669921875 1.0419921875 l 25
 4.1669921875 0 l 25
 1.0419921875 0 l 25
 1.0419921875 1.0419921875 l 25
 4.1669921875 1.0419921875 l 25
 4.1669921875 3.125 l 25
 2.0830078125 3.125 l 25
 2.0830078125 4.1669921875 l 25
 4.1669921875 4.1669921875 l 25
 4.1669921875 5.2080078125 l 25
 1.0419921875 5.2080078125 l 25
 1.0419921875 6.25 l 29
EndSplineSet
Fore
SplineSet
0.99609375 5.99609375 m 25
 5 5.99609375 l 25
 5 4.00390625 l 25
 4.00390625 4.00390625 l 25
 4.00390625 3.0078125 l 25
 5 3.0078125 l 25
 5 0.99609375 l 25
 4.00390625 0.99609375 l 25
 4.00390625 0 l 25
 0.99609375 0 l 25
 0.99609375 0.99609375 l 25
 4.00390625 0.99609375 l 25
 4.00390625 3.0078125 l 25
 2.01171875 3.0078125 l 25
 2.01171875 4.00390625 l 25
 4.00390625 4.00390625 l 25
 4.00390625 5 l 25
 0.99609375 5 l 25
 0.99609375 5.99609375 l 25
EndSplineSet
EndChar

StartChar: four
Encoding: 52 52 20
Width: 6
VWidth: 0
Flags: W
HStem: 0 0G<4.17969 5.21484> 0.996094 0.996094<2.08984 4.17969> 3.00781 0.996094<2.08984 3.125> 4.00391 0.996094<3.125 4.17969> 5.99609 0G<4.17969 5.21484>
VStem: 0.996094 0.996094<2.08984 3.125> 2.01172 0.996094<3.125 4.17969> 4.00391 0.996094<0 1.03516 2.08984 4.17969 5.21484 6.25>
LayerCount: 2
Back
SplineSet
2.0830078125 3.125 m 29
 2.0830078125 2.0830078125 l 25
 4.1669921875 2.0830078125 l 25
 4.1669921875 4.1669921875 l 25
 3.125 4.1669921875 l 25
 3.125 3.125 l 25
 2.0830078125 3.125 l 29
1.0419921875 3.125 m 25
 2.0830078125 3.125 l 25
 2.0830078125 4.1669921875 l 25
 3.125 4.1669921875 l 25
 3.125 5.2080078125 l 25
 4.1669921875 5.2080078125 l 25
 4.1669921875 6.25 l 25
 5.2080078125 6.25 l 25
 5.2080078125 0 l 25
 4.1669921875 0 l 25
 4.1669921875 1.0419921875 l 25
 1.0419921875 1.0419921875 l 25
 1.0419921875 3.125 l 25
EndSplineSet
Fore
SplineSet
2.01171875 3.0078125 m 25xed
 2.01171875 2.01171875 l 25
 4.00390625 2.01171875 l 25
 4.00390625 4.00390625 l 25xdd
 3.0078125 4.00390625 l 25
 3.0078125 3.0078125 l 25xeb
 2.01171875 3.0078125 l 25xed
0.99609375 3.0078125 m 25xed
 2.01171875 3.0078125 l 25xed
 2.01171875 4.00390625 l 25
 3.0078125 4.00390625 l 25xeb
 3.0078125 5 l 25
 4.00390625 5 l 25xdb
 4.00390625 5.99609375 l 25
 5 5.99609375 l 25
 5 0 l 25
 4.00390625 0 l 25
 4.00390625 0.99609375 l 25
 0.99609375 0.99609375 l 25
 0.99609375 3.0078125 l 25xed
EndSplineSet
EndChar

StartChar: five
Encoding: 53 53 21
Width: 6
VWidth: 0
Flags: W
HStem: 0 0.996094<1.03516 4.17969> 3.00781 0.996094<2.08984 4.17969> 5 0.996094<2.08984 5.21484>
VStem: 0.996094 3.00781<0 1.03516 3.125 4.17969> 0.996094 0.996094<4.17969 5.21484> 4.00391 0.996094<1.03516 3.125>
LayerCount: 2
Back
SplineSet
1.0419921875 6.25 m 29
 5.2080078125 6.25 l 25
 5.2080078125 5.2080078125 l 25
 2.0830078125 5.2080078125 l 25
 2.0830078125 4.1669921875 l 25
 4.1669921875 4.1669921875 l 25
 4.1669921875 3.125 l 25
 5.2080078125 3.125 l 25
 5.2080078125 1.0419921875 l 25
 4.1669921875 1.0419921875 l 25
 4.1669921875 0 l 25
 1.0419921875 0 l 25
 1.0419921875 1.0419921875 l 25
 4.1669921875 1.0419921875 l 25
 4.1669921875 3.125 l 25
 1.0419921875 3.125 l 25
 1.0419921875 6.25 l 29
EndSplineSet
Fore
SplineSet
0.99609375 5.99609375 m 25xe8
 5 5.99609375 l 25
 5 5 l 25
 2.01171875 5 l 25
 2.01171875 4.00390625 l 25xec
 4.00390625 4.00390625 l 25
 4.00390625 3.0078125 l 25xf0
 5 3.0078125 l 25
 5 0.99609375 l 25xe4
 4.00390625 0.99609375 l 25
 4.00390625 0 l 25
 0.99609375 0 l 25
 0.99609375 0.99609375 l 25
 4.00390625 0.99609375 l 25
 4.00390625 3.0078125 l 25
 0.99609375 3.0078125 l 25xf0
 0.99609375 5.99609375 l 25xe8
EndSplineSet
EndChar

StartChar: six
Encoding: 54 54 22
Width: 6
VWidth: 0
Flags: W
HStem: 0 0.996094<2.08984 4.17969> 3.00781 0.996094<2.08984 4.17969> 5 0.996094<2.08984 4.17969>
VStem: 0.996094 0.996094<1.03516 3.125 4.17969 5.21484> 2.01172 2.01172<0 1.03516 5.21484 6.25> 4.00391 0.996094<1.03516 3.125>
LayerCount: 2
Back
SplineSet
2.0830078125 3.125 m 29
 2.0830078125 1.0419921875 l 25
 4.1669921875 1.0419921875 l 25
 4.1669921875 3.125 l 25
 2.0830078125 3.125 l 29
2.0830078125 6.25 m 25
 4.1669921875 6.25 l 25
 4.1669921875 5.2080078125 l 25
 2.0830078125 5.2080078125 l 25
 2.0830078125 4.1669921875 l 25
 4.1669921875 4.1669921875 l 25
 4.1669921875 3.125 l 25
 5.2080078125 3.125 l 25
 5.2080078125 1.0419921875 l 25
 4.1669921875 1.0419921875 l 25
 4.1669921875 0 l 25
 2.0830078125 0 l 25
 2.0830078125 1.0419921875 l 25
 1.0419921875 1.0419921875 l 25
 1.0419921875 5.2080078125 l 25
 2.0830078125 5.2080078125 l 25
 2.0830078125 6.25 l 25
EndSplineSet
Fore
SplineSet
2.01171875 3.0078125 m 25xf4
 2.01171875 0.99609375 l 25xf4
 4.00390625 0.99609375 l 25xe8
 4.00390625 3.0078125 l 25
 2.01171875 3.0078125 l 25xf4
2.01171875 5.99609375 m 25xe8
 4.00390625 5.99609375 l 25
 4.00390625 5 l 25xe8
 2.01171875 5 l 25
 2.01171875 4.00390625 l 25
 4.00390625 4.00390625 l 25
 4.00390625 3.0078125 l 25
 5 3.0078125 l 25
 5 0.99609375 l 25xf4
 4.00390625 0.99609375 l 25
 4.00390625 0 l 25
 2.01171875 0 l 25xe8
 2.01171875 0.99609375 l 25
 0.99609375 0.99609375 l 25
 0.99609375 5 l 25
 2.01171875 5 l 25xf0
 2.01171875 5.99609375 l 25xe8
EndSplineSet
EndChar

StartChar: seven
Encoding: 55 55 23
Width: 6
VWidth: 0
Flags: W
HStem: 0 0G<2.08984 3.125> 2.01172 0.996094<3.125 4.17969> 5 0.996094<1.03516 4.17969>
VStem: 2.01172 0.996094<0 2.08984> 3.00781 0.996094<2.08984 3.125> 4.00391 0.996094<3.125 5.21484>
LayerCount: 2
Back
SplineSet
1.0419921875 6.25 m 29
 5.2080078125 6.25 l 25
 5.2080078125 3.125 l 25
 4.1669921875 3.125 l 25
 4.1669921875 2.0830078125 l 25
 3.125 2.0830078125 l 25
 3.125 0 l 25
 2.0830078125 0 l 25
 2.0830078125 2.0830078125 l 25
 3.125 2.0830078125 l 25
 3.125 3.125 l 25
 4.1669921875 3.125 l 25
 4.1669921875 5.2080078125 l 25
 1.0419921875 5.2080078125 l 25
 1.0419921875 6.25 l 29
EndSplineSet
Fore
SplineSet
0.99609375 5.99609375 m 25xe4
 5 5.99609375 l 25
 5 3.0078125 l 25xe4
 4.00390625 3.0078125 l 25
 4.00390625 2.01171875 l 25xe8
 3.0078125 2.01171875 l 25
 3.0078125 0 l 25
 2.01171875 0 l 25
 2.01171875 2.01171875 l 25
 3.0078125 2.01171875 l 25xf0
 3.0078125 3.0078125 l 25
 4.00390625 3.0078125 l 25xe8
 4.00390625 5 l 25
 0.99609375 5 l 25
 0.99609375 5.99609375 l 25xe4
EndSplineSet
EndChar

StartChar: eight
Encoding: 56 56 24
Width: 6
VWidth: 0
Flags: W
HStem: 0 0.996094<2.08984 4.17969> 0.996094 2.01172<1.03516 2.08984 4.17969 5.21484> 4.00391 0.996094<1.03516 2.08984 4.17969 5.21484> 5 0.996094<2.08984 4.17969>
VStem: 0.996094 0.996094<1.03516 3.125 4.17969 5.21484> 2.01172 2.01172<0 1.03516 3.125 4.17969 5.21484 6.25> 4.00391 0.996094<1.03516 3.125 4.17969 5.21484>
LayerCount: 2
Back
SplineSet
2.0830078125 3.125 m 29
 2.0830078125 1.0419921875 l 25
 4.1669921875 1.0419921875 l 25
 4.1669921875 3.125 l 25
 2.0830078125 3.125 l 29
2.0830078125 5.2080078125 m 25
 2.0830078125 4.1669921875 l 25
 4.1669921875 4.1669921875 l 25
 4.1669921875 5.2080078125 l 25
 2.0830078125 5.2080078125 l 25
2.0830078125 6.25 m 25
 4.1669921875 6.25 l 25
 4.1669921875 5.2080078125 l 25
 5.2080078125 5.2080078125 l 25
 5.2080078125 4.1669921875 l 25
 4.1669921875 4.1669921875 l 25
 4.1669921875 3.125 l 25
 5.2080078125 3.125 l 25
 5.2080078125 1.0419921875 l 25
 4.1669921875 1.0419921875 l 25
 4.1669921875 0 l 25
 2.0830078125 0 l 25
 2.0830078125 1.0419921875 l 25
 1.0419921875 1.0419921875 l 25
 1.0419921875 3.125 l 25
 2.0830078125 3.125 l 25
 2.0830078125 4.1669921875 l 25
 1.0419921875 4.1669921875 l 25
 1.0419921875 5.2080078125 l 25
 2.0830078125 5.2080078125 l 25
 2.0830078125 6.25 l 25
EndSplineSet
Fore
SplineSet
2.01171875 3.0078125 m 25x48
 2.01171875 0.99609375 l 25x88
 4.00390625 0.99609375 l 25x84
 4.00390625 3.0078125 l 25x44
 2.01171875 3.0078125 l 25x48
2.01171875 5 m 25x28
 2.01171875 4.00390625 l 25x28
 4.00390625 4.00390625 l 25
 4.00390625 5 l 25x24
 2.01171875 5 l 25x28
2.01171875 5.99609375 m 25x14
 4.00390625 5.99609375 l 25x14
 4.00390625 5 l 25x24
 5 5 l 25
 5 4.00390625 l 25x22
 4.00390625 4.00390625 l 25
 4.00390625 3.0078125 l 25x64
 5 3.0078125 l 25
 5 0.99609375 l 25x62
 4.00390625 0.99609375 l 25
 4.00390625 0 l 25
 2.01171875 0 l 25x84
 2.01171875 0.99609375 l 25x88
 0.99609375 0.99609375 l 25
 0.99609375 3.0078125 l 25
 2.01171875 3.0078125 l 25
 2.01171875 4.00390625 l 25
 0.99609375 4.00390625 l 25
 0.99609375 5 l 25
 2.01171875 5 l 25x68
 2.01171875 5.99609375 l 25x14
EndSplineSet
EndChar

StartChar: nine
Encoding: 57 57 25
Width: 6
VWidth: 0
Flags: W
HStem: 0 0.996094<2.08984 4.17969> 2.01172 0.996094<2.08984 4.17969> 5 0.996094<2.08984 4.17969>
VStem: 0.996094 0.996094<3.125 5.21484> 2.01172 2.01172<0 1.03516 5.21484 6.25> 4.00391 0.996094<1.03516 2.08984 3.125 5.21484>
LayerCount: 2
Back
SplineSet
2.0830078125 5.2080078125 m 29
 2.0830078125 3.125 l 25
 4.1669921875 3.125 l 25
 4.1669921875 5.2080078125 l 25
 2.0830078125 5.2080078125 l 29
2.0830078125 6.25 m 25
 4.1669921875 6.25 l 25
 4.1669921875 5.2080078125 l 25
 5.2080078125 5.2080078125 l 25
 5.2080078125 1.0419921875 l 25
 4.1669921875 1.0419921875 l 25
 4.1669921875 0 l 25
 2.0830078125 0 l 25
 2.0830078125 1.0419921875 l 25
 4.1669921875 1.0419921875 l 25
 4.1669921875 2.0830078125 l 25
 2.0830078125 2.0830078125 l 25
 2.0830078125 3.125 l 25
 1.0419921875 3.125 l 25
 1.0419921875 5.2080078125 l 25
 2.0830078125 5.2080078125 l 25
 2.0830078125 6.25 l 25
EndSplineSet
Fore
SplineSet
2.01171875 5 m 25xf0
 2.01171875 3.0078125 l 25
 4.00390625 3.0078125 l 25xf4
 4.00390625 5 l 25xe8
 2.01171875 5 l 25xf0
2.01171875 5.99609375 m 25xe8
 4.00390625 5.99609375 l 25
 4.00390625 5 l 25xe8
 5 5 l 25
 5 0.99609375 l 25xe4
 4.00390625 0.99609375 l 25
 4.00390625 0 l 25
 2.01171875 0 l 25
 2.01171875 0.99609375 l 25
 4.00390625 0.99609375 l 25xe8
 4.00390625 2.01171875 l 25xe4
 2.01171875 2.01171875 l 25xe8
 2.01171875 3.0078125 l 25
 0.99609375 3.0078125 l 25
 0.99609375 5 l 25
 2.01171875 5 l 25xf0
 2.01171875 5.99609375 l 25xe8
EndSplineSet
EndChar

StartChar: colon
Encoding: 58 58 26
Width: 6
VWidth: 0
Flags: W
HStem: 0.996094 0.996094<2.08984 3.125> 3.00781 0.996094<2.08984 3.125>
VStem: 2.01172 0.996094<1.03516 2.08984 3.125 4.17969>
LayerCount: 2
Back
SplineSet
2.0830078125 2.0830078125 m 29
 3.125 2.0830078125 l 25
 3.125 1.0419921875 l 25
 2.0830078125 1.0419921875 l 25
 2.0830078125 2.0830078125 l 29
2.0830078125 4.1669921875 m 25
 3.125 4.1669921875 l 25
 3.125 3.125 l 25
 2.0830078125 3.125 l 25
 2.0830078125 4.1669921875 l 25
EndSplineSet
Fore
SplineSet
2.01171875 2.01171875 m 25
 3.0078125 2.01171875 l 25
 3.0078125 0.99609375 l 25
 2.01171875 0.99609375 l 25
 2.01171875 2.01171875 l 25
2.01171875 4.00390625 m 25
 3.0078125 4.00390625 l 25
 3.0078125 3.0078125 l 25
 2.01171875 3.0078125 l 25
 2.01171875 4.00390625 l 25
EndSplineSet
EndChar

StartChar: semicolon
Encoding: 59 59 27
Width: 6
VWidth: 0
Flags: W
HStem: -0.996094 0.996094<2.08984 3.125> 3.00781 0.996094<3.125 4.17969>
VStem: 2.01172 0.996094<-1.03516 0> 3.00781 0.996094<0 2.08984 3.125 4.17969>
LayerCount: 2
Back
SplineSet
3.125 2.0830078125 m 29
 4.1669921875 2.0830078125 l 25
 4.1669921875 0 l 25
 3.125 0 l 25
 3.125 -1.0419921875 l 25
 2.0830078125 -1.0419921875 l 25
 2.0830078125 0 l 25
 3.125 0 l 25
 3.125 2.0830078125 l 29
3.125 4.1669921875 m 25
 4.1669921875 4.1669921875 l 25
 4.1669921875 3.125 l 25
 3.125 3.125 l 25
 3.125 4.1669921875 l 25
EndSplineSet
Fore
SplineSet
3.0078125 2.01171875 m 25xd0
 4.00390625 2.01171875 l 25
 4.00390625 0 l 25xd0
 3.0078125 0 l 25
 3.0078125 -0.99609375 l 25
 2.01171875 -0.99609375 l 25
 2.01171875 0 l 25
 3.0078125 0 l 25xe0
 3.0078125 2.01171875 l 25xd0
3.0078125 4.00390625 m 25
 4.00390625 4.00390625 l 25
 4.00390625 3.0078125 l 25
 3.0078125 3.0078125 l 25
 3.0078125 4.00390625 l 25
EndSplineSet
EndChar

StartChar: less
Encoding: 60 60 28
Width: 6
VWidth: 0
Flags: W
HStem: 0 0.996094<3.125 4.17969> 0.996094 0.996094<2.08984 3.125> 3.00781 0.996094<2.08984 3.125> 4.00391 0.996094<3.125 4.17969>
VStem: 0.996094 0.996094<2.08984 3.125> 2.01172 0.996094<1.03516 2.08984 3.125 4.17969> 3.00781 0.996094<0 1.03516 4.17969 5.21484>
LayerCount: 2
Back
SplineSet
3.125 5.2080078125 m 29
 4.1669921875 5.2080078125 l 25
 4.1669921875 4.1669921875 l 25
 3.125 4.1669921875 l 25
 3.125 3.125 l 25
 2.0830078125 3.125 l 25
 2.0830078125 2.0830078125 l 25
 3.125 2.0830078125 l 25
 3.125 1.0419921875 l 25
 4.1669921875 1.0419921875 l 25
 4.1669921875 0 l 25
 3.125 0 l 25
 3.125 1.0419921875 l 25
 2.0830078125 1.0419921875 l 25
 2.0830078125 2.0830078125 l 25
 1.0419921875 2.0830078125 l 25
 1.0419921875 3.125 l 25
 2.0830078125 3.125 l 25
 2.0830078125 4.1669921875 l 25
 3.125 4.1669921875 l 25
 3.125 5.2080078125 l 29
EndSplineSet
Fore
SplineSet
3.0078125 5 m 25x12
 4.00390625 5 l 25
 4.00390625 4.00390625 l 25x12
 3.0078125 4.00390625 l 25
 3.0078125 3.0078125 l 25x24
 2.01171875 3.0078125 l 25
 2.01171875 2.01171875 l 25x68
 3.0078125 2.01171875 l 25x64
 3.0078125 0.99609375 l 25x84
 4.00390625 0.99609375 l 25
 4.00390625 0 l 25
 3.0078125 0 l 25x82
 3.0078125 0.99609375 l 25x84
 2.01171875 0.99609375 l 25x44
 2.01171875 2.01171875 l 25
 0.99609375 2.01171875 l 25
 0.99609375 3.0078125 l 25
 2.01171875 3.0078125 l 25x68
 2.01171875 4.00390625 l 25
 3.0078125 4.00390625 l 25x64
 3.0078125 5 l 25x12
EndSplineSet
EndChar

StartChar: equal
Encoding: 61 61 29
Width: 6
VWidth: 0
Flags: W
HStem: 0.996094 0.996094<1.03516 5.21484> 3.00781 0.996094<1.03516 5.21484>
LayerCount: 2
Back
SplineSet
1.0419921875 2.0830078125 m 29
 5.2080078125 2.0830078125 l 25
 5.2080078125 1.0419921875 l 25
 1.0419921875 1.0419921875 l 25
 1.0419921875 2.0830078125 l 29
1.0419921875 4.1669921875 m 25
 5.2080078125 4.1669921875 l 25
 5.2080078125 3.125 l 25
 1.0419921875 3.125 l 25
 1.0419921875 4.1669921875 l 25
EndSplineSet
Fore
SplineSet
0.99609375 2.01171875 m 25
 5 2.01171875 l 25
 5 0.99609375 l 25
 0.99609375 0.99609375 l 25
 0.99609375 2.01171875 l 25
0.99609375 4.00390625 m 25
 5 4.00390625 l 25
 5 3.0078125 l 25
 0.99609375 3.0078125 l 25
 0.99609375 4.00390625 l 25
EndSplineSet
EndChar

StartChar: greater
Encoding: 62 62 30
Width: 6
VWidth: 0
Flags: W
HStem: 0 0.996094<2.08984 3.125> 0.996094 0.996094<3.125 4.17969> 3.00781 0.996094<3.125 4.17969> 4.00391 0.996094<2.08984 3.125>
VStem: 2.01172 0.996094<0 1.03516 4.17969 5.21484> 3.00781 0.996094<1.03516 2.08984 3.125 4.17969> 4.00391 0.996094<2.08984 3.125>
LayerCount: 2
Back
SplineSet
2.0830078125 5.2080078125 m 29
 3.125 5.2080078125 l 25
 3.125 4.1669921875 l 25
 4.1669921875 4.1669921875 l 25
 4.1669921875 3.125 l 25
 5.2080078125 3.125 l 25
 5.2080078125 2.0830078125 l 25
 4.1669921875 2.0830078125 l 25
 4.1669921875 1.0419921875 l 25
 3.125 1.0419921875 l 25
 3.125 0 l 25
 2.0830078125 0 l 25
 2.0830078125 1.0419921875 l 25
 3.125 1.0419921875 l 25
 3.125 2.0830078125 l 25
 4.1669921875 2.0830078125 l 25
 4.1669921875 3.125 l 25
 3.125 3.125 l 25
 3.125 4.1669921875 l 25
 2.0830078125 4.1669921875 l 25
 2.0830078125 5.2080078125 l 29
EndSplineSet
Fore
SplineSet
2.01171875 5 m 25x18
 3.0078125 5 l 25x18
 3.0078125 4.00390625 l 25x28
 4.00390625 4.00390625 l 25
 4.00390625 3.0078125 l 25x24
 5 3.0078125 l 25
 5 2.01171875 l 25x62
 4.00390625 2.01171875 l 25
 4.00390625 0.99609375 l 25x64
 3.0078125 0.99609375 l 25
 3.0078125 0 l 25
 2.01171875 0 l 25
 2.01171875 0.99609375 l 25
 3.0078125 0.99609375 l 25x88
 3.0078125 2.01171875 l 25
 4.00390625 2.01171875 l 25
 4.00390625 3.0078125 l 25
 3.0078125 3.0078125 l 25x64
 3.0078125 4.00390625 l 25x68
 2.01171875 4.00390625 l 25
 2.01171875 5 l 25x18
EndSplineSet
EndChar

StartChar: question
Encoding: 63 63 31
Width: 6
VWidth: 0
Flags: W
HStem: -0.996094 0.996094<2.08984 3.125> 0.996094 0.996094<2.08984 3.125> 2.01172 0.996094<3.125 4.17969> 4.00391 0.996094<1.03516 2.08984> 5 0.996094<2.08984 4.17969>
VStem: 0.996094 0.996094<4.17969 5.21484> 2.01172 0.996094<-1.03516 0 1.03516 2.08984> 3.00781 0.996094<2.08984 3.125> 4.00391 0.996094<3.125 5.21484>
LayerCount: 2
Back
SplineSet
2.0830078125 0 m 29
 3.125 0 l 25
 3.125 -1.0419921875 l 25
 2.0830078125 -1.0419921875 l 25
 2.0830078125 0 l 29
1.0419921875 5.2080078125 m 25
 2.0830078125 5.2080078125 l 25
 2.0830078125 6.25 l 25
 4.1669921875 6.25 l 25
 4.1669921875 5.2080078125 l 25
 5.2080078125 5.2080078125 l 25
 5.2080078125 3.125 l 25
 4.1669921875 3.125 l 25
 4.1669921875 2.0830078125 l 25
 3.125 2.0830078125 l 25
 3.125 1.0419921875 l 25
 2.0830078125 1.0419921875 l 25
 2.0830078125 2.0830078125 l 25
 3.125 2.0830078125 l 25
 3.125 3.125 l 25
 4.1669921875 3.125 l 25
 4.1669921875 5.2080078125 l 25
 2.0830078125 5.2080078125 l 25
 2.0830078125 4.1669921875 l 25
 1.0419921875 4.1669921875 l 25
 1.0419921875 5.2080078125 l 25
EndSplineSet
Fore
SplineSet
2.01171875 0 m 25x82
 3.0078125 0 l 25
 3.0078125 -0.99609375 l 25
 2.01171875 -0.99609375 l 25
 2.01171875 0 l 25x82
0.99609375 5 m 25x9480
 2.01171875 5 l 25x9480
 2.01171875 5.99609375 l 25
 4.00390625 5.99609375 l 25
 4.00390625 5 l 25
 5 5 l 25
 5 3.0078125 l 25xaa80
 4.00390625 3.0078125 l 25
 4.00390625 2.01171875 l 25xa9
 3.0078125 2.01171875 l 25
 3.0078125 0.99609375 l 25
 2.01171875 0.99609375 l 25
 2.01171875 2.01171875 l 25
 3.0078125 2.01171875 l 25xc2
 3.0078125 3.0078125 l 25
 4.00390625 3.0078125 l 25xa1
 4.00390625 5 l 25xa880
 2.01171875 5 l 25
 2.01171875 4.00390625 l 25
 0.99609375 4.00390625 l 25
 0.99609375 5 l 25x9480
EndSplineSet
EndChar

StartChar: at
Encoding: 64 64 32
Width: 6
VWidth: 0
Flags: W
HStem: -0.996094 0.996094<2.08984 4.17969> 0.996094 0.996094<3.125 4.17969> 4.00391 0.996094<3.125 4.17969> 5.99609 0.996094<2.08984 4.17969>
VStem: 0.996094 2.01172<2.08984 4.17969> 0.996094 0.996094<0 2.08984 4.17969 6.25> 2.01172 2.01172<-1.03516 0 6.25 7.28516> 3.00781 2.01172<1.03516 2.08984 4.17969 5.21484> 4.00391 0.996094<2.08984 4.17969 5.21484 6.25>
LayerCount: 2
Back
SplineSet
2.0830078125 6.25 m 29
 2.0830078125 4.1669921875 l 25
 3.125 4.1669921875 l 25
 3.125 2.0830078125 l 25
 4.1669921875 2.0830078125 l 25
 4.1669921875 4.1669921875 l 25
 3.125 4.1669921875 l 25
 3.125 5.2080078125 l 25
 4.1669921875 5.2080078125 l 25
 4.1669921875 6.25 l 25
 2.0830078125 6.25 l 29
1.0419921875 6.25 m 25
 2.0830078125 6.25 l 25
 2.0830078125 7.2919921875 l 25
 4.1669921875 7.2919921875 l 25
 4.1669921875 6.25 l 25
 5.2080078125 6.25 l 25
 5.2080078125 1.0419921875 l 25
 3.125 1.0419921875 l 25
 3.125 2.0830078125 l 25
 2.0830078125 2.0830078125 l 25
 2.0830078125 0 l 25
 4.1669921875 0 l 25
 4.1669921875 -1.0419921875 l 25
 2.0830078125 -1.0419921875 l 25
 2.0830078125 0 l 25
 1.0419921875 0 l 25
 1.0419921875 6.25 l 25
EndSplineSet
Fore
SplineSet
2.01171875 5.99609375 m 25xf4
 2.01171875 4.00390625 l 25xf4
 3.0078125 4.00390625 l 25
 3.0078125 2.01171875 l 25
 4.00390625 2.01171875 l 25
 4.00390625 4.00390625 l 25
 3.0078125 4.00390625 l 25xf880
 3.0078125 5 l 25xf1
 4.00390625 5 l 25xf080
 4.00390625 5.99609375 l 25xf2
 2.01171875 5.99609375 l 25xf4
0.99609375 5.99609375 m 25
 2.01171875 5.99609375 l 25xf4
 2.01171875 7.001953125 l 25
 4.00390625 7.001953125 l 25
 4.00390625 5.99609375 l 25xf2
 5 5.99609375 l 25xf080
 5 0.99609375 l 25
 3.0078125 0.99609375 l 25xf1
 3.0078125 2.01171875 l 25xf8
 2.01171875 2.01171875 l 25
 2.01171875 0 l 25xf4
 4.00390625 0 l 25
 4.00390625 -0.99609375 l 25
 2.01171875 -0.99609375 l 25xf2
 2.01171875 0 l 25
 0.99609375 0 l 25
 0.99609375 5.99609375 l 25
EndSplineSet
EndChar

StartChar: A
Encoding: 65 65 33
Width: 6
VWidth: 0
Flags: W
HStem: 0 0G<1.03516 2.08984 4.17969 5.21484> 2.01172 0.996094<2.08984 4.17969> 5 0.996094<2.08984 4.17969>
VStem: 0.996094 0.996094<0 2.08984 3.125 5.21484> 4.00391 0.996094<0 2.08984 3.125 5.21484>
LayerCount: 2
Back
SplineSet
2.0830078125 5.2080078125 m 29
 2.0830078125 3.125 l 25
 4.1669921875 3.125 l 25
 4.1669921875 5.2080078125 l 25
 2.0830078125 5.2080078125 l 29
1.0419921875 5.2080078125 m 25
 2.0830078125 5.2080078125 l 25
 2.0830078125 6.25 l 25
 4.1669921875 6.25 l 25
 4.1669921875 5.2080078125 l 25
 5.2080078125 5.2080078125 l 25
 5.2080078125 0 l 25
 4.1669921875 0 l 25
 4.1669921875 2.0830078125 l 25
 2.0830078125 2.0830078125 l 25
 2.0830078125 0 l 25
 1.0419921875 0 l 25
 1.0419921875 5.2080078125 l 25
EndSplineSet
Fore
SplineSet
2.01171875 5 m 25
 2.01171875 3.0078125 l 25
 4.00390625 3.0078125 l 25
 4.00390625 5 l 25
 2.01171875 5 l 25
0.99609375 5 m 25
 2.01171875 5 l 25
 2.01171875 5.99609375 l 25
 4.00390625 5.99609375 l 25
 4.00390625 5 l 25
 5 5 l 25
 5 0 l 25
 4.00390625 0 l 25
 4.00390625 2.01171875 l 25
 2.01171875 2.01171875 l 25
 2.01171875 0 l 25
 0.99609375 0 l 25
 0.99609375 5 l 25
EndSplineSet
EndChar

StartChar: B
Encoding: 66 66 34
Width: 6
VWidth: 0
Flags: W
HStem: 0 0.996094<2.08984 4.17969> 5 0.996094<2.08984 4.17969>
VStem: 0.996094 3.00781<0 1.03516 3.125 4.17969 5.21484 6.25> 0.996094 0.996094<1.03516 3.125 4.17969 5.21484> 4.00391 0.996094<1.03516 3.125 4.17969 5.21484>
LayerCount: 2
Back
SplineSet
2.0830078125 3.125 m 29
 2.0830078125 1.0419921875 l 25
 4.1669921875 1.0419921875 l 25
 4.1669921875 3.125 l 25
 2.0830078125 3.125 l 29
2.0830078125 5.2080078125 m 25
 2.0830078125 4.1669921875 l 25
 4.1669921875 4.1669921875 l 25
 4.1669921875 5.2080078125 l 25
 2.0830078125 5.2080078125 l 25
1.0419921875 6.25 m 25
 4.1669921875 6.25 l 25
 4.1669921875 5.2080078125 l 25
 5.2080078125 5.2080078125 l 25
 5.2080078125 4.1669921875 l 25
 4.1669921875 4.1669921875 l 25
 4.1669921875 3.125 l 25
 5.2080078125 3.125 l 25
 5.2080078125 1.0419921875 l 25
 4.1669921875 1.0419921875 l 25
 4.1669921875 0 l 25
 1.0419921875 0 l 25
 1.0419921875 6.25 l 25
EndSplineSet
Fore
SplineSet
2.01171875 3.0078125 m 25xd0
 2.01171875 0.99609375 l 25xd0
 4.00390625 0.99609375 l 25
 4.00390625 3.0078125 l 25xe0
 2.01171875 3.0078125 l 25xd0
2.01171875 5 m 25
 2.01171875 4.00390625 l 25xd0
 4.00390625 4.00390625 l 25
 4.00390625 5 l 25xe0
 2.01171875 5 l 25
0.99609375 5.99609375 m 25xe0
 4.00390625 5.99609375 l 25
 4.00390625 5 l 25xe0
 5 5 l 25
 5 4.00390625 l 25xc8
 4.00390625 4.00390625 l 25
 4.00390625 3.0078125 l 25xe0
 5 3.0078125 l 25
 5 0.99609375 l 25xc8
 4.00390625 0.99609375 l 25
 4.00390625 0 l 25
 0.99609375 0 l 25
 0.99609375 5.99609375 l 25xe0
EndSplineSet
EndChar

StartChar: C
Encoding: 67 67 35
Width: 6
VWidth: 0
Flags: W
HStem: 0 0.996094<2.08984 5.21484> 5 0.996094<2.08984 5.21484>
VStem: 0.996094 0.996094<1.03516 5.21484> 2.01172 3.00781<0 1.03516 5.21484 6.25>
LayerCount: 2
Back
SplineSet
1.0419921875 5.2080078125 m 29
 2.0830078125 5.2080078125 l 25
 2.0830078125 6.25 l 25
 5.2080078125 6.25 l 25
 5.2080078125 5.2080078125 l 25
 2.0830078125 5.2080078125 l 25
 2.0830078125 1.0419921875 l 25
 5.2080078125 1.0419921875 l 25
 5.2080078125 0 l 25
 2.0830078125 0 l 25
 2.0830078125 1.0419921875 l 25
 1.0419921875 1.0419921875 l 25
 1.0419921875 5.2080078125 l 29
EndSplineSet
Fore
SplineSet
0.99609375 5 m 25xe0
 2.01171875 5 l 25xe0
 2.01171875 5.99609375 l 25
 5 5.99609375 l 25
 5 5 l 25xd0
 2.01171875 5 l 25
 2.01171875 0.99609375 l 25xe0
 5 0.99609375 l 25
 5 0 l 25
 2.01171875 0 l 25xd0
 2.01171875 0.99609375 l 25
 0.99609375 0.99609375 l 25
 0.99609375 5 l 25xe0
EndSplineSet
EndChar

StartChar: D
Encoding: 68 68 36
Width: 6
VWidth: 0
Flags: W
HStem: 0 0.996094<2.08984 4.17969> 5 0G<4.17969 5.21484> 5 0.996094<2.08984 4.17969>
VStem: 0.996094 3.00781<0 1.03516 5.21484 6.25> 0.996094 0.996094<1.03516 5.21484> 4.00391 0.996094<1.03516 5.21484>
LayerCount: 2
Back
SplineSet
1.0419921875 6.25 m 29
 4.1669921875 6.25 l 25
 4.1669921875 5.2080078125 l 25
 2.0830078125 5.2080078125 l 25
 2.0830078125 1.0419921875 l 25
 4.1669921875 1.0419921875 l 25
 4.1669921875 5.2080078125 l 25
 5.2080078125 5.2080078125 l 25
 5.2080078125 1.0419921875 l 25
 4.1669921875 1.0419921875 l 25
 4.1669921875 0 l 25
 1.0419921875 0 l 25
 1.0419921875 6.25 l 29
EndSplineSet
Fore
SplineSet
0.99609375 5.99609375 m 25xb0
 4.00390625 5.99609375 l 25xb0
 4.00390625 5 l 25xd0
 2.01171875 5 l 25
 2.01171875 0.99609375 l 25xa8
 4.00390625 0.99609375 l 25
 4.00390625 5 l 25xd0
 5 5 l 25
 5 0.99609375 l 25xc4
 4.00390625 0.99609375 l 25
 4.00390625 0 l 25
 0.99609375 0 l 25
 0.99609375 5.99609375 l 25xb0
EndSplineSet
EndChar

StartChar: E
Encoding: 69 69 37
Width: 6
VWidth: 0
Flags: W
HStem: 0 0.996094<2.08984 5.21484> 3.00781 0.996094<2.08984 4.17969> 5 0.996094<2.08984 5.21484>
VStem: 0.996094 0.996094<1.03516 3.125 4.17969 5.21484>
LayerCount: 2
Back
SplineSet
1.0419921875 6.25 m 29
 5.2080078125 6.25 l 25
 5.2080078125 5.2080078125 l 25
 2.0830078125 5.2080078125 l 25
 2.0830078125 4.1669921875 l 25
 4.1669921875 4.1669921875 l 25
 4.1669921875 3.125 l 25
 2.0830078125 3.125 l 25
 2.0830078125 1.0419921875 l 25
 5.2080078125 1.0419921875 l 25
 5.2080078125 0 l 25
 1.0419921875 0 l 25
 1.0419921875 6.25 l 29
EndSplineSet
Fore
SplineSet
0.99609375 5.99609375 m 25
 5 5.99609375 l 25
 5 5 l 25
 2.01171875 5 l 25
 2.01171875 4.00390625 l 25
 4.00390625 4.00390625 l 25
 4.00390625 3.0078125 l 25
 2.01171875 3.0078125 l 25
 2.01171875 0.99609375 l 25
 5 0.99609375 l 25
 5 0 l 25
 0.99609375 0 l 25
 0.99609375 5.99609375 l 25
EndSplineSet
EndChar

StartChar: F
Encoding: 70 70 38
Width: 6
VWidth: 0
Flags: W
HStem: 0 0G<1.03516 2.08984> 3.00781 0.996094<2.08984 4.17969> 5 0.996094<2.08984 5.21484>
VStem: 0.996094 0.996094<0 3.125 4.17969 5.21484>
LayerCount: 2
Back
SplineSet
1.0419921875 6.25 m 29
 5.2080078125 6.25 l 25
 5.2080078125 5.2080078125 l 25
 2.0830078125 5.2080078125 l 25
 2.0830078125 4.1669921875 l 25
 4.1669921875 4.1669921875 l 25
 4.1669921875 3.125 l 25
 2.0830078125 3.125 l 25
 2.0830078125 0 l 25
 1.0419921875 0 l 25
 1.0419921875 6.25 l 29
EndSplineSet
Fore
SplineSet
0.99609375 5.99609375 m 25
 5 5.99609375 l 25
 5 5 l 25
 2.01171875 5 l 25
 2.01171875 4.00390625 l 25
 4.00390625 4.00390625 l 25
 4.00390625 3.0078125 l 25
 2.01171875 3.0078125 l 25
 2.01171875 0 l 25
 0.99609375 0 l 25
 0.99609375 5.99609375 l 25
EndSplineSet
EndChar

StartChar: G
Encoding: 71 71 39
Width: 6
VWidth: 0
Flags: W
HStem: 0 0.996094<2.08984 4.17969> 5 0.996094<2.08984 5.21484>
VStem: 0.996094 0.996094<1.03516 5.21484> 2.01172 3.00781<0 1.03516 5.21484 6.25> 4.00391 0.996094<1.03516 3.125>
LayerCount: 2
Back
SplineSet
2.0830078125 6.25 m 29
 5.2080078125 6.25 l 25
 5.2080078125 5.2080078125 l 25
 2.0830078125 5.2080078125 l 25
 2.0830078125 1.0419921875 l 25
 4.1669921875 1.0419921875 l 25
 4.1669921875 3.125 l 25
 5.2080078125 3.125 l 25
 5.2080078125 0 l 25
 2.0830078125 0 l 25
 2.0830078125 1.0419921875 l 25
 1.0419921875 1.0419921875 l 25
 1.0419921875 5.2080078125 l 25
 2.0830078125 5.2080078125 l 25
 2.0830078125 6.25 l 29
EndSplineSet
Fore
SplineSet
2.01171875 5.99609375 m 25xd0
 5 5.99609375 l 25
 5 5 l 25xd0
 2.01171875 5 l 25
 2.01171875 0.99609375 l 25
 4.00390625 0.99609375 l 25
 4.00390625 3.0078125 l 25
 5 3.0078125 l 25xe8
 5 0 l 25
 2.01171875 0 l 25xd0
 2.01171875 0.99609375 l 25
 0.99609375 0.99609375 l 25
 0.99609375 5 l 25
 2.01171875 5 l 25xe0
 2.01171875 5.99609375 l 25xd0
EndSplineSet
EndChar

StartChar: H
Encoding: 72 72 40
Width: 6
VWidth: 0
Flags: W
HStem: 0 0G<1.03516 2.08984 4.17969 5.21484> 2.01172 0.996094<2.08984 4.17969> 5.99609 0G<1.03516 2.08984 4.17969 5.21484>
VStem: 0.996094 0.996094<0 2.08984 3.125 6.25> 4.00391 0.996094<0 2.08984 3.125 6.25>
LayerCount: 2
Back
SplineSet
1.0419921875 6.25 m 29
 2.0830078125 6.25 l 25
 2.0830078125 3.125 l 25
 4.1669921875 3.125 l 25
 4.1669921875 6.25 l 25
 5.2080078125 6.25 l 25
 5.2080078125 0 l 25
 4.1669921875 0 l 25
 4.1669921875 2.0830078125 l 25
 2.0830078125 2.0830078125 l 25
 2.0830078125 0 l 25
 1.0419921875 0 l 25
 1.0419921875 6.25 l 29
EndSplineSet
Fore
SplineSet
0.99609375 5.99609375 m 25
 2.01171875 5.99609375 l 25
 2.01171875 3.0078125 l 25
 4.00390625 3.0078125 l 25
 4.00390625 5.99609375 l 25
 5 5.99609375 l 25
 5 0 l 25
 4.00390625 0 l 25
 4.00390625 2.01171875 l 25
 2.01171875 2.01171875 l 25
 2.01171875 0 l 25
 0.99609375 0 l 25
 0.99609375 5.99609375 l 25
EndSplineSet
EndChar

StartChar: I
Encoding: 73 73 41
Width: 6
VWidth: 0
Flags: W
HStem: -15 20.9961G<3.125 4.17969> -15 20.9961G<3.125 4.17969> 0 22.002G<3.125 4.17969>
VStem: 3.00781 0.996094<0 6.25>
LayerCount: 2
Back
SplineSet
3.125 6.25 m 29x88
 4.1669921875 6.25 l 25x88
 4.1669921875 0 l 25
 3.125 0 l 25x28
 3.125 6.25 l 29x88
EndSplineSet
Fore
SplineSet
3.0078125 5.99609375 m 25x90
 4.00390625 5.99609375 l 25x90
 4.00390625 0 l 25
 3.0078125 0 l 25x30
 3.0078125 5.99609375 l 25x90
EndSplineSet
EndChar

StartChar: J
Encoding: 74 74 42
Width: 6
VWidth: 0
Flags: W
HStem: 0 0.996094<2.08984 4.17969> 5.99609 0G<4.17969 5.21484>
VStem: 4.00391 0.996094<1.03516 6.25>
LayerCount: 2
Back
SplineSet
4.1669921875 6.25 m 29
 5.2080078125 6.25 l 25
 5.2080078125 1.0419921875 l 25
 4.1669921875 1.0419921875 l 25
 4.1669921875 0 l 25
 2.0830078125 0 l 25
 2.0830078125 1.0419921875 l 25
 4.1669921875 1.0419921875 l 25
 4.1669921875 6.25 l 29
EndSplineSet
Fore
SplineSet
4.00390625 5.99609375 m 25
 5 5.99609375 l 25
 5 0.99609375 l 25
 4.00390625 0.99609375 l 25
 4.00390625 0 l 25
 2.01171875 0 l 25
 2.01171875 0.99609375 l 25
 4.00390625 0.99609375 l 25
 4.00390625 5.99609375 l 25
EndSplineSet
EndChar

StartChar: K
Encoding: 75 75 43
Width: 6
VWidth: 0
Flags: W
HStem: 0 0.996094<4.17969 5.21484> 0.996094 0.996094<3.125 4.17969> 4.00391 0.996094<3.125 4.17969> 5 0.996094<4.17969 5.21484>
VStem: 0.996094 2.01172<2.08984 4.17969> 0.996094 0.996094<0 2.08984 4.17969 6.25> 3.00781 0.996094<1.03516 2.08984 4.17969 5.21484> 4.00391 0.996094<0 1.03516 5.21484 6.25>
LayerCount: 2
Back
SplineSet
1.0419921875 6.25 m 29
 2.0830078125 6.25 l 25
 2.0830078125 4.1669921875 l 25
 3.125 4.1669921875 l 25
 3.125 5.2080078125 l 25
 4.1669921875 5.2080078125 l 25
 4.1669921875 6.25 l 25
 5.2080078125 6.25 l 25
 5.2080078125 5.2080078125 l 25
 4.1669921875 5.2080078125 l 25
 4.1669921875 4.1669921875 l 25
 3.125 4.1669921875 l 25
 3.125 2.0830078125 l 25
 4.1669921875 2.0830078125 l 25
 4.1669921875 1.0419921875 l 25
 5.2080078125 1.0419921875 l 25
 5.2080078125 0 l 25
 4.1669921875 0 l 25
 4.1669921875 1.0419921875 l 25
 3.125 1.0419921875 l 25
 3.125 2.0830078125 l 25
 2.0830078125 2.0830078125 l 25
 2.0830078125 0 l 25
 1.0419921875 0 l 25
 1.0419921875 6.25 l 29
EndSplineSet
Fore
SplineSet
0.99609375 5.99609375 m 25x94
 2.01171875 5.99609375 l 25x94
 2.01171875 4.00390625 l 25x24
 3.0078125 4.00390625 l 25x28
 3.0078125 5 l 25
 4.00390625 5 l 25x22
 4.00390625 5.99609375 l 25
 5 5.99609375 l 25
 5 5 l 25x11
 4.00390625 5 l 25
 4.00390625 4.00390625 l 25x22
 3.0078125 4.00390625 l 25
 3.0078125 2.01171875 l 25x68
 4.00390625 2.01171875 l 25x62
 4.00390625 0.99609375 l 25x82
 5 0.99609375 l 25
 5 0 l 25
 4.00390625 0 l 25x81
 4.00390625 0.99609375 l 25x82
 3.0078125 0.99609375 l 25x42
 3.0078125 2.01171875 l 25x48
 2.01171875 2.01171875 l 25x44
 2.01171875 0 l 25
 0.99609375 0 l 25
 0.99609375 5.99609375 l 25x94
EndSplineSet
EndChar

StartChar: L
Encoding: 76 76 44
Width: 6
VWidth: 0
Flags: W
HStem: 0 0.996094<2.08984 5.21484> 5.99609 0G<1.03516 2.08984>
VStem: 0.996094 0.996094<1.03516 6.25>
LayerCount: 2
Back
SplineSet
1.0419921875 6.25 m 29
 2.0830078125 6.25 l 25
 2.0830078125 1.0419921875 l 25
 5.2080078125 1.0419921875 l 25
 5.2080078125 0 l 25
 1.0419921875 0 l 25
 1.0419921875 6.25 l 29
EndSplineSet
Fore
SplineSet
0.99609375 5.99609375 m 25
 2.01171875 5.99609375 l 25
 2.01171875 0.99609375 l 25
 5 0.99609375 l 25
 5 0 l 25
 0.99609375 0 l 25
 0.99609375 5.99609375 l 25
EndSplineSet
EndChar

StartChar: M
Encoding: 77 77 45
Width: 6
VWidth: 0
Flags: W
HStem: 0 0G<1.03516 2.08984 5.21484 6.25> 5 0.996094<2.08984 3.125 4.17969 5.21484>
VStem: 0.996094 0.996094<0 5.21484> 3.00781 0.996094<3.125 5.21484> 5 0.996094<0 5.21484>
CounterMasks: 1 38
LayerCount: 2
Back
SplineSet
1.0419921875 6.25 m 29
 3.125 6.25 l 25
 3.125 5.2080078125 l 25
 4.1669921875 5.2080078125 l 25
 4.1669921875 6.25 l 25
 6.25 6.25 l 25
 6.25 0 l 25
 5.2080078125 0 l 25
 5.2080078125 5.2080078125 l 25
 4.1669921875 5.2080078125 l 25
 4.1669921875 3.125 l 25
 3.125 3.125 l 25
 3.125 5.2080078125 l 25
 2.0830078125 5.2080078125 l 25
 2.0830078125 0 l 25
 1.0419921875 0 l 25
 1.0419921875 6.25 l 29
EndSplineSet
Fore
SplineSet
0.99609375 5.99609375 m 25
 3.0078125 5.99609375 l 25
 3.0078125 5 l 25
 4.00390625 5 l 25
 4.00390625 5.99609375 l 25
 5.99609375 5.99609375 l 25
 5.99609375 0 l 25
 5 0 l 25
 5 5 l 25
 4.00390625 5 l 25
 4.00390625 3.0078125 l 25
 3.0078125 3.0078125 l 25
 3.0078125 5 l 25
 2.01171875 5 l 25
 2.01171875 0 l 25
 0.99609375 0 l 25
 0.99609375 5.99609375 l 25
EndSplineSet
EndChar

StartChar: N
Encoding: 78 78 46
Width: 6
VWidth: 0
Flags: W
HStem: 0 0G<1.03516 2.08984 4.17969 5.21484> 2.01172 0.996094<3.125 4.17969> 3.00781 0.996094<2.08984 3.125> 5.99609 0G<1.03516 2.08984 4.17969 5.21484>
VStem: 0.996094 0.996094<0 3.125 4.17969 6.25> 4.00391 0.996094<0 2.08984 3.125 6.25>
LayerCount: 2
Back
SplineSet
1.0419921875 6.25 m 29
 2.0830078125 6.25 l 25
 2.0830078125 4.1669921875 l 25
 3.125 4.1669921875 l 25
 3.125 3.125 l 25
 4.1669921875 3.125 l 25
 4.1669921875 6.25 l 25
 5.2080078125 6.25 l 25
 5.2080078125 0 l 25
 4.1669921875 0 l 25
 4.1669921875 2.0830078125 l 25
 3.125 2.0830078125 l 25
 3.125 3.125 l 25
 2.0830078125 3.125 l 25
 2.0830078125 0 l 25
 1.0419921875 0 l 25
 1.0419921875 6.25 l 29
EndSplineSet
Fore
SplineSet
0.99609375 5.99609375 m 25xbc
 2.01171875 5.99609375 l 25
 2.01171875 4.00390625 l 25
 3.0078125 4.00390625 l 25xbc
 3.0078125 3.0078125 l 25
 4.00390625 3.0078125 l 25
 4.00390625 5.99609375 l 25
 5 5.99609375 l 25
 5 0 l 25
 4.00390625 0 l 25
 4.00390625 2.01171875 l 25
 3.0078125 2.01171875 l 25
 3.0078125 3.0078125 l 25xdc
 2.01171875 3.0078125 l 25
 2.01171875 0 l 25
 0.99609375 0 l 25
 0.99609375 5.99609375 l 25xbc
EndSplineSet
EndChar

StartChar: O
Encoding: 79 79 47
Width: 6
VWidth: 0
Flags: W
HStem: -15.9961 20.9961G<4.17969 5.21484> -15.9961 20.9961G<4.17969 5.21484> 0 0.996094<2.08984 4.17969> 5 0.996094<2.08984 4.17969>
VStem: 0.996094 0.996094<1.03516 5.21484> 2.01172 2.01172<0 1.03516 5.21484 6.25>
LayerCount: 2
Back
SplineSet
2.0830078125 6.25 m 29x0a
 4.1669921875 6.25 l 25x0a
 4.1669921875 5.2080078125 l 25x82
 2.0830078125 5.2080078125 l 25
 2.0830078125 1.0419921875 l 25x0c
 4.1669921875 1.0419921875 l 25
 4.1669921875 5.2080078125 l 25
 5.2080078125 5.2080078125 l 25x82
 5.2080078125 1.0419921875 l 25
 4.1669921875 1.0419921875 l 25
 4.1669921875 0 l 25
 2.0830078125 0 l 25x22
 2.0830078125 1.0419921875 l 25
 1.0419921875 1.0419921875 l 25
 1.0419921875 5.2080078125 l 25
 2.0830078125 5.2080078125 l 25x0c
 2.0830078125 6.25 l 29x0a
EndSplineSet
Fore
SplineSet
2.01171875 5.99609375 m 25x34
 4.00390625 5.99609375 l 25x34
 4.00390625 5 l 25x84
 2.01171875 5 l 25
 2.01171875 0.99609375 l 25x38
 4.00390625 0.99609375 l 25x34
 4.00390625 5 l 25
 5 5 l 25x84
 5 0.99609375 l 25
 4.00390625 0.99609375 l 25
 4.00390625 0 l 25
 2.01171875 0 l 25x24
 2.01171875 0.99609375 l 25
 0.99609375 0.99609375 l 25
 0.99609375 5 l 25
 2.01171875 5 l 25x38
 2.01171875 5.99609375 l 25x34
EndSplineSet
EndChar

StartChar: P
Encoding: 80 80 48
Width: 6
VWidth: 0
Flags: W
HStem: 0 0G<1.03516 2.08984> 2.01172 0.996094<2.08984 4.17969> 5 0G<4.17969 5.21484> 5 0.996094<2.08984 4.17969>
VStem: 0.996094 3.00781<2.08984 3.125 5.21484 6.25> 0.996094 0.996094<0 2.08984 3.125 5.21484> 4.00391 0.996094<3.125 5.21484>
LayerCount: 2
Back
SplineSet
1.0419921875 6.25 m 29x06
 4.1669921875 6.25 l 29x06
 4.1669921875 5.2080078125 l 29x82
 2.0830078125 5.2080078125 l 29
 2.0830078125 3.125 l 29x0d
 4.1669921875 3.125 l 29x0e
 4.1669921875 5.2080078125 l 29
 5.2080078125 5.2080078125 l 29x82
 5.2080078125 3.125 l 29
 4.1669921875 3.125 l 29
 4.1669921875 2.0830078125 l 29x0a
 2.0830078125 2.0830078125 l 29x09
 2.0830078125 0 l 29
 1.0419921875 0 l 29x21
 1.0419921875 6.25 l 29x06
EndSplineSet
Fore
SplineSet
0.99609375 5.99609375 m 25xd8
 4.00390625 5.99609375 l 25xd8
 4.00390625 5 l 25xe8
 2.01171875 5 l 25
 2.01171875 3.0078125 l 25xd4
 4.00390625 3.0078125 l 25
 4.00390625 5 l 25xe8
 5 5 l 25
 5 3.0078125 l 25xe2
 4.00390625 3.0078125 l 25
 4.00390625 2.01171875 l 25xe8
 2.01171875 2.01171875 l 25
 2.01171875 0 l 25
 0.99609375 0 l 25xe4
 0.99609375 5.99609375 l 25xd8
EndSplineSet
EndChar

StartChar: Q
Encoding: 81 81 49
Width: 6
VWidth: 0
Flags: W
HStem: -0.996094 0.996094<4.17969 5.21484> 0 0.996094<2.08984 3.125> 5 0G<4.17969 5.21484> 5 0.996094<2.08984 4.17969>
VStem: 0.996094 0.996094<1.03516 5.21484> 2.01172 2.01172<0 1.03516 5.21484 6.25> 4.00391 0.996094<1.03516 5.21484>
LayerCount: 2
Back
SplineSet
1.0419921875 5.2080078125 m 29
 2.0830078125 5.2080078125 l 25
 2.0830078125 6.25 l 25
 4.1669921875 6.25 l 25
 4.1669921875 5.2080078125 l 25
 2.0830078125 5.2080078125 l 25
 2.0830078125 1.0419921875 l 25
 4.1669921875 1.0419921875 l 25
 4.1669921875 5.2080078125 l 25
 5.2080078125 5.2080078125 l 25
 5.2080078125 1.0419921875 l 25
 4.1669921875 1.0419921875 l 25
 4.1669921875 0 l 25
 5.2080078125 0 l 25
 5.2080078125 -1.0419921875 l 25
 3.125 -1.0419921875 l 25
 3.125 0 l 25
 2.0830078125 0 l 25
 2.0830078125 1.0419921875 l 25
 1.0419921875 1.0419921875 l 25
 1.0419921875 5.2080078125 l 29
EndSplineSet
Fore
SplineSet
0.99609375 5 m 25x58
 2.01171875 5 l 25x58
 2.01171875 5.99609375 l 25
 4.00390625 5.99609375 l 25x54
 4.00390625 5 l 25x24
 2.01171875 5 l 25
 2.01171875 0.99609375 l 25x58
 4.00390625 0.99609375 l 25
 4.00390625 5 l 25x64
 5 5 l 25
 5 0.99609375 l 25x62
 4.00390625 0.99609375 l 25x64
 4.00390625 0 l 25x84
 5 0 l 25
 5 -0.99609375 l 25
 3.0078125 -0.99609375 l 25x82
 3.0078125 0 l 25
 2.01171875 0 l 25x44
 2.01171875 0.99609375 l 25
 0.99609375 0.99609375 l 25
 0.99609375 5 l 25x58
EndSplineSet
EndChar

StartChar: R
Encoding: 82 82 50
Width: 6
VWidth: 0
Flags: W
HStem: 0 0.996094<4.17969 5.21484> 2.01172 0.996094<2.08984 3.125> 5 0G<4.17969 5.21484> 5 0.996094<2.08984 4.17969>
VStem: 0.996094 0.996094<0 2.08984 3.125 5.21484> 3.00781 0.996094<1.03516 2.08984> 4.00391 0.996094<0 1.03516 3.125 5.21484>
LayerCount: 2
Back
SplineSet
1.0419921875 6.25 m 29
 4.1669921875 6.25 l 25
 4.1669921875 5.2080078125 l 25
 2.0830078125 5.2080078125 l 25
 2.0830078125 3.125 l 25
 4.1669921875 3.125 l 25
 4.1669921875 5.2080078125 l 25
 5.2080078125 5.2080078125 l 25
 5.2080078125 3.125 l 25
 4.1669921875 3.125 l 25
 4.1669921875 1.0419921875 l 25
 5.2080078125 1.0419921875 l 25
 5.2080078125 0 l 25
 4.1669921875 0 l 25
 4.1669921875 1.0419921875 l 25
 3.125 1.0419921875 l 25
 3.125 2.0830078125 l 25
 2.0830078125 2.0830078125 l 25
 2.0830078125 0 l 25
 1.0419921875 0 l 25
 1.0419921875 6.25 l 29
EndSplineSet
Fore
SplineSet
0.99609375 5.99609375 m 25xdc
 4.00390625 5.99609375 l 25xda
 4.00390625 5 l 25xea
 2.01171875 5 l 25xda
 2.01171875 3.0078125 l 25
 4.00390625 3.0078125 l 25
 4.00390625 5 l 25
 5 5 l 25
 5 3.0078125 l 25
 4.00390625 3.0078125 l 25xea
 4.00390625 0.99609375 l 25xec
 5 0.99609375 l 25
 5 0 l 25
 4.00390625 0 l 25xea
 4.00390625 0.99609375 l 25
 3.0078125 0.99609375 l 25
 3.0078125 2.01171875 l 25
 2.01171875 2.01171875 l 25
 2.01171875 0 l 25
 0.99609375 0 l 25
 0.99609375 5.99609375 l 25xdc
EndSplineSet
EndChar

StartChar: S
Encoding: 83 83 51
Width: 6
VWidth: 0
Flags: W
HStem: 0 0.996094<1.03516 4.17969> 3.00781 0.996094<2.08984 4.17969> 5 0.996094<2.08984 5.21484>
VStem: 0.996094 0.996094<4.17969 5.21484> 4.00391 0.996094<1.03516 3.125>
LayerCount: 2
Back
SplineSet
2.0830078125 6.25 m 29
 5.2080078125 6.25 l 25
 5.2080078125 5.2080078125 l 25
 2.0830078125 5.2080078125 l 25
 2.0830078125 4.1669921875 l 25
 4.1669921875 4.1669921875 l 25
 4.1669921875 3.125 l 25
 5.2080078125 3.125 l 25
 5.2080078125 1.0419921875 l 25
 4.1669921875 1.0419921875 l 25
 4.1669921875 0 l 25
 1.0419921875 0 l 25
 1.0419921875 1.0419921875 l 25
 4.1669921875 1.0419921875 l 25
 4.1669921875 3.125 l 25
 2.0830078125 3.125 l 25
 2.0830078125 4.1669921875 l 25
 1.0419921875 4.1669921875 l 25
 1.0419921875 5.2080078125 l 25
 2.0830078125 5.2080078125 l 25
 2.0830078125 6.25 l 29
EndSplineSet
Fore
SplineSet
2.01171875 5.99609375 m 25
 5 5.99609375 l 25
 5 5 l 25
 2.01171875 5 l 25
 2.01171875 4.00390625 l 25
 4.00390625 4.00390625 l 25
 4.00390625 3.0078125 l 25
 5 3.0078125 l 25
 5 0.99609375 l 25
 4.00390625 0.99609375 l 25
 4.00390625 0 l 25
 0.99609375 0 l 25
 0.99609375 0.99609375 l 25
 4.00390625 0.99609375 l 25
 4.00390625 3.0078125 l 25
 2.01171875 3.0078125 l 25
 2.01171875 4.00390625 l 25
 0.99609375 4.00390625 l 25
 0.99609375 5 l 25
 2.01171875 5 l 25
 2.01171875 5.99609375 l 25
EndSplineSet
EndChar

StartChar: T
Encoding: 84 84 52
Width: 6
VWidth: 0
Flags: W
HStem: 0 0G<3.125 4.17969> 5 0.996094<1.03516 3.125 4.17969 6.25>
VStem: 3.00781 0.996094<0 5.21484>
LayerCount: 2
Back
SplineSet
1.0419921875 6.25 m 29
 6.25 6.25 l 25
 6.25 5.2080078125 l 25
 4.1669921875 5.2080078125 l 25
 4.1669921875 0 l 25
 3.125 0 l 25
 3.125 5.2080078125 l 25
 1.0419921875 5.2080078125 l 25
 1.0419921875 6.25 l 29
EndSplineSet
Fore
SplineSet
0.99609375 5.99609375 m 25
 5.99609375 5.99609375 l 25
 5.99609375 5 l 25
 4.00390625 5 l 25
 4.00390625 0 l 25
 3.0078125 0 l 25
 3.0078125 5 l 25
 0.99609375 5 l 25
 0.99609375 5.99609375 l 25
EndSplineSet
EndChar

StartChar: U
Encoding: 85 85 53
Width: 6
VWidth: 0
Flags: W
HStem: 0 0.996094<2.08984 4.17969> 5.99609 0G<1.03516 2.08984 4.17969 5.21484>
VStem: 0.996094 0.996094<1.03516 6.25> 4.00391 0.996094<1.03516 6.25>
LayerCount: 2
Back
SplineSet
1.0419921875 6.25 m 29
 2.0830078125 6.25 l 25
 2.0830078125 1.0419921875 l 25
 4.1669921875 1.0419921875 l 25
 4.1669921875 6.25 l 25
 5.2080078125 6.25 l 25
 5.2080078125 0 l 25
 2.0830078125 0 l 25
 2.0830078125 1.0419921875 l 25
 1.0419921875 1.0419921875 l 25
 1.0419921875 6.25 l 29
EndSplineSet
Fore
SplineSet
0.99609375 5.99609375 m 25
 2.01171875 5.99609375 l 25
 2.01171875 0.99609375 l 25
 4.00390625 0.99609375 l 25
 4.00390625 5.99609375 l 25
 5 5.99609375 l 25
 5 0 l 25
 2.01171875 0 l 25
 2.01171875 0.99609375 l 25
 0.99609375 0.99609375 l 25
 0.99609375 5.99609375 l 25
EndSplineSet
EndChar

StartChar: V
Encoding: 86 86 54
Width: 6
VWidth: 0
Flags: W
HStem: 0 2.01172<2.08984 4.17969> 5.99609 0G<1.03516 2.08984 4.17969 5.21484>
VStem: 0.996094 0.996094<2.08984 6.25> 4.00391 0.996094<2.08984 6.25>
LayerCount: 2
Back
SplineSet
1.0419921875 6.25 m 29
 2.0830078125 6.25 l 25
 2.0830078125 2.0830078125 l 25
 4.1669921875 2.0830078125 l 25
 4.1669921875 6.25 l 25
 5.2080078125 6.25 l 25
 5.2080078125 2.0830078125 l 25
 4.1669921875 2.0830078125 l 25
 4.1669921875 0 l 25
 2.0830078125 0 l 25
 2.0830078125 2.0830078125 l 25
 1.0419921875 2.0830078125 l 25
 1.0419921875 6.25 l 29
EndSplineSet
Fore
SplineSet
0.99609375 5.99609375 m 25
 2.01171875 5.99609375 l 25
 2.01171875 2.01171875 l 25
 4.00390625 2.01171875 l 25
 4.00390625 5.99609375 l 25
 5 5.99609375 l 25
 5 2.01171875 l 25
 4.00390625 2.01171875 l 25
 4.00390625 0 l 25
 2.01171875 0 l 25
 2.01171875 2.01171875 l 25
 0.99609375 2.01171875 l 25
 0.99609375 5.99609375 l 25
EndSplineSet
EndChar

StartChar: W
Encoding: 87 87 55
Width: 6
VWidth: 0
Flags: W
HStem: 0 0.996094<2.08984 3.125 4.17969 5.21484> 5.99609 0G<1.03516 2.08984 5.21484 6.25>
VStem: 0.996094 0.996094<1.03516 6.25> 3.00781 0.996094<1.03516 3.125> 5 0.996094<1.03516 6.25>
CounterMasks: 1 38
LayerCount: 2
Back
SplineSet
1.0419921875 6.25 m 29
 2.0830078125 6.25 l 25
 2.0830078125 1.0419921875 l 25
 3.125 1.0419921875 l 25
 3.125 3.125 l 25
 4.1669921875 3.125 l 25
 4.1669921875 1.0419921875 l 25
 5.2080078125 1.0419921875 l 25
 5.2080078125 6.25 l 25
 6.25 6.25 l 25
 6.25 1.0419921875 l 25
 5.2080078125 1.0419921875 l 25
 5.2080078125 0 l 25
 2.0830078125 0 l 25
 2.0830078125 1.0419921875 l 25
 1.0419921875 1.0419921875 l 25
 1.0419921875 6.25 l 29
EndSplineSet
Fore
SplineSet
0.99609375 5.99609375 m 25
 2.01171875 5.99609375 l 25
 2.01171875 0.99609375 l 25
 3.0078125 0.99609375 l 25
 3.0078125 3.0078125 l 25
 4.00390625 3.0078125 l 25
 4.00390625 0.99609375 l 25
 5 0.99609375 l 25
 5 5.99609375 l 25
 5.99609375 5.99609375 l 25
 5.99609375 0.99609375 l 25
 5 0.99609375 l 25
 5 0 l 25
 2.01171875 0 l 25
 2.01171875 0.99609375 l 25
 0.99609375 0.99609375 l 25
 0.99609375 5.99609375 l 25
EndSplineSet
EndChar

StartChar: X
Encoding: 88 88 56
Width: 6
VWidth: 0
Flags: W
HStem: 0 2.01172<1.03516 2.08984 4.17969 5.21484> 4.00391 2.01172<1.03516 2.08984 4.17969 5.21484>
VStem: 0.996094 0.996094<0 2.08984 4.17969 6.25> 4.00391 0.996094<0 2.08984 4.17969 6.25>
LayerCount: 2
Back
SplineSet
1.0419921875 6.25 m 29
 2.0830078125 6.25 l 25
 2.0830078125 4.1669921875 l 25
 4.1669921875 4.1669921875 l 25
 4.1669921875 6.25 l 25
 5.2080078125 6.25 l 25
 5.2080078125 4.1669921875 l 25
 4.1669921875 4.1669921875 l 25
 4.1669921875 2.0830078125 l 25
 5.2080078125 2.0830078125 l 25
 5.2080078125 0 l 25
 4.1669921875 0 l 25
 4.1669921875 2.0830078125 l 25
 2.0830078125 2.0830078125 l 25
 2.0830078125 0 l 25
 1.0419921875 0 l 25
 1.0419921875 2.0830078125 l 25
 2.0830078125 2.0830078125 l 25
 2.0830078125 4.1669921875 l 25
 1.0419921875 4.1669921875 l 25
 1.0419921875 6.25 l 29
EndSplineSet
Fore
SplineSet
0.99609375 5.99609375 m 25
 2.01171875 5.99609375 l 25
 2.01171875 4.00390625 l 25
 4.00390625 4.00390625 l 25
 4.00390625 5.99609375 l 25
 5 5.99609375 l 25
 5 4.00390625 l 25
 4.00390625 4.00390625 l 25
 4.00390625 2.01171875 l 25
 5 2.01171875 l 25
 5 0 l 25
 4.00390625 0 l 25
 4.00390625 2.01171875 l 25
 2.01171875 2.01171875 l 25
 2.01171875 0 l 25
 0.99609375 0 l 25
 0.99609375 2.01171875 l 25
 2.01171875 2.01171875 l 25
 2.01171875 4.00390625 l 25
 0.99609375 4.00390625 l 25
 0.99609375 5.99609375 l 25
EndSplineSet
EndChar

StartChar: Y
Encoding: 89 89 57
Width: 6
VWidth: 0
Flags: W
HStem: 0 0G<3.125 4.17969> 3.00781 0.996094<2.08984 3.125 4.17969 5.21484> 4.00391 2.01172<1.03516 2.08984 5.21484 6.25>
VStem: 0.996094 0.996094<4.17969 6.25> 2.01172 0.996094<3.125 4.17969> 4.00391 0.996094<3.125 4.17969> 5 0.996094<4.17969 6.25>
LayerCount: 2
Back
SplineSet
1.0419921875 6.25 m 29
 2.0830078125 6.25 l 25
 2.0830078125 4.1669921875 l 25
 3.125 4.1669921875 l 25
 3.125 3.125 l 25
 4.1669921875 3.125 l 25
 4.1669921875 4.1669921875 l 25
 5.2080078125 4.1669921875 l 25
 5.2080078125 6.25 l 25
 6.25 6.25 l 25
 6.25 5.2080078125 l 25
 6.25 4.1669921875 l 25
 5.2080078125 4.1669921875 l 25
 5.2080078125 3.125 l 25
 4.1669921875 3.125 l 25
 4.1669921875 0 l 25
 3.125 0 l 25
 3.125 3.125 l 25
 2.0830078125 3.125 l 25
 2.0830078125 4.1669921875 l 25
 1.0419921875 4.1669921875 l 25
 1.0419921875 6.25 l 29
EndSplineSet
Fore
SplineSet
0.99609375 5.99609375 m 25xb0
 2.01171875 5.99609375 l 25xb0
 2.01171875 4.00390625 l 25xd0
 3.0078125 4.00390625 l 25
 3.0078125 3.0078125 l 25
 4.00390625 3.0078125 l 25
 4.00390625 4.00390625 l 25
 5 4.00390625 l 25xcc
 5 5.99609375 l 25
 5.99609375 5.99609375 l 25
 5.99609375 5 l 25
 5.99609375 4.00390625 l 25xa2
 5 4.00390625 l 25
 5 3.0078125 l 25
 4.00390625 3.0078125 l 25
 4.00390625 0 l 25
 3.0078125 0 l 25
 3.0078125 3.0078125 l 25
 2.01171875 3.0078125 l 25xcc
 2.01171875 4.00390625 l 25xd0
 0.99609375 4.00390625 l 25
 0.99609375 5.99609375 l 25xb0
EndSplineSet
EndChar

StartChar: Z
Encoding: 90 90 58
Width: 6
VWidth: 0
Flags: W
HStem: 0 0.996094<2.08984 5.21484> 2.01172 0.996094<2.08984 3.125> 3.00781 0.996094<3.125 4.17969> 5 0.996094<1.03516 4.17969>
VStem: 0.996094 0.996094<1.03516 2.08984> 2.01172 0.996094<2.08984 3.125> 3.00781 0.996094<3.125 4.17969> 4.00391 0.996094<4.17969 5.21484>
LayerCount: 2
Back
SplineSet
1.0419921875 6.25 m 29
 5.2080078125 6.25 l 25
 5.2080078125 4.1669921875 l 25
 4.1669921875 4.1669921875 l 25
 4.1669921875 3.125 l 25
 3.125 3.125 l 25
 3.125 2.0830078125 l 25
 2.0830078125 2.0830078125 l 25
 2.0830078125 1.0419921875 l 25
 5.2080078125 1.0419921875 l 25
 5.2080078125 0 l 25
 1.0419921875 0 l 25
 1.0419921875 2.0830078125 l 25
 2.0830078125 2.0830078125 l 25
 2.0830078125 3.125 l 25
 3.125 3.125 l 25
 3.125 4.1669921875 l 25
 4.1669921875 4.1669921875 l 25
 4.1669921875 5.2080078125 l 25
 1.0419921875 5.2080078125 l 25
 1.0419921875 6.25 l 29
EndSplineSet
Fore
SplineSet
0.99609375 5.99609375 m 25xb9
 5 5.99609375 l 25
 5 4.00390625 l 25xb9
 4.00390625 4.00390625 l 25
 4.00390625 3.0078125 l 25xb2
 3.0078125 3.0078125 l 25
 3.0078125 2.01171875 l 25xd4
 2.01171875 2.01171875 l 25
 2.01171875 0.99609375 l 25
 5 0.99609375 l 25
 5 0 l 25
 0.99609375 0 l 25
 0.99609375 2.01171875 l 25
 2.01171875 2.01171875 l 25xd9
 2.01171875 3.0078125 l 25
 3.0078125 3.0078125 l 25xd4
 3.0078125 4.00390625 l 25
 4.00390625 4.00390625 l 25xb2
 4.00390625 5 l 25
 0.99609375 5 l 25
 0.99609375 5.99609375 l 25xb9
EndSplineSet
EndChar

StartChar: bracketleft
Encoding: 91 91 59
Width: 6
VWidth: 0
Flags: W
HStem: -0.996094 0.996094<3.125 4.17969> 5.99609 0.996094<3.125 4.17969>
VStem: 2.01172 2.01172<-1.03516 0 6.25 7.28516> 2.01172 0.996094<0 6.25>
LayerCount: 2
Back
SplineSet
2.0830078125 7.2919921875 m 29
 4.1669921875 7.2919921875 l 25
 4.1669921875 6.25 l 25
 3.125 6.25 l 25
 3.125 0 l 25
 4.1669921875 0 l 25
 4.1669921875 -1.0419921875 l 25
 2.0830078125 -1.0419921875 l 25
 2.0830078125 7.2919921875 l 29
EndSplineSet
Fore
SplineSet
2.01171875 7.001953125 m 25xe0
 4.00390625 7.001953125 l 25
 4.00390625 5.99609375 l 25xe0
 3.0078125 5.99609375 l 25
 3.0078125 0 l 25xd0
 4.00390625 0 l 25
 4.00390625 -0.99609375 l 25
 2.01171875 -0.99609375 l 25
 2.01171875 7.001953125 l 25xe0
EndSplineSet
EndChar

StartChar: backslash
Encoding: 92 92 60
Width: 6
VWidth: 0
Flags: W
HStem: -0.996094 0G<4.17969 5.21484> 7.00195 0G<1.03516 2.08984>
VStem: 0.996094 0.996094<5.21484 7.28516> 2.01172 0.996094<3.125 5.21484> 3.00781 0.996094<1.03516 3.125> 4.00391 0.996094<-1.03516 1.03516>
LayerCount: 2
Back
SplineSet
1.0419921875 7.2919921875 m 29
 2.0830078125 7.2919921875 l 25
 2.0830078125 5.2080078125 l 25
 3.125 5.2080078125 l 25
 3.125 3.125 l 25
 4.1669921875 3.125 l 25
 4.1669921875 1.0419921875 l 25
 5.2080078125 1.0419921875 l 25
 5.2080078125 -1.0419921875 l 25
 4.1669921875 -1.0419921875 l 25
 4.1669921875 1.0419921875 l 25
 3.125 1.0419921875 l 25
 3.125 3.125 l 25
 2.0830078125 3.125 l 25
 2.0830078125 5.2080078125 l 25
 1.0419921875 5.2080078125 l 25
 1.0419921875 7.2919921875 l 29
EndSplineSet
Fore
SplineSet
0.99609375 7.001953125 m 25xe0
 2.01171875 7.001953125 l 25
 2.01171875 5 l 25xe0
 3.0078125 5 l 25
 3.0078125 3.0078125 l 25xd0
 4.00390625 3.0078125 l 25
 4.00390625 0.99609375 l 25xc8
 5 0.99609375 l 25
 5 -0.99609375 l 25
 4.00390625 -0.99609375 l 25xc4
 4.00390625 0.99609375 l 25
 3.0078125 0.99609375 l 25xc8
 3.0078125 3.0078125 l 25
 2.01171875 3.0078125 l 25xd0
 2.01171875 5 l 25
 0.99609375 5 l 25
 0.99609375 7.001953125 l 25xe0
EndSplineSet
EndChar

StartChar: bracketright
Encoding: 93 93 61
Width: 6
VWidth: 0
Flags: W
HStem: -0.996094 0.996094<2.08984 3.125> 5.99609 0.996094<2.08984 3.125>
VStem: 2.01172 2.01172<-1.03516 0 6.25 7.28516> 3.00781 0.996094<0 6.25>
LayerCount: 2
Back
SplineSet
2.0830078125 7.2919921875 m 29
 4.1669921875 7.2919921875 l 25
 4.1669921875 -1.0419921875 l 25
 2.0830078125 -1.0419921875 l 25
 2.0830078125 0 l 25
 3.125 0 l 25
 3.125 6.25 l 25
 2.0830078125 6.25 l 25
 2.0830078125 7.2919921875 l 29
EndSplineSet
Fore
SplineSet
2.01171875 7.001953125 m 25xe0
 4.00390625 7.001953125 l 25
 4.00390625 -0.99609375 l 25
 2.01171875 -0.99609375 l 25
 2.01171875 0 l 25xe0
 3.0078125 0 l 25
 3.0078125 5.99609375 l 25xd0
 2.01171875 5.99609375 l 25
 2.01171875 7.001953125 l 25xe0
EndSplineSet
EndChar

StartChar: asciicircum
Encoding: 94 94 62
Width: 6
VWidth: 0
Flags: W
HStem: 4.00391 0.996094<1.03516 2.08984 5.21484 6.25> 5 0.996094<2.08984 3.125 4.17969 5.21484> 5.99609 0.996094<3.125 4.17969>
VStem: 0.996094 0.996094<4.17969 5.21484> 2.01172 0.996094<5.21484 6.25> 4.00391 0.996094<5.21484 6.25> 5 0.996094<4.17969 5.21484>
LayerCount: 2
Back
SplineSet
1.0419921875 5.2080078125 m 29
 2.0830078125 5.2080078125 l 25
 2.0830078125 6.25 l 25
 3.125 6.25 l 25
 3.125 7.2919921875 l 25
 4.1669921875 7.2919921875 l 25
 4.1669921875 6.25 l 25
 5.2080078125 6.25 l 25
 5.2080078125 5.2080078125 l 25
 6.25 5.2080078125 l 25
 6.25 4.1669921875 l 25
 5.2080078125 4.1669921875 l 25
 5.2080078125 5.2080078125 l 25
 4.1669921875 5.2080078125 l 25
 4.1669921875 6.25 l 25
 3.125 6.25 l 25
 3.125 5.2080078125 l 25
 2.0830078125 5.2080078125 l 25
 2.0830078125 4.1669921875 l 25
 1.0419921875 4.1669921875 l 25
 1.0419921875 5.2080078125 l 29
EndSplineSet
Fore
SplineSet
0.99609375 5 m 25x90
 2.01171875 5 l 25x90
 2.01171875 5.99609375 l 25
 3.0078125 5.99609375 l 25x48
 3.0078125 7.001953125 l 25
 4.00390625 7.001953125 l 25x2c
 4.00390625 5.99609375 l 25
 5 5.99609375 l 25x4c
 5 5 l 25x8c
 5.99609375 5 l 25
 5.99609375 4.00390625 l 25
 5 4.00390625 l 25x82
 5 5 l 25x84
 4.00390625 5 l 25
 4.00390625 5.99609375 l 25
 3.0078125 5.99609375 l 25
 3.0078125 5 l 25x4c
 2.01171875 5 l 25
 2.01171875 4.00390625 l 25
 0.99609375 4.00390625 l 25
 0.99609375 5 l 25x90
EndSplineSet
EndChar

StartChar: underscore
Encoding: 95 95 63
Width: 6
VWidth: 0
Flags: W
HStem: -0.996094 0.996094<1.03516 6.25>
LayerCount: 2
Back
SplineSet
1.0419921875 0 m 29
 6.25 0 l 25
 6.25 -1.0419921875 l 25
 1.0419921875 -1.0419921875 l 25
 1.0419921875 0 l 29
EndSplineSet
Fore
SplineSet
0.99609375 0 m 25
 5.99609375 0 l 25
 5.99609375 -0.99609375 l 25
 0.99609375 -0.99609375 l 25
 0.99609375 0 l 25
EndSplineSet
EndChar

StartChar: grave
Encoding: 96 96 64
Width: 6
VWidth: 0
Flags: W
LayerCount: 2
Back
SplineSet
2.0830078125 7.2919921875 m 29
 2.0830078125 5.2080078125 l 25
 3.125 5.2080078125 l 25
 3.125 4.1669921875 l 25
 4.1669921875 4.1669921875 l 25
 4.1669921875 5.2080078125 l 25
 3.125 5.2080078125 l 25
 3.125 7.2919921875 l 25
 2.0830078125 7.2919921875 l 29
EndSplineSet
Fore
SplineSet
2.01171875 7.001953125 m 25
 2.01171875 5 l 25
 3.0078125 5 l 25
 3.0078125 4.00390625 l 25
 4.00390625 4.00390625 l 25
 4.00390625 5 l 25
 3.0078125 5 l 25
 3.0078125 7.001953125 l 25
 2.01171875 7.001953125 l 25
EndSplineSet
EndChar

StartChar: a
Encoding: 97 97 65
Width: 6
VWidth: 0
Flags: W
LayerCount: 2
Back
SplineSet
5.2080078125 1.0419921875 m 29
 5.2080078125 0 l 25
 6.25 0 l 25
 6.25 1.0419921875 l 25
 5.2080078125 1.0419921875 l 29
2.0830078125 1.0419921875 m 25
 2.0830078125 0 l 25
 4.1669921875 0 l 25
 4.1669921875 1.0419921875 l 25
 2.0830078125 1.0419921875 l 25
2.0830078125 5.2080078125 m 25
 2.0830078125 4.1669921875 l 25
 4.1669921875 4.1669921875 l 25
 4.1669921875 1.0419921875 l 25
 5.2080078125 1.0419921875 l 25
 5.2080078125 5.2080078125 l 25
 2.0830078125 5.2080078125 l 25
1.0419921875 4.1669921875 m 25
 1.0419921875 1.0419921875 l 25
 2.0830078125 1.0419921875 l 25
 2.0830078125 4.1669921875 l 25
 1.0419921875 4.1669921875 l 25
EndSplineSet
Fore
SplineSet
5 0.99609375 m 25
 5 0 l 25
 5.99609375 0 l 25
 5.99609375 0.99609375 l 25
 5 0.99609375 l 25
2.01171875 0.99609375 m 25
 2.01171875 0 l 25
 4.00390625 0 l 25
 4.00390625 0.99609375 l 25
 2.01171875 0.99609375 l 25
2.01171875 5 m 25
 2.01171875 4.00390625 l 25
 4.00390625 4.00390625 l 25
 4.00390625 0.99609375 l 25
 5 0.99609375 l 25
 5 5 l 25
 2.01171875 5 l 25
0.99609375 4.00390625 m 25
 0.99609375 0.99609375 l 25
 2.01171875 0.99609375 l 25
 2.01171875 4.00390625 l 25
 0.99609375 4.00390625 l 25
EndSplineSet
EndChar

StartChar: b
Encoding: 98 98 66
Width: 6
VWidth: 0
Flags: W
HStem: 0 0.996094<2.08984 4.17969> 4.00391 0.996094<2.08984 4.17969> 7.00195 0G<1.03516 2.08984>
VStem: 0.996094 3.00781<0 1.03516 4.17969 5.21484> 0.996094 0.996094<1.03516 4.17969 5.21484 7.28516> 4.00391 0.996094<1.03516 4.17969>
LayerCount: 2
Back
SplineSet
4.1669921875 1.0419921875 m 29
 4.1669921875 4.1669921875 l 25
 5.2080078125 4.1669921875 l 25
 5.2080078125 1.0419921875 l 25
 4.1669921875 1.0419921875 l 29
1.0419921875 0 m 25
 1.0419921875 7.2919921875 l 25
 2.0830078125 7.2919921875 l 25
 2.0830078125 5.2080078125 l 25
 4.1669921875 5.2080078125 l 25
 4.1669921875 4.1669921875 l 25
 2.0830078125 4.1669921875 l 25
 2.0830078125 1.0419921875 l 25
 4.1669921875 1.0419921875 l 25
 4.1669921875 0 l 25
 1.0419921875 0 l 25
EndSplineSet
Fore
SplineSet
4.00390625 0.99609375 m 25xf0
 4.00390625 4.00390625 l 25xf0
 5 4.00390625 l 25
 5 0.99609375 l 25xe4
 4.00390625 0.99609375 l 25xf0
0.99609375 0 m 25
 0.99609375 7.001953125 l 25
 2.01171875 7.001953125 l 25
 2.01171875 5 l 25xe8
 4.00390625 5 l 25
 4.00390625 4.00390625 l 25xf0
 2.01171875 4.00390625 l 25
 2.01171875 0.99609375 l 25xe8
 4.00390625 0.99609375 l 25
 4.00390625 0 l 25
 0.99609375 0 l 25
EndSplineSet
EndChar

StartChar: c
Encoding: 99 99 67
Width: 6
VWidth: 0
Flags: W
HStem: 0 0.996094<2.08984 5.21484> 4.00391 0.996094<2.08984 5.21484>
VStem: 0.996094 0.996094<1.03516 4.17969> 2.01172 3.00781<0 1.03516 4.17969 5.21484>
LayerCount: 2
Back
SplineSet
2.0830078125 5.2080078125 m 29
 5.2080078125 5.2080078125 l 25
 5.2080078125 4.1669921875 l 25
 2.0830078125 4.1669921875 l 25
 2.0830078125 1.0419921875 l 25
 5.2080078125 1.0419921875 l 25
 5.2080078125 0 l 25
 2.0830078125 0 l 25
 2.0830078125 1.0419921875 l 25
 1.0419921875 1.0419921875 l 25
 1.0419921875 4.1669921875 l 25
 2.0830078125 4.1669921875 l 25
 2.0830078125 5.2080078125 l 29
EndSplineSet
Fore
SplineSet
2.01171875 5 m 25xd0
 5 5 l 25
 5 4.00390625 l 25xd0
 2.01171875 4.00390625 l 25
 2.01171875 0.99609375 l 25xe0
 5 0.99609375 l 25
 5 0 l 25
 2.01171875 0 l 25xd0
 2.01171875 0.99609375 l 25
 0.99609375 0.99609375 l 25
 0.99609375 4.00390625 l 25
 2.01171875 4.00390625 l 25xe0
 2.01171875 5 l 25xd0
EndSplineSet
EndChar

StartChar: d
Encoding: 100 100 68
Width: 6
VWidth: 0
Flags: W
HStem: 0 0.996094<2.08984 4.17969> 4.00391 0.996094<2.08984 4.17969> 7.00195 0G<4.17969 5.21484>
VStem: 0.996094 0.996094<1.03516 4.17969> 2.01172 3.00781<0 1.03516 4.17969 5.21484> 4.00391 0.996094<1.03516 4.17969 5.21484 7.28516>
LayerCount: 2
Back
SplineSet
2.0830078125 5.2080078125 m 29
 4.1669921875 5.2080078125 l 25
 4.1669921875 7.2919921875 l 25
 5.2080078125 7.2919921875 l 25
 5.2080078125 0 l 25
 2.0830078125 0 l 25
 2.0830078125 1.0419921875 l 25
 4.1669921875 1.0419921875 l 25
 4.1669921875 4.1669921875 l 25
 2.0830078125 4.1669921875 l 25
 2.0830078125 1.0419921875 l 25
 1.0419921875 1.0419921875 l 25
 1.0419921875 4.1669921875 l 25
 2.0830078125 4.1669921875 l 25
 2.0830078125 5.2080078125 l 29
EndSplineSet
Fore
SplineSet
2.01171875 5 m 25xe8
 4.00390625 5 l 25
 4.00390625 7.001953125 l 25
 5 7.001953125 l 25xe4
 5 0 l 25
 2.01171875 0 l 25xe8
 2.01171875 0.99609375 l 25
 4.00390625 0.99609375 l 25
 4.00390625 4.00390625 l 25
 2.01171875 4.00390625 l 25
 2.01171875 0.99609375 l 25
 0.99609375 0.99609375 l 25
 0.99609375 4.00390625 l 25
 2.01171875 4.00390625 l 25xf4
 2.01171875 5 l 25xe8
EndSplineSet
EndChar

StartChar: e
Encoding: 101 101 69
Width: 6
VWidth: 0
Flags: W
HStem: 0 0.996094<2.08984 5.21484> 2.01172 0.996094<2.08984 4.17969> 4.00391 0.996094<2.08984 4.17969>
VStem: 0.996094 0.996094<1.03516 2.08984 3.125 4.17969> 4.00391 0.996094<3.125 4.17969>
CounterMasks: 1 e0
LayerCount: 2
Back
SplineSet
2.0830078125 5.2080078125 m 29
 4.1669921875 5.2080078125 l 25
 4.1669921875 4.1669921875 l 25
 2.0830078125 4.1669921875 l 25
 2.0830078125 3.125 l 25
 4.1669921875 3.125 l 25
 4.1669921875 4.1669921875 l 25
 5.2080078125 4.1669921875 l 25
 5.2080078125 2.0830078125 l 25
 2.0830078125 2.0830078125 l 25
 2.0830078125 1.0419921875 l 25
 5.2080078125 1.0419921875 l 25
 5.2080078125 0 l 25
 2.0830078125 0 l 25
 2.0830078125 1.0419921875 l 25
 1.0419921875 1.0419921875 l 25
 1.0419921875 4.1669921875 l 25
 2.0830078125 4.1669921875 l 25
 2.0830078125 5.2080078125 l 29
EndSplineSet
Fore
SplineSet
2.01171875 5 m 25
 4.00390625 5 l 25
 4.00390625 4.00390625 l 25
 2.01171875 4.00390625 l 25
 2.01171875 3.0078125 l 25
 4.00390625 3.0078125 l 25
 4.00390625 4.00390625 l 25
 5 4.00390625 l 25
 5 2.01171875 l 25
 2.01171875 2.01171875 l 25
 2.01171875 0.99609375 l 25
 5 0.99609375 l 25
 5 0 l 25
 2.01171875 0 l 25
 2.01171875 0.99609375 l 25
 0.99609375 0.99609375 l 25
 0.99609375 4.00390625 l 25
 2.01171875 4.00390625 l 25
 2.01171875 5 l 25
EndSplineSet
EndChar

StartChar: f
Encoding: 102 102 70
Width: 6
VWidth: 0
Flags: W
HStem: 0 0G<2.08984 3.125> 4.00391 0.996094<3.125 5.21484> 5.99609 0.996094<3.125 5.21484>
VStem: 2.01172 0.996094<0 4.17969 5.21484 6.25>
LayerCount: 2
Back
SplineSet
2.0830078125 6.25 m 29
 3.125 6.25 l 25
 3.125 7.2919921875 l 25
 5.2080078125 7.2919921875 l 25
 5.2080078125 6.25 l 25
 3.125 6.25 l 25
 3.125 5.2080078125 l 25
 5.2080078125 5.2080078125 l 25
 5.2080078125 4.1669921875 l 25
 3.125 4.1669921875 l 25
 3.125 0 l 25
 2.0830078125 0 l 25
 2.0830078125 6.25 l 29
EndSplineSet
Fore
SplineSet
2.01171875 5.99609375 m 25
 3.0078125 5.99609375 l 25
 3.0078125 7.001953125 l 25
 5 7.001953125 l 25
 5 5.99609375 l 25
 3.0078125 5.99609375 l 25
 3.0078125 5 l 25
 5 5 l 25
 5 4.00390625 l 25
 3.0078125 4.00390625 l 25
 3.0078125 0 l 25
 2.01171875 0 l 25
 2.01171875 5.99609375 l 25
EndSplineSet
EndChar

StartChar: g
Encoding: 103 103 71
Width: 6
VWidth: 0
Flags: W
HStem: -0.996094 0.996094<2.08984 4.17969> 0.996094 0.996094<2.08984 4.17969> 4.00391 0.996094<2.08984 4.17969>
VStem: 0.996094 0.996094<2.08984 4.17969> 2.01172 3.00781<1.03516 2.08984 4.17969 5.21484> 4.00391 0.996094<0 1.03516 2.08984 4.17969>
LayerCount: 2
Back
SplineSet
1.0419921875 4.1669921875 m 29
 2.0830078125 4.1669921875 l 25
 2.0830078125 5.2080078125 l 25
 5.2080078125 5.2080078125 l 25
 5.2080078125 0 l 25
 4.1669921875 0 l 25
 4.1669921875 -1.0419921875 l 25
 2.0830078125 -1.0419921875 l 25
 2.0830078125 0 l 25
 4.1669921875 0 l 25
 4.1669921875 1.0419921875 l 25
 2.0830078125 1.0419921875 l 25
 2.0830078125 2.0830078125 l 25
 4.1669921875 2.0830078125 l 25
 4.1669921875 4.1669921875 l 25
 2.0830078125 4.1669921875 l 25
 2.0830078125 2.0830078125 l 25
 1.0419921875 2.0830078125 l 25
 1.0419921875 4.1669921875 l 29
EndSplineSet
Fore
SplineSet
0.99609375 4.00390625 m 25
 2.01171875 4.00390625 l 25
 2.01171875 0.99609375 l 25
 4.00390625 0.99609375 l 25
 4.00390625 4.00390625 l 25
 2.01171875 4.00390625 l 25
 2.01171875 5 l 25
 5 5 l 25
 5 -0.99609375 l 25
 4.00390625 -0.99609375 l 25
 4.00390625 -2.01171875 l 25
 2.01171875 -2.01171875 l 25
 2.01171875 -0.99609375 l 25
 4.00390625 -0.99609375 l 25
 4.00390625 0 l 25
 2.01171875 0 l 25
 2.01171875 0.99609375 l 25
 0.99609375 0.99609375 l 25
 0.99609375 4.00390625 l 25
EndSplineSet
EndChar

StartChar: h
Encoding: 104 104 72
Width: 6
VWidth: 0
Flags: W
HStem: 0 0G<1.03516 2.08984 4.17969 5.21484> 4.00391 0.996094<2.08984 4.17969> 7.00195 0G<1.03516 2.08984>
VStem: 0.996094 0.996094<0 4.17969 5.21484 7.28516> 4.00391 0.996094<0 4.17969>
LayerCount: 2
Back
SplineSet
1.0419921875 7.2919921875 m 29
 2.0830078125 7.2919921875 l 25
 2.0830078125 5.2080078125 l 25
 4.1669921875 5.2080078125 l 25
 4.1669921875 4.1669921875 l 25
 5.2080078125 4.1669921875 l 25
 5.2080078125 0 l 25
 4.1669921875 0 l 25
 4.1669921875 4.1669921875 l 25
 2.0830078125 4.1669921875 l 25
 2.0830078125 0 l 25
 1.0419921875 0 l 25
 1.0419921875 7.2919921875 l 29
EndSplineSet
Fore
SplineSet
0.99609375 7.001953125 m 25
 2.01171875 7.001953125 l 25
 2.01171875 5 l 25
 4.00390625 5 l 25
 4.00390625 4.00390625 l 25
 5 4.00390625 l 25
 5 0 l 25
 4.00390625 0 l 25
 4.00390625 4.00390625 l 25
 2.01171875 4.00390625 l 25
 2.01171875 0 l 25
 0.99609375 0 l 25
 0.99609375 7.001953125 l 25
EndSplineSet
EndChar

StartChar: i
Encoding: 105 105 73
Width: 6
VWidth: 0
Flags: W
HStem: 0 0G<3.125 4.17969> 5 0G<3.125 4.17969> 5.99609 0.996094<3.125 4.17969>
VStem: 3.00781 0.996094<0 5.21484 6.25 7.28516>
LayerCount: 2
Back
SplineSet
3.125 5.2080078125 m 29
 4.1669921875 5.2080078125 l 25
 4.1669921875 0 l 25
 3.125 0 l 25
 3.125 5.2080078125 l 29
3.125 7.2919921875 m 25
 4.1669921875 7.2919921875 l 25
 4.1669921875 6.25 l 25
 3.125 6.25 l 25
 3.125 7.2919921875 l 25
EndSplineSet
Fore
SplineSet
3.0078125 5 m 25
 4.00390625 5 l 25
 4.00390625 0 l 25
 3.0078125 0 l 25
 3.0078125 5 l 25
3.0078125 7.001953125 m 25
 4.00390625 7.001953125 l 25
 4.00390625 5.99609375 l 25
 3.0078125 5.99609375 l 25
 3.0078125 7.001953125 l 25
EndSplineSet
EndChar

StartChar: j
Encoding: 106 106 74
Width: 6
VWidth: 0
Flags: W
HStem: -0.996094 0.996094<2.08984 3.125> 5 0G<3.125 4.17969> 5.99609 0.996094<3.125 4.17969>
VStem: 2.01172 0.996094<-1.03516 0> 3.00781 0.996094<0 5.21484 6.25 7.28516>
LayerCount: 2
Back
SplineSet
3.125 5.2080078125 m 29
 4.1669921875 5.2080078125 l 25
 4.1669921875 0 l 25
 3.125 0 l 25
 3.125 -1.0419921875 l 25
 2.0830078125 -1.0419921875 l 25
 2.0830078125 0 l 25
 3.125 0 l 25
 3.125 5.2080078125 l 29
3.125 7.2919921875 m 25
 4.1669921875 7.2919921875 l 25
 4.1669921875 6.25 l 25
 3.125 6.25 l 25
 3.125 7.2919921875 l 25
EndSplineSet
Fore
SplineSet
3.0078125 5 m 25xe8
 4.00390625 5 l 25
 4.00390625 0 l 25xe8
 3.0078125 0 l 25
 3.0078125 -0.99609375 l 25
 2.01171875 -0.99609375 l 25
 2.01171875 0 l 25
 3.0078125 0 l 25xf0
 3.0078125 5 l 25xe8
3.0078125 7.001953125 m 25
 4.00390625 7.001953125 l 25
 4.00390625 5.99609375 l 25
 3.0078125 5.99609375 l 25
 3.0078125 7.001953125 l 25
EndSplineSet
EndChar

StartChar: k
Encoding: 107 107 75
Width: 6
VWidth: 0
Flags: W
HStem: 0 0.996094<4.17969 5.21484> 0.996094 0.996094<3.125 4.17969> 3.00781 0.996094<3.125 4.17969> 4.00391 0.996094<4.17969 5.21484> 7.00195 0G<1.03516 2.08984>
VStem: 0.996094 0.996094<0 2.08984 3.125 7.28516> 3.00781 0.996094<1.03516 2.08984 3.125 4.17969> 4.00391 0.996094<0 1.03516 4.17969 5.21484>
LayerCount: 2
Back
SplineSet
1.0419921875 7.2919921875 m 29
 2.0830078125 7.2919921875 l 25
 2.0830078125 3.125 l 25
 3.125 3.125 l 25
 3.125 4.1669921875 l 25
 4.1669921875 4.1669921875 l 25
 4.1669921875 5.2080078125 l 25
 5.2080078125 5.2080078125 l 25
 5.2080078125 4.1669921875 l 25
 4.1669921875 4.1669921875 l 25
 4.1669921875 3.125 l 25
 3.125 3.125 l 25
 3.125 2.0830078125 l 25
 4.1669921875 2.0830078125 l 25
 4.1669921875 1.0419921875 l 25
 5.2080078125 1.0419921875 l 25
 5.2080078125 0 l 25
 4.1669921875 0 l 25
 4.1669921875 1.0419921875 l 25
 3.125 1.0419921875 l 25
 3.125 2.0830078125 l 25
 2.0830078125 2.0830078125 l 25
 2.0830078125 0 l 25
 1.0419921875 0 l 25
 1.0419921875 7.2919921875 l 29
EndSplineSet
Fore
SplineSet
0.99609375 7.001953125 m 25x8e
 2.01171875 7.001953125 l 25
 2.01171875 3.0078125 l 25
 3.0078125 3.0078125 l 25
 3.0078125 4.00390625 l 25
 4.00390625 4.00390625 l 25xae
 4.00390625 5 l 25
 5 5 l 25
 5 4.00390625 l 25x1d
 4.00390625 4.00390625 l 25
 4.00390625 3.0078125 l 25
 3.0078125 3.0078125 l 25
 3.0078125 2.01171875 l 25
 4.00390625 2.01171875 l 25x6e
 4.00390625 0.99609375 l 25x8e
 5 0.99609375 l 25
 5 0 l 25
 4.00390625 0 l 25x8d
 4.00390625 0.99609375 l 25x8e
 3.0078125 0.99609375 l 25
 3.0078125 2.01171875 l 25
 2.01171875 2.01171875 l 25x4e
 2.01171875 0 l 25
 0.99609375 0 l 25
 0.99609375 7.001953125 l 25x8e
EndSplineSet
EndChar

StartChar: l
Encoding: 108 108 76
Width: 6
VWidth: 0
Flags: W
HStem: 0 0.996094<3.125 5.21484> 7.00195 0G<2.08984 3.125>
VStem: 2.01172 0.996094<1.03516 7.28516>
LayerCount: 2
Back
SplineSet
2.0830078125 7.2919921875 m 29
 3.125 7.2919921875 l 25
 3.125 1.0419921875 l 25
 5.2080078125 1.0419921875 l 25
 5.2080078125 0 l 25
 3.125 0 l 25
 3.125 1.0419921875 l 25
 2.0830078125 1.0419921875 l 25
 2.0830078125 7.2919921875 l 29
EndSplineSet
Fore
SplineSet
2.01171875 7.001953125 m 25
 3.0078125 7.001953125 l 25
 3.0078125 0.99609375 l 25
 5 0.99609375 l 25
 5 0 l 25
 3.0078125 0 l 25
 3.0078125 0.99609375 l 25
 2.01171875 0.99609375 l 25
 2.01171875 7.001953125 l 25
EndSplineSet
EndChar

StartChar: m
Encoding: 109 109 77
Width: 6
VWidth: 0
Flags: W
HStem: 0 0G<1.03516 2.08984 5.21484 6.25> 4.00391 0.996094<2.08984 3.125 4.17969 5.21484>
VStem: 0.996094 0.996094<0 4.17969> 3.00781 0.996094<1.03516 4.17969> 5 0.996094<0 4.17969>
CounterMasks: 1 38
LayerCount: 2
Back
SplineSet
1.0419921875 0 m 29
 1.0419921875 5.2080078125 l 25
 5.2080078125 5.2080078125 l 25
 5.2080078125 4.1669921875 l 25
 6.25 4.1669921875 l 25
 6.25 0 l 25
 5.2080078125 0 l 25
 5.2080078125 4.1669921875 l 25
 4.1669921875 4.1669921875 l 25
 4.1669921875 1.0419921875 l 25
 3.125 1.0419921875 l 25
 3.125 4.1669921875 l 25
 2.0830078125 4.1669921875 l 25
 2.0830078125 0 l 25
 1.0419921875 0 l 29
EndSplineSet
Fore
SplineSet
0.99609375 0 m 25
 0.99609375 5 l 25
 5 5 l 25
 5 4.00390625 l 25
 5.99609375 4.00390625 l 25
 5.99609375 0 l 25
 5 0 l 25
 5 4.00390625 l 25
 4.00390625 4.00390625 l 25
 4.00390625 0.99609375 l 25
 3.0078125 0.99609375 l 25
 3.0078125 4.00390625 l 25
 2.01171875 4.00390625 l 25
 2.01171875 0 l 25
 0.99609375 0 l 25
EndSplineSet
EndChar

StartChar: n
Encoding: 110 110 78
Width: 6
VWidth: 0
Flags: W
HStem: 0 0G<1.03516 2.08984 4.17969 5.21484> 4.00391 0.996094<2.08984 4.17969>
VStem: 0.996094 0.996094<0 4.17969> 4.00391 0.996094<0 4.17969>
LayerCount: 2
Back
SplineSet
1.0419921875 5.2080078125 m 29
 4.1669921875 5.2080078125 l 25
 4.1669921875 4.1669921875 l 25
 5.2080078125 4.1669921875 l 25
 5.2080078125 0 l 25
 4.1669921875 0 l 25
 4.1669921875 4.1669921875 l 25
 2.0830078125 4.1669921875 l 25
 2.0830078125 0 l 25
 1.0419921875 0 l 25
 1.0419921875 5.2080078125 l 29
EndSplineSet
Fore
SplineSet
0.99609375 5 m 25
 4.00390625 5 l 25
 4.00390625 4.00390625 l 25
 5 4.00390625 l 25
 5 0 l 25
 4.00390625 0 l 25
 4.00390625 4.00390625 l 25
 2.01171875 4.00390625 l 25
 2.01171875 0 l 25
 0.99609375 0 l 25
 0.99609375 5 l 25
EndSplineSet
EndChar

StartChar: o
Encoding: 111 111 79
Width: 6
VWidth: 0
Flags: W
HStem: 0 0.996094<2.08984 4.17969> 0.996094 3.00781<1.03516 2.08984 4.17969 5.21484>
VStem: 0.996094 0.996094<1.03516 4.17969> 2.01172 2.01172<0 1.03516 4.17969 5.21484>
LayerCount: 2
Back
SplineSet
2.0830078125 5.2080078125 m 29x28
 4.1669921875 5.2080078125 l 25
 4.1669921875 4.1669921875 l 25
 5.2080078125 4.1669921875 l 25
 5.2080078125 1.0419921875 l 25
 4.1669921875 1.0419921875 l 25x28
 4.1669921875 0 l 25
 2.0830078125 0 l 25x88
 2.0830078125 1.0419921875 l 25
 1.0419921875 1.0419921875 l 25
 1.0419921875 4.1669921875 l 25
 2.0830078125 4.1669921875 l 25
 2.0830078125 1.0419921875 l 25x30
 4.1669921875 1.0419921875 l 25
 4.1669921875 4.1669921875 l 25x28
 2.0830078125 4.1669921875 l 25x30
 2.0830078125 5.2080078125 l 29x28
EndSplineSet
Fore
SplineSet
2.01171875 5 m 25x50
 4.00390625 5 l 25
 4.00390625 4.00390625 l 25
 5 4.00390625 l 25
 5 0.99609375 l 25x50
 4.00390625 0.99609375 l 25
 4.00390625 0 l 25
 2.01171875 0 l 25x90
 2.01171875 0.99609375 l 25xa0
 0.99609375 0.99609375 l 25
 0.99609375 4.00390625 l 25
 2.01171875 4.00390625 l 25x60
 2.01171875 0.99609375 l 25xa0
 4.00390625 0.99609375 l 25x90
 4.00390625 4.00390625 l 25x50
 2.01171875 4.00390625 l 25x60
 2.01171875 5 l 25x50
EndSplineSet
EndChar

StartChar: p
Encoding: 112 112 80
Width: 6
VWidth: 0
Flags: W
HStem: -0.996094 0G<1.03516 2.08984> 0.996094 0.996094<2.08984 4.17969> 4.00391 0.996094<2.08984 4.17969>
VStem: 0.996094 3.00781<1.03516 2.08984 4.17969 5.21484> 0.996094 0.996094<-1.03516 1.03516 2.08984 4.17969> 4.00391 0.996094<2.08984 4.17969>
LayerCount: 2
Back
SplineSet
1.0419921875 5.2080078125 m 29
 4.1669921875 5.2080078125 l 25
 4.1669921875 4.1669921875 l 25
 5.2080078125 4.1669921875 l 25
 5.2080078125 2.0830078125 l 25
 4.1669921875 2.0830078125 l 25
 4.1669921875 4.1669921875 l 25
 2.0830078125 4.1669921875 l 25
 2.0830078125 2.0830078125 l 25
 4.1669921875 2.0830078125 l 25
 4.1669921875 1.0419921875 l 25
 2.0830078125 1.0419921875 l 25
 2.0830078125 -1.0419921875 l 25
 1.0419921875 -1.0419921875 l 25
 1.0419921875 5.2080078125 l 29
EndSplineSet
Fore
SplineSet
0.99609375 5 m 25
 4.00390625 5 l 25
 4.00390625 4.00390625 l 25
 2.01171875 4.00390625 l 25
 2.01171875 0.99609375 l 25
 4.00390625 0.99609375 l 25
 4.00390625 4.00390625 l 25
 5 4.00390625 l 25
 5 0.99609375 l 25
 4.00390625 0.99609375 l 25
 4.00390625 0 l 25
 2.01171875 0 l 25
 2.01171875 -2.01171875 l 25
 0.99609375 -2.01171875 l 25
 0.99609375 5 l 25
EndSplineSet
EndChar

StartChar: q
Encoding: 113 113 81
Width: 6
VWidth: 0
Flags: W
HStem: -0.996094 0G<4.17969 5.21484> 0.996094 0.996094<2.08984 4.17969> 4.00391 0.996094<2.08984 4.17969>
VStem: 0.996094 0.996094<2.08984 4.17969> 2.01172 3.00781<1.03516 2.08984 4.17969 5.21484> 4.00391 0.996094<-1.03516 1.03516 2.08984 4.17969>
LayerCount: 2
Back
SplineSet
2.0830078125 5.2080078125 m 29
 5.2080078125 5.2080078125 l 25
 5.2080078125 -1.0419921875 l 25
 4.1669921875 -1.0419921875 l 25
 4.1669921875 1.0419921875 l 25
 2.0830078125 1.0419921875 l 25
 2.0830078125 2.0830078125 l 25
 1.0419921875 2.0830078125 l 25
 1.0419921875 4.1669921875 l 25
 2.0830078125 4.1669921875 l 25
 2.0830078125 2.0830078125 l 25
 4.1669921875 2.0830078125 l 25
 4.1669921875 4.1669921875 l 25
 2.0830078125 4.1669921875 l 25
 2.0830078125 5.2080078125 l 29
EndSplineSet
Fore
SplineSet
0.99609375 4.00390625 m 25
 2.01171875 4.00390625 l 25
 2.01171875 0.99609375 l 25
 4.00390625 0.99609375 l 25
 4.00390625 4.00390625 l 25
 2.01171875 4.00390625 l 25
 2.01171875 5 l 25
 5 5 l 25
 5 -2.01171875 l 25
 4.00390625 -2.01171875 l 25
 4.00390625 0 l 25
 2.01171875 0 l 25
 2.01171875 0.99609375 l 25
 0.99609375 0.99609375 l 25
 0.99609375 4.00390625 l 25
EndSplineSet
EndChar

StartChar: r
Encoding: 114 114 82
Width: 6
VWidth: 0
Flags: W
HStem: 0 0G<2.08984 3.125> 4.00391 0.996094<3.125 5.21484>
VStem: 2.01172 0.996094<0 4.17969>
LayerCount: 2
Back
SplineSet
3.125 5.2080078125 m 29
 5.2080078125 5.2080078125 l 25
 5.2080078125 4.1669921875 l 25
 3.125 4.1669921875 l 25
 3.125 0 l 25
 2.0830078125 0 l 25
 2.0830078125 4.1669921875 l 25
 3.125 4.1669921875 l 25
 3.125 5.2080078125 l 29
EndSplineSet
Fore
SplineSet
3.0078125 5 m 25
 5 5 l 25
 5 4.00390625 l 25
 3.0078125 4.00390625 l 25
 3.0078125 0 l 25
 2.01171875 0 l 25
 2.01171875 4.00390625 l 25
 3.0078125 4.00390625 l 25
 3.0078125 5 l 25
EndSplineSet
EndChar

StartChar: s
Encoding: 115 115 83
Width: 6
VWidth: 0
Flags: W
HStem: 0 0.996094<1.03516 4.17969> 2.01172 0.996094<2.08984 4.17969> 4.00391 0.996094<2.08984 5.21484>
VStem: 0.996094 0.996094<3.125 4.17969> 4.00391 0.996094<1.03516 2.08984>
CounterMasks: 1 e0
LayerCount: 2
Back
SplineSet
2.0830078125 5.2080078125 m 29
 5.2080078125 5.2080078125 l 25
 5.2080078125 4.1669921875 l 25
 2.0830078125 4.1669921875 l 25
 2.0830078125 3.125 l 25
 4.1669921875 3.125 l 25
 4.1669921875 2.0830078125 l 25
 5.2080078125 2.0830078125 l 25
 5.2080078125 1.0419921875 l 25
 4.1669921875 1.0419921875 l 25
 4.1669921875 0 l 25
 1.0419921875 0 l 25
 1.0419921875 1.0419921875 l 25
 4.1669921875 1.0419921875 l 25
 4.1669921875 2.0830078125 l 25
 2.0830078125 2.0830078125 l 25
 2.0830078125 3.125 l 25
 1.0419921875 3.125 l 25
 1.0419921875 4.1669921875 l 25
 2.0830078125 4.1669921875 l 25
 2.0830078125 5.2080078125 l 29
EndSplineSet
Fore
SplineSet
2.01171875 5 m 25
 5 5 l 25
 5 4.00390625 l 25
 2.01171875 4.00390625 l 25
 2.01171875 3.0078125 l 25
 4.00390625 3.0078125 l 25
 4.00390625 2.01171875 l 25
 5 2.01171875 l 25
 5 0.99609375 l 25
 4.00390625 0.99609375 l 25
 4.00390625 0 l 25
 0.99609375 0 l 25
 0.99609375 0.99609375 l 25
 4.00390625 0.99609375 l 25
 4.00390625 2.01171875 l 25
 2.01171875 2.01171875 l 25
 2.01171875 3.0078125 l 25
 0.99609375 3.0078125 l 25
 0.99609375 4.00390625 l 25
 2.01171875 4.00390625 l 25
 2.01171875 5 l 25
EndSplineSet
EndChar

StartChar: t
Encoding: 116 116 84
Width: 6
VWidth: 0
Flags: W
HStem: 0 0.996094<3.125 5.21484> 4.00391 0.996094<3.125 5.21484> 7.00195 0G<2.08984 3.125>
VStem: 2.01172 0.996094<1.03516 4.17969 5.21484 7.28516>
LayerCount: 2
Back
SplineSet
2.0830078125 7.2919921875 m 29
 3.125 7.2919921875 l 25
 3.125 5.2080078125 l 25
 5.2080078125 5.2080078125 l 25
 5.2080078125 4.1669921875 l 25
 3.125 4.1669921875 l 25
 3.125 1.0419921875 l 25
 5.2080078125 1.0419921875 l 25
 5.2080078125 0 l 25
 3.125 0 l 25
 3.125 1.0419921875 l 25
 2.0830078125 1.0419921875 l 25
 2.0830078125 7.2919921875 l 29
EndSplineSet
Fore
SplineSet
2.01171875 7.001953125 m 25
 3.0078125 7.001953125 l 25
 3.0078125 5 l 25
 5 5 l 25
 5 4.00390625 l 25
 3.0078125 4.00390625 l 25
 3.0078125 0.99609375 l 25
 5 0.99609375 l 25
 5 0 l 25
 3.0078125 0 l 25
 3.0078125 0.99609375 l 25
 2.01171875 0.99609375 l 25
 2.01171875 7.001953125 l 25
EndSplineSet
EndChar

StartChar: u
Encoding: 117 117 85
Width: 6
VWidth: 0
Flags: W
HStem: 0 0.996094<2.08984 4.17969> 5 0G<1.03516 2.08984 4.17969 5.21484>
VStem: 0.996094 0.996094<1.03516 5.21484> 4.00391 0.996094<1.03516 5.21484>
LayerCount: 2
Back
SplineSet
1.0419921875 5.2080078125 m 29
 2.0830078125 5.2080078125 l 25
 2.0830078125 1.0419921875 l 25
 4.1669921875 1.0419921875 l 25
 4.1669921875 5.2080078125 l 25
 5.2080078125 5.2080078125 l 25
 5.2080078125 0 l 25
 2.0830078125 0 l 25
 2.0830078125 1.0419921875 l 25
 1.0419921875 1.0419921875 l 25
 1.0419921875 5.2080078125 l 29
EndSplineSet
Fore
SplineSet
0.99609375 5 m 25
 2.01171875 5 l 25
 2.01171875 0.99609375 l 25
 4.00390625 0.99609375 l 25
 4.00390625 5 l 25
 5 5 l 25
 5 0 l 25
 2.01171875 0 l 25
 2.01171875 0.99609375 l 25
 0.99609375 0.99609375 l 25
 0.99609375 5 l 25
EndSplineSet
EndChar

StartChar: v
Encoding: 118 118 86
Width: 6
VWidth: 0
Flags: W
HStem: 0 2.01172<2.08984 4.17969> 2.01172 3.00781<1.03516 2.08984 4.17969 5.21484>
VStem: 0.996094 0.996094<2.08984 5.21484> 4.00391 0.996094<2.08984 5.21484>
LayerCount: 2
Back
SplineSet
1.0419921875 5.2080078125 m 29
 2.0830078125 5.2080078125 l 25
 2.0830078125 2.0830078125 l 25
 4.1669921875 2.0830078125 l 25
 4.1669921875 5.2080078125 l 25
 5.2080078125 5.2080078125 l 25
 5.2080078125 2.0830078125 l 25
 4.1669921875 2.0830078125 l 25
 4.1669921875 0 l 25
 2.0830078125 0 l 25
 2.0830078125 2.0830078125 l 25
 1.0419921875 2.0830078125 l 25
 1.0419921875 5.2080078125 l 29
EndSplineSet
Fore
SplineSet
0.99609375 5 m 25x70
 2.01171875 5 l 25x70
 2.01171875 2.01171875 l 25
 4.00390625 2.01171875 l 25xb0
 4.00390625 5 l 25
 5 5 l 25
 5 2.01171875 l 25x70
 4.00390625 2.01171875 l 25
 4.00390625 0 l 25
 2.01171875 0 l 25
 2.01171875 2.01171875 l 25xb0
 0.99609375 2.01171875 l 25
 0.99609375 5 l 25x70
EndSplineSet
EndChar

StartChar: w
Encoding: 119 119 87
Width: 6
VWidth: 0
Flags: W
HStem: 0 0.996094<2.08984 3.125 4.17969 5.21484> 5 0G<1.03516 2.08984 5.21484 6.25>
VStem: 0.996094 0.996094<1.03516 5.21484> 3.00781 0.996094<1.03516 4.17969> 5 0.996094<1.03516 5.21484>
CounterMasks: 1 38
LayerCount: 2
Back
SplineSet
1.0419921875 5.2080078125 m 29
 2.0830078125 5.2080078125 l 25
 2.0830078125 1.0419921875 l 25
 3.125 1.0419921875 l 25
 3.125 4.1669921875 l 25
 4.1669921875 4.1669921875 l 25
 4.1669921875 1.0419921875 l 25
 5.2080078125 1.0419921875 l 25
 5.2080078125 5.2080078125 l 25
 6.25 5.2080078125 l 25
 6.25 0 l 25
 2.0830078125 0 l 25
 2.0830078125 1.0419921875 l 25
 1.0419921875 1.0419921875 l 25
 1.0419921875 5.2080078125 l 29
EndSplineSet
Fore
SplineSet
0.99609375 5 m 25
 2.01171875 5 l 25
 2.01171875 0.99609375 l 25
 3.0078125 0.99609375 l 25
 3.0078125 4.00390625 l 25
 4.00390625 4.00390625 l 25
 4.00390625 0.99609375 l 25
 5 0.99609375 l 25
 5 5 l 25
 5.99609375 5 l 25
 5.99609375 0 l 25
 2.01171875 0 l 25
 2.01171875 0.99609375 l 25
 0.99609375 0.99609375 l 25
 0.99609375 5 l 25
EndSplineSet
EndChar

StartChar: x
Encoding: 120 120 88
Width: 6
VWidth: 0
Flags: W
HStem: 0 2.01172<1.03516 2.08984 4.17969 5.21484> 3.00781 2.01172<1.03516 2.08984 4.17969 5.21484>
VStem: 0.996094 0.996094<0 2.08984 3.125 5.21484> 4.00391 0.996094<0 2.08984 3.125 5.21484>
LayerCount: 2
Back
SplineSet
1.0419921875 5.2080078125 m 29
 2.0830078125 5.2080078125 l 25
 2.0830078125 3.125 l 25
 4.1669921875 3.125 l 25
 4.1669921875 5.2080078125 l 25
 5.2080078125 5.2080078125 l 25
 5.2080078125 3.125 l 25
 4.1669921875 3.125 l 25
 4.1669921875 2.0830078125 l 25
 5.2080078125 2.0830078125 l 25
 5.2080078125 0 l 25
 4.1669921875 0 l 25
 4.1669921875 2.0830078125 l 25
 2.0830078125 2.0830078125 l 25
 2.0830078125 0 l 25
 1.0419921875 0 l 25
 1.0419921875 2.0830078125 l 25
 2.0830078125 2.0830078125 l 25
 2.0830078125 3.125 l 25
 1.0419921875 3.125 l 25
 1.0419921875 5.2080078125 l 29
EndSplineSet
Fore
SplineSet
0.99609375 5 m 25
 2.01171875 5 l 25
 2.01171875 3.0078125 l 25
 4.00390625 3.0078125 l 25
 4.00390625 5 l 25
 5 5 l 25
 5 3.0078125 l 25
 4.00390625 3.0078125 l 25
 4.00390625 2.01171875 l 25
 5 2.01171875 l 25
 5 0 l 25
 4.00390625 0 l 25
 4.00390625 2.01171875 l 25
 2.01171875 2.01171875 l 25
 2.01171875 0 l 25
 0.99609375 0 l 25
 0.99609375 2.01171875 l 25
 2.01171875 2.01171875 l 25
 2.01171875 3.0078125 l 25
 0.99609375 3.0078125 l 25
 0.99609375 5 l 25
EndSplineSet
EndChar

StartChar: y
Encoding: 121 121 89
Width: 6
VWidth: 0
Flags: W
HStem: -0.996094 0.996094<2.08984 4.17969> 0.996094 0.996094<2.08984 4.17969> 5 0G<1.03516 2.08984 4.17969 5.21484>
VStem: 0.996094 0.996094<2.08984 5.21484> 4.00391 0.996094<0 1.03516 2.08984 5.21484>
LayerCount: 2
Back
SplineSet
1.0419921875 5.2080078125 m 29
 2.0830078125 5.2080078125 l 25
 2.0830078125 2.0830078125 l 25
 4.1669921875 2.0830078125 l 25
 4.1669921875 5.2080078125 l 25
 5.2080078125 5.2080078125 l 25
 5.2080078125 0 l 25
 4.1669921875 0 l 25
 4.1669921875 -1.0419921875 l 25
 2.0830078125 -1.0419921875 l 25
 2.0830078125 0 l 25
 4.1669921875 0 l 25
 4.1669921875 1.0419921875 l 25
 2.0830078125 1.0419921875 l 25
 2.0830078125 2.0830078125 l 25
 1.0419921875 2.0830078125 l 25
 1.0419921875 5.2080078125 l 29
EndSplineSet
Fore
SplineSet
0.99609375 5 m 25
 2.01171875 5 l 25
 2.01171875 2.01171875 l 25
 4.00390625 2.01171875 l 25
 4.00390625 5 l 25
 5 5 l 25
 5 0 l 25
 4.00390625 0 l 25
 4.00390625 -0.99609375 l 25
 2.01171875 -0.99609375 l 25
 2.01171875 0 l 25
 4.00390625 0 l 25
 4.00390625 0.99609375 l 25
 2.01171875 0.99609375 l 25
 2.01171875 2.01171875 l 25
 0.99609375 2.01171875 l 25
 0.99609375 5 l 25
EndSplineSet
EndChar

StartChar: z
Encoding: 122 122 90
Width: 6
VWidth: 0
Flags: W
HStem: 0 0.996094<2.08984 5.21484> 2.01172 0.996094<2.08984 4.17969> 4.00391 0.996094<1.03516 4.17969>
VStem: 0.996094 0.996094<1.03516 2.08984> 4.00391 0.996094<3.125 4.17969>
CounterMasks: 1 e0
LayerCount: 2
Back
SplineSet
1.0419921875 5.2080078125 m 29
 5.2080078125 5.2080078125 l 25
 5.2080078125 3.125 l 25
 4.1669921875 3.125 l 25
 4.1669921875 2.0830078125 l 25
 2.0830078125 2.0830078125 l 25
 2.0830078125 1.0419921875 l 25
 5.2080078125 1.0419921875 l 25
 5.2080078125 0 l 25
 1.0419921875 0 l 25
 1.0419921875 2.0830078125 l 25
 2.0830078125 2.0830078125 l 25
 2.0830078125 3.125 l 25
 4.1669921875 3.125 l 25
 4.1669921875 4.1669921875 l 25
 1.0419921875 4.1669921875 l 25
 1.0419921875 5.2080078125 l 29
EndSplineSet
Fore
SplineSet
0.99609375 5 m 25
 5 5 l 25
 5 3.0078125 l 25
 4.00390625 3.0078125 l 25
 4.00390625 2.01171875 l 25
 2.01171875 2.01171875 l 25
 2.01171875 0.99609375 l 25
 5 0.99609375 l 25
 5 0 l 25
 0.99609375 0 l 25
 0.99609375 2.01171875 l 25
 2.01171875 2.01171875 l 25
 2.01171875 3.0078125 l 25
 4.00390625 3.0078125 l 25
 4.00390625 4.00390625 l 25
 0.99609375 4.00390625 l 25
 0.99609375 5 l 25
EndSplineSet
EndChar

StartChar: braceleft
Encoding: 123 123 91
Width: 6
VWidth: 0
Flags: W
HStem: 0 0.996094<4.17969 5.21484> 3.00781 0.996094<2.08984 3.125> 5.99609 0.996094<4.17969 5.21484>
VStem: 2.01172 0.996094<3.125 4.17969> 3.00781 0.996094<1.03516 3.125 4.17969 6.25> 4.00391 0.996094<0 1.03516 6.25 7.28516>
CounterMasks: 1 e0
LayerCount: 2
Back
SplineSet
4.1669921875 7.2919921875 m 29
 5.2080078125 7.2919921875 l 25
 5.2080078125 6.25 l 25
 4.1669921875 6.25 l 25
 4.1669921875 4.1669921875 l 25
 3.125 4.1669921875 l 25
 3.125 3.125 l 25
 4.1669921875 3.125 l 25
 4.1669921875 1.0419921875 l 25
 5.2080078125 1.0419921875 l 25
 5.2080078125 0 l 25
 4.1669921875 0 l 25
 4.1669921875 1.0419921875 l 25
 3.125 1.0419921875 l 25
 3.125 3.125 l 25
 2.0830078125 3.125 l 25
 2.0830078125 4.1669921875 l 25
 3.125 4.1669921875 l 25
 3.125 6.25 l 25
 4.1669921875 6.25 l 25
 4.1669921875 7.2919921875 l 29
EndSplineSet
Fore
SplineSet
4.00390625 7.001953125 m 25xe4
 5 7.001953125 l 25
 5 5.99609375 l 25xe4
 4.00390625 5.99609375 l 25
 4.00390625 4.00390625 l 25xe8
 3.0078125 4.00390625 l 25
 3.0078125 3.0078125 l 25xf0
 4.00390625 3.0078125 l 25
 4.00390625 0.99609375 l 25xe8
 5 0.99609375 l 25
 5 0 l 25
 4.00390625 0 l 25xe4
 4.00390625 0.99609375 l 25
 3.0078125 0.99609375 l 25xe8
 3.0078125 3.0078125 l 25
 2.01171875 3.0078125 l 25
 2.01171875 4.00390625 l 25
 3.0078125 4.00390625 l 25xf0
 3.0078125 5.99609375 l 25
 4.00390625 5.99609375 l 25xe8
 4.00390625 7.001953125 l 25xe4
EndSplineSet
EndChar

StartChar: bar
Encoding: 124 124 92
Width: 6
VWidth: 0
Flags: W
HStem: -0.996094 0G<3.125 4.17969> 5.99609 0G<3.125 4.17969>
VStem: 3.00781 0.996094<-1.03516 6.25>
LayerCount: 2
Back
SplineSet
3.125 6.25 m 29
 4.1669921875 6.25 l 25
 4.1669921875 -1.0419921875 l 25
 3.125 -1.0419921875 l 25
 3.125 6.25 l 29
EndSplineSet
Fore
SplineSet
3.0078125 5.99609375 m 25
 4.00390625 5.99609375 l 25
 4.00390625 -0.99609375 l 25
 3.0078125 -0.99609375 l 25
 3.0078125 5.99609375 l 25
EndSplineSet
EndChar

StartChar: braceright
Encoding: 125 125 93
Width: 6
VWidth: 0
Flags: W
HStem: 0 0.996094<1.03516 2.08984> 3.00781 0.996094<3.125 4.17969> 5.99609 0.996094<1.03516 2.08984>
VStem: 0.996094 0.996094<0 1.03516 6.25 7.28516> 2.01172 0.996094<1.03516 3.125 4.17969 6.25> 3.00781 0.996094<3.125 4.17969>
CounterMasks: 1 e0
LayerCount: 2
Back
SplineSet
1.0419921875 7.2919921875 m 29
 2.0830078125 7.2919921875 l 25
 2.0830078125 6.25 l 25
 3.125 6.25 l 25
 3.125 4.1669921875 l 25
 4.1669921875 4.1669921875 l 25
 4.1669921875 3.125 l 25
 3.125 3.125 l 25
 3.125 1.0419921875 l 25
 2.0830078125 1.0419921875 l 25
 2.0830078125 0 l 25
 1.0419921875 0 l 25
 1.0419921875 1.0419921875 l 25
 2.0830078125 1.0419921875 l 25
 2.0830078125 3.125 l 25
 3.125 3.125 l 25
 3.125 4.1669921875 l 25
 2.0830078125 4.1669921875 l 25
 2.0830078125 6.25 l 25
 1.0419921875 6.25 l 25
 1.0419921875 7.2919921875 l 29
EndSplineSet
Fore
SplineSet
0.99609375 7.001953125 m 25xf0
 2.01171875 7.001953125 l 25
 2.01171875 5.99609375 l 25xf0
 3.0078125 5.99609375 l 25
 3.0078125 4.00390625 l 25xe8
 4.00390625 4.00390625 l 25
 4.00390625 3.0078125 l 25xe4
 3.0078125 3.0078125 l 25
 3.0078125 0.99609375 l 25xe8
 2.01171875 0.99609375 l 25
 2.01171875 0 l 25
 0.99609375 0 l 25
 0.99609375 0.99609375 l 25
 2.01171875 0.99609375 l 25xf0
 2.01171875 3.0078125 l 25
 3.0078125 3.0078125 l 25
 3.0078125 4.00390625 l 25
 2.01171875 4.00390625 l 25xe8
 2.01171875 5.99609375 l 25
 0.99609375 5.99609375 l 25
 0.99609375 7.001953125 l 25xf0
EndSplineSet
EndChar

StartChar: asciitilde
Encoding: 126 126 94
Width: 6
VWidth: 0
Flags: W
HStem: 2.01172 0.996094<1.03516 2.08984 3.125 5.21484> 3.00781 0.996094<2.08984 3.125 5.21484 6.25>
VStem: 0.996094 0.996094<2.08984 3.125> 5 0.996094<3.125 4.17969>
LayerCount: 2
Back
SplineSet
1.0419921875 3.125 m 29
 2.0830078125 3.125 l 25
 2.0830078125 4.1669921875 l 25
 3.125 4.1669921875 l 25
 3.125 3.125 l 25
 5.2080078125 3.125 l 25
 5.2080078125 4.1669921875 l 25
 6.25 4.1669921875 l 25
 6.25 3.125 l 25
 5.2080078125 3.125 l 25
 5.2080078125 2.0830078125 l 25
 3.125 2.0830078125 l 25
 3.125 3.125 l 25
 2.0830078125 3.125 l 25
 2.0830078125 2.0830078125 l 25
 1.0419921875 2.0830078125 l 25
 1.0419921875 3.125 l 29
EndSplineSet
Fore
SplineSet
0.99609375 3.0078125 m 25xb0
 2.01171875 3.0078125 l 25xb0
 2.01171875 4.00390625 l 25
 3.0078125 4.00390625 l 25x70
 3.0078125 3.0078125 l 25
 5 3.0078125 l 25xb0
 5 4.00390625 l 25
 5.99609375 4.00390625 l 25
 5.99609375 3.0078125 l 25x70
 5 3.0078125 l 25
 5 2.01171875 l 25
 3.0078125 2.01171875 l 25
 3.0078125 3.0078125 l 25
 2.01171875 3.0078125 l 25
 2.01171875 2.01171875 l 25
 0.99609375 2.01171875 l 25
 0.99609375 3.0078125 l 25xb0
EndSplineSet
EndChar

StartChar: exclamdown
Encoding: 161 161 96
Width: 6
VWidth: 0
Flags: W
HStem: -0.996094 0G<3.125 4.17969> 5 0.996094<3.125 4.17969>
VStem: 3.00781 0.996094<-1.03516 4.17969 5.21484 6.25>
LayerCount: 2
Back
SplineSet
3.125 4.1669921875 m 29
 4.1669921875 4.1669921875 l 25
 4.1669921875 -1.0419921875 l 25
 3.125 -1.0419921875 l 25
 3.125 4.1669921875 l 29
4.1669921875 6.25 m 25
 4.1669921875 5.2080078125 l 25
 3.125 5.2080078125 l 25
 3.125 6.25 l 25
 4.1669921875 6.25 l 25
EndSplineSet
Fore
SplineSet
3.0078125 4.00390625 m 25
 4.00390625 4.00390625 l 25
 4.00390625 -0.99609375 l 25
 3.0078125 -0.99609375 l 25
 3.0078125 4.00390625 l 25
4.00390625 5.99609375 m 25
 4.00390625 5 l 25
 3.0078125 5 l 25
 3.0078125 5.99609375 l 25
 4.00390625 5.99609375 l 25
EndSplineSet
EndChar

StartChar: sterling
Encoding: 163 163 98
Width: 6
VWidth: 0
Flags: W
HStem: 0 0.996094<1.03516 2.08984 3.125 6.25> 2.01172 0.996094<1.03516 2.08984 3.125 5.21484> 5 0.996094<3.125 6.25>
VStem: 2.01172 0.996094<1.03516 2.08984 3.125 5.21484>
LayerCount: 2
Back
Fore
SplineSet
3.0078125 5.99609375 m 25
 5.99609375 5.99609375 l 25
 5.99609375 5 l 25
 3.0078125 5 l 25
 3.0078125 3.0078125 l 25
 5 3.0078125 l 25
 5 2.01171875 l 25
 3.0078125 2.01171875 l 25
 3.0078125 0.99609375 l 25
 5.99609375 0.99609375 l 25
 5.99609375 0 l 25
 0.99609375 0 l 25
 0.99609375 0.99609375 l 25
 2.01171875 0.99609375 l 25
 2.01171875 2.01171875 l 25
 0.99609375 2.01171875 l 25
 0.99609375 3.0078125 l 25
 2.01171875 3.0078125 l 25
 2.01171875 5 l 25
 3.0078125 5 l 25
 3.0078125 5.99609375 l 25
EndSplineSet
EndChar

StartChar: currency
Encoding: 256 164 99
Width: 6
VWidth: 0
Flags: W
HStem: 0 0.996094<0 1.03516 5.21484 6.25> 5 0.996094<0 1.03516 5.21484 6.25>
VStem: 0 0.996094<0 1.03516 5.21484 6.25> 5 0.996094<0 1.03516 5.21484 6.25>
LayerCount: 2
Back
Fore
SplineSet
2.01171875 4.00390625 m 25
 2.01171875 2.01171875 l 25
 4.00390625 2.01171875 l 25
 4.00390625 4.00390625 l 25
 2.01171875 4.00390625 l 25
0 5.99609375 m 25
 0.99609375 5.99609375 l 25
 0.99609375 5 l 25
 5 5 l 25
 5 5.99609375 l 25
 5.99609375 5.99609375 l 25
 5.99609375 5 l 25
 5 5 l 25
 5 0.99609375 l 25
 5.99609375 0.99609375 l 25
 5.99609375 0 l 25
 5 0 l 25
 5 0.99609375 l 25
 0.99609375 0.99609375 l 25
 0.99609375 0 l 25
 0 0 l 25
 0 0.99609375 l 25
 0.99609375 0.99609375 l 25
 0.99609375 5 l 25
 0 5 l 25
 0 5.99609375 l 25
EndSplineSet
EndChar

StartChar: yen
Encoding: 165 165 100
Width: 6
VWidth: 0
Flags: W
HStem: -0.996094 0G<3.125 4.17969> 0 0.996094<2.08984 3.125 4.17969 5.21484> 2.01172 0.996094<2.08984 3.125 4.17969 5.21484> 4.00391 0.996094<2.08984 3.125 4.17969 5.21484> 5 0.996094<1.03516 2.08984 5.21484 6.25>
VStem: 0.996094 0.996094<5.21484 6.25> 2.01172 0.996094<4.17969 5.21484> 3.00781 0.996094<-1.03516 0 1.03516 2.08984 3.125 4.17969> 4.00391 0.996094<4.17969 5.21484> 5 0.996094<5.21484 6.25>
LayerCount: 2
Back
Fore
SplineSet
0.99609375 5.99609375 m 25xec
 2.01171875 5.99609375 l 25xec
 2.01171875 5 l 25xf4
 3.0078125 5 l 25
 3.0078125 4.00390625 l 25xf2
 4.00390625 4.00390625 l 25xf1
 4.00390625 5 l 25
 5 5 l 25xf080
 5 5.99609375 l 25
 5.99609375 5.99609375 l 25
 5.99609375 5 l 25xe840
 5 5 l 25
 5 4.00390625 l 25xf080
 4.00390625 4.00390625 l 25
 4.00390625 3.0078125 l 25
 5 3.0078125 l 25
 5 2.01171875 l 25
 4.00390625 2.01171875 l 25
 4.00390625 0.99609375 l 25
 5 0.99609375 l 25
 5 0 l 25
 4.00390625 0 l 25
 4.00390625 -0.99609375 l 25
 3.0078125 -0.99609375 l 25
 3.0078125 0 l 25xf140
 2.01171875 0 l 25
 2.01171875 0.99609375 l 25xf2
 3.0078125 0.99609375 l 25
 3.0078125 2.01171875 l 25xf1
 2.01171875 2.01171875 l 25
 2.01171875 3.0078125 l 25xf2
 3.0078125 3.0078125 l 25xf1
 3.0078125 4.00390625 l 25
 2.01171875 4.00390625 l 25xf2
 2.01171875 5 l 25xf4
 0.99609375 5 l 25
 0.99609375 5.99609375 l 25xec
EndSplineSet
EndChar

StartChar: brokenbar
Encoding: 257 166 101
Width: 6
VWidth: 0
Flags: W
HStem: -0.996094 0G<3.125 4.17969> 5.99609 0G<3.125 4.17969>
VStem: 3.00781 0.996094<-1.03516 6.25>
LayerCount: 2
Back
Fore
SplineSet
3.0078125 5.99609375 m 25
 4.00390625 5.99609375 l 25
 4.00390625 -0.99609375 l 25
 3.0078125 -0.99609375 l 25
 3.0078125 5.99609375 l 25
EndSplineSet
EndChar

StartChar: section
Encoding: 167 167 102
Width: 6
VWidth: 0
Flags: W
HStem: -0.996094 0.996094<1.03516 3.125> 0.996094 0.996094<2.08984 3.125 4.17969 5.21484> 2.01172 0.996094<1.03516 2.08984 3.125 4.17969> 4.00391 0.996094<3.125 5.21484>
VStem: 0.996094 0.996094<2.08984 3.125> 2.01172 0.996094<1.03516 2.08984 3.125 4.17969> 3.00781 0.996094<0 1.03516 2.08984 3.125> 4.00391 0.996094<1.03516 2.08984>
LayerCount: 2
Back
Fore
SplineSet
2.01171875 5 m 25xb4
 5 5 l 25
 5 4.00390625 l 25
 3.0078125 4.00390625 l 25
 3.0078125 3.0078125 l 25xb5
 4.00390625 3.0078125 l 25xb2
 4.00390625 2.01171875 l 25xd2
 5 2.01171875 l 25
 5 0.99609375 l 25xd1
 4.00390625 0.99609375 l 25
 4.00390625 2.01171875 l 25xd2
 3.0078125 2.01171875 l 25xd4
 3.0078125 3.0078125 l 25xb4
 2.01171875 3.0078125 l 25xb8
 2.01171875 2.01171875 l 25xd8
 3.0078125 2.01171875 l 25
 3.0078125 0.99609375 l 25xd4
 4.00390625 0.99609375 l 25xd2
 4.00390625 -0.99609375 l 25xd1
 0.99609375 -0.99609375 l 25
 0.99609375 0 l 25
 3.0078125 0 l 25xda
 3.0078125 0.99609375 l 25
 2.01171875 0.99609375 l 25xd4
 2.01171875 2.01171875 l 25xd8
 0.99609375 2.01171875 l 25
 0.99609375 3.0078125 l 25
 2.01171875 3.0078125 l 25xb8
 2.01171875 5 l 25xb4
EndSplineSet
EndChar

StartChar: dieresis
Encoding: 258 168 103
Width: 6
VWidth: 0
Flags: W
HStem: 5 0.996094<2.08984 3.125 5.21484 6.25>
VStem: 2.01172 0.996094<5.21484 6.25> 5 0.996094<5.21484 6.25>
LayerCount: 2
Back
Fore
SplineSet
5 5.99609375 m 25
 5.99609375 5.99609375 l 25
 5.99609375 5 l 25
 5 5 l 25
 5 5.99609375 l 25
2.01171875 5.99609375 m 25
 3.0078125 5.99609375 l 25
 3.0078125 5 l 25
 2.01171875 5 l 25
 2.01171875 5.99609375 l 25
EndSplineSet
EndChar

StartChar: copyright
Encoding: 169 169 104
Width: 6
VWidth: 0
Flags: W
HStem: 0 0.996094<2.08984 4.17969> 0.996094 0.996094<1.03516 2.08984 4.17969 5.21484> 2.01172 0.996094<2.08984 4.17969> 4.00391 0.996094<2.08984 4.17969> 5 0.996094<1.03516 2.08984 4.17969 5.21484> 5.99609 0.996094<2.08984 4.17969>
VStem: 0 0.996094<2.08984 3.125 4.17969 5.21484> 0.996094 0.996094<1.03516 2.08984 5.21484 6.25> 2.01172 2.01172<0 1.03516 2.08984 3.125 4.17969 5.21484 6.25 7.28516> 4.00391 0.996094<1.03516 2.08984 5.21484 6.25> 5 0.996094<2.08984 5.21484>
LayerCount: 2
Back
Fore
SplineSet
2.01171875 7.001953125 m 25x0480
 4.00390625 7.001953125 l 25x0480
 4.00390625 5.99609375 l 25x0880
 2.01171875 5.99609375 l 25x09
 2.01171875 5 l 25x11
 0.99609375 5 l 25x0a
 0.99609375 4.00390625 l 25
 2.01171875 4.00390625 l 25
 2.01171875 3.0078125 l 25
 0.99609375 3.0078125 l 25x3280
 0.99609375 2.01171875 l 25x4280
 2.01171875 2.01171875 l 25x41
 2.01171875 0.99609375 l 25x81
 4.00390625 0.99609375 l 25x8080
 4.00390625 2.01171875 l 25x4080
 2.01171875 2.01171875 l 25x41
 2.01171875 3.0078125 l 25
 4.00390625 3.0078125 l 25x2080
 4.00390625 2.01171875 l 25x4080
 5 2.01171875 l 25
 5 5 l 25x4840
 4.00390625 5 l 25
 4.00390625 4.00390625 l 25
 2.01171875 4.00390625 l 25x1080
 2.01171875 5 l 25x11
 4.00390625 5 l 25x1080
 4.00390625 5.99609375 l 25x0880
 5 5.99609375 l 25
 5 5 l 25x0840
 5.99609375 5 l 25
 5.99609375 2.01171875 l 25x2820
 5 2.01171875 l 25
 5 0.99609375 l 25x4040
 4.00390625 0.99609375 l 25
 4.00390625 0 l 25
 2.01171875 0 l 25x8080
 2.01171875 0.99609375 l 25x81
 0.99609375 0.99609375 l 25x41
 0.99609375 2.01171875 l 25x42
 0 2.01171875 l 25
 0 5 l 25
 0.99609375 5 l 25x2a
 0.99609375 5.99609375 l 25
 2.01171875 5.99609375 l 25x29
 2.01171875 7.001953125 l 25x0480
EndSplineSet
EndChar

StartChar: ordfeminine
Encoding: 170 170 105
Width: 6
VWidth: 0
Flags: W
HStem: 0.996094 0.996094<2.08984 3.125> 2.01172 0.996094<1.03516 2.08984> 3.00781 0.996094<2.08984 3.125> 5 0.996094<2.08984 3.125>
VStem: 0.996094 0.996094<2.08984 3.125> 2.01172 0.996094<5.21484 6.25> 3.00781 0.996094<2.08984 3.125 4.17969 5.21484>
LayerCount: 2
Back
Fore
SplineSet
2.01171875 5.99609375 m 25x34
 3.0078125 5.99609375 l 25
 3.0078125 5 l 25x34
 4.00390625 5 l 25
 4.00390625 0.99609375 l 25xb2
 2.01171875 0.99609375 l 25xb4
 2.01171875 2.01171875 l 25
 3.0078125 2.01171875 l 25
 3.0078125 3.0078125 l 25xba
 2.01171875 3.0078125 l 25x5a
 2.01171875 2.01171875 l 25x9a
 0.99609375 2.01171875 l 25
 0.99609375 3.0078125 l 25
 2.01171875 3.0078125 l 25x5a
 2.01171875 4.00390625 l 25x34
 3.0078125 4.00390625 l 25x32
 3.0078125 5 l 25
 2.01171875 5 l 25
 2.01171875 5.99609375 l 25x34
EndSplineSet
EndChar

StartChar: guillemotleft
Encoding: 171 171 106
Width: 6
VWidth: 0
Flags: W
HStem: 0 0.996094<2.08984 3.125 5.21484 6.25> 0.996094 0.996094<1.03516 2.08984 4.17969 5.21484> 2.01172 0.996094<0 1.03516 3.125 4.17969> 3.00781 0.996094<1.03516 2.08984 4.17969 5.21484> 4.00391 0.996094<2.08984 3.125 5.21484 6.25>
VStem: 0 0.996094<2.08984 3.125> 0.996094 0.996094<1.03516 2.08984 3.125 4.17969> 2.01172 0.996094<0 1.03516 4.17969 5.21484> 3.00781 0.996094<2.08984 3.125> 4.00391 0.996094<1.03516 2.08984 3.125 4.17969> 5 0.996094<0 1.03516 4.17969 5.21484>
LayerCount: 2
Back
Fore
SplineSet
5 5 m 25x0820
 5.99609375 5 l 25
 5.99609375 4.00390625 l 25x0820
 5 4.00390625 l 25
 5 3.0078125 l 25x1040
 4.00390625 3.0078125 l 25x2080
 4.00390625 2.01171875 l 25x4080
 5 2.01171875 l 25x4040
 5 0.99609375 l 25x8040
 5.99609375 0.99609375 l 25
 5.99609375 0 l 25
 5 0 l 25x8020
 5 0.99609375 l 25x8040
 4.00390625 0.99609375 l 25x4040
 4.00390625 2.01171875 l 25x4080
 3.0078125 2.01171875 l 25
 3.0078125 3.0078125 l 25
 4.00390625 3.0078125 l 25x2080
 4.00390625 4.00390625 l 25
 5 4.00390625 l 25x1040
 5 5 l 25x0820
2.01171875 5 m 25x09
 3.0078125 5 l 25
 3.0078125 4.00390625 l 25x09
 2.01171875 4.00390625 l 25
 2.01171875 3.0078125 l 25x12
 0.99609375 3.0078125 l 25x24
 0.99609375 2.01171875 l 25x44
 2.01171875 2.01171875 l 25x42
 2.01171875 0.99609375 l 25x82
 3.0078125 0.99609375 l 25
 3.0078125 0 l 25
 2.01171875 0 l 25x81
 2.01171875 0.99609375 l 25x82
 0.99609375 0.99609375 l 25x42
 0.99609375 2.01171875 l 25x44
 0 2.01171875 l 25
 0 3.0078125 l 25
 0.99609375 3.0078125 l 25x24
 0.99609375 4.00390625 l 25
 2.01171875 4.00390625 l 25x12
 2.01171875 5 l 25x09
EndSplineSet
EndChar

StartChar: logicalnot
Encoding: 172 172 107
Width: 6
VWidth: 0
Flags: W
HStem: 0 0G<5.21484 6.25> 2.01172 0.996094<1.03516 5.21484>
VStem: 5 0.996094<0 2.08984>
LayerCount: 2
Back
Fore
SplineSet
0.99609375 3.0078125 m 25
 5.99609375 3.0078125 l 25
 5.99609375 0 l 25
 5 0 l 25
 5 2.01171875 l 25
 0.99609375 2.01171875 l 25
 0.99609375 3.0078125 l 25
EndSplineSet
EndChar

StartChar: registered
Encoding: 174 174 108
Width: 6
VWidth: 0
Flags: W
HStem: 0 0.996094<2.08984 4.17969> 0.996094 0.996094<1.03516 2.08984> 2.01172 3.00781<0 1.03516 2.08984 3.125 5.21484 6.25> 5 0.996094<1.03516 2.08984> 5.99609 0.996094<2.08984 4.17969>
VStem: 0 0.996094<2.08984 5.21484> 0.996094 0.996094<1.03516 2.08984 5.21484 6.25> 2.01172 2.01172<0 1.03516 3.125 4.17969 6.25 7.28516> 2.01172 0.996094<2.08984 3.125> 4.00391 0.996094<1.03516 2.08984 5.21484 6.25> 5 0.996094<3.125 4.17969>
LayerCount: 2
Back
Fore
SplineSet
2.01171875 7.001953125 m 25x09
 4.00390625 7.001953125 l 25
 4.00390625 5.99609375 l 25x09
 2.01171875 5.99609375 l 25x12
 2.01171875 5 l 25x22
 0.99609375 5 l 25x24
 0.99609375 2.01171875 l 25x44
 2.01171875 2.01171875 l 25x42
 2.01171875 0.99609375 l 25x82
 4.00390625 0.99609375 l 25
 4.00390625 3.0078125 l 25
 5 3.0078125 l 25
 5 4.00390625 l 25
 4.00390625 4.00390625 l 25
 4.00390625 3.0078125 l 25x8120
 3.0078125 3.0078125 l 25
 3.0078125 2.01171875 l 25xa080
 2.01171875 2.01171875 l 25x42
 2.01171875 5 l 25x22
 4.00390625 5 l 25x1240
 4.00390625 5.99609375 l 25x09
 5 5.99609375 l 25
 5 5 l 25x2840
 5.99609375 5 l 25
 5.99609375 2.01171875 l 25x2820
 5 2.01171875 l 25x2840
 5 0.99609375 l 25x4040
 4.00390625 0.99609375 l 25
 4.00390625 0 l 25
 2.01171875 0 l 25x81
 2.01171875 0.99609375 l 25x82
 0.99609375 0.99609375 l 25x42
 0.99609375 2.01171875 l 25x44
 0 2.01171875 l 25
 0 5 l 25
 0.99609375 5 l 25x24
 0.99609375 5.99609375 l 25
 2.01171875 5.99609375 l 25x12
 2.01171875 7.001953125 l 25x09
EndSplineSet
EndChar

StartChar: macron
Encoding: 175 175 109
Width: 6
VWidth: 0
Flags: W
HStem: 5 0.996094<2.08984 5.21484>
VStem: 2.01172 3.00781<5.21484 6.25>
LayerCount: 2
Back
Fore
SplineSet
2.01171875 5.99609375 m 25
 5 5.99609375 l 25
 5 5 l 25
 2.01171875 5 l 25
 2.01171875 5.99609375 l 25
EndSplineSet
EndChar

StartChar: degree
Encoding: 176 176 110
Width: 6
VWidth: 0
Flags: W
HStem: 3.00781 0.996094<2.08984 3.125> 4.00391 0.996094<1.03516 2.08984 3.125 4.17969> 5 0.996094<2.08984 3.125>
VStem: 0.996094 0.996094<4.17969 5.21484> 2.01172 0.996094<3.125 4.17969 5.21484 6.25> 3.00781 0.996094<4.17969 5.21484>
LayerCount: 2
Back
Fore
SplineSet
2.01171875 5.99609375 m 25x28
 3.0078125 5.99609375 l 25x28
 3.0078125 5 l 25x48
 2.01171875 5 l 25x50
 2.01171875 4.00390625 l 25x90
 3.0078125 4.00390625 l 25x88
 3.0078125 5 l 25x48
 4.00390625 5 l 25
 4.00390625 4.00390625 l 25x44
 3.0078125 4.00390625 l 25
 3.0078125 3.0078125 l 25
 2.01171875 3.0078125 l 25x88
 2.01171875 4.00390625 l 25x90
 0.99609375 4.00390625 l 25
 0.99609375 5 l 25
 2.01171875 5 l 25x50
 2.01171875 5.99609375 l 25x28
EndSplineSet
EndChar

StartChar: plusminus
Encoding: 177 177 111
Width: 6
VWidth: 0
Flags: W
HStem: 0.996094 0.996094<2.08984 5.21484> 4.00391 0.996094<2.08984 3.125 4.17969 5.21484> 5.99609 0G<3.125 4.17969>
VStem: 2.01172 3.00781<1.03516 2.08984 4.17969 5.21484> 3.00781 0.996094<3.125 4.17969 5.21484 6.25>
LayerCount: 2
Back
Fore
SplineSet
2.01171875 2.01171875 m 25xf0
 5 2.01171875 l 25
 5 0.99609375 l 25
 2.01171875 0.99609375 l 25
 2.01171875 2.01171875 l 25xf0
3.0078125 5.99609375 m 25xe8
 4.00390625 5.99609375 l 25
 4.00390625 5 l 25xe8
 5 5 l 25
 5 4.00390625 l 25xf0
 4.00390625 4.00390625 l 25
 4.00390625 3.0078125 l 25
 3.0078125 3.0078125 l 25
 3.0078125 4.00390625 l 25xe8
 2.01171875 4.00390625 l 25
 2.01171875 5 l 25xf0
 3.0078125 5 l 25
 3.0078125 5.99609375 l 25xe8
EndSplineSet
EndChar

StartChar: uni00B2
Encoding: 178 178 112
Width: 6
VWidth: 0
Flags: W
HStem: 3.00781 0.996094<1.03516 2.08984 3.125 4.17969> 5.99609 0.996094<1.03516 2.08984> 7.00195 0.996094<2.08984 3.125>
VStem: 0.996094 0.996094<6.25 7.28516> 2.01172 0.996094<4.17969 5.21484 7.28516 8.33984> 3.00781 0.996094<5.21484 7.28516>
LayerCount: 2
Back
Fore
SplineSet
0.99609375 5.99609375 m 25xd0
 0.99609375 7.001953125 l 25
 2.01171875 7.001953125 l 25xd0
 2.01171875 7.998046875 l 25
 3.0078125 7.998046875 l 25
 3.0078125 7.001953125 l 25xa8
 4.00390625 7.001953125 l 25
 4.00390625 5 l 25xa4
 3.0078125 5 l 25
 3.0078125 4.00390625 l 25xa8
 4.00390625 4.00390625 l 25
 4.00390625 3.0078125 l 25
 0.99609375 3.0078125 l 25
 0.99609375 4.00390625 l 25xb4
 2.01171875 4.00390625 l 25
 2.01171875 5 l 25
 3.0078125 5 l 25
 3.0078125 7.001953125 l 25xa8
 2.01171875 7.001953125 l 25
 2.01171875 5.99609375 l 25
 0.99609375 5.99609375 l 25xd0
EndSplineSet
EndChar

StartChar: uni00B3
Encoding: 179 179 113
Width: 6
VWidth: 0
Flags: W
HStem: 3.00781 0.996094<1.03516 3.125> 5 0.996094<1.03516 3.125> 7.00195 0.996094<1.03516 3.125>
VStem: 0.996094 2.01172<3.125 4.17969 5.21484 6.25 7.28516 8.33984> 3.00781 0.996094<4.17969 5.21484 6.25 7.28516>
CounterMasks: 1 e0
LayerCount: 2
Back
Fore
SplineSet
0.99609375 7.998046875 m 25xf0
 3.0078125 7.998046875 l 25
 3.0078125 7.001953125 l 25xf0
 4.00390625 7.001953125 l 25
 4.00390625 5.99609375 l 25xe8
 3.0078125 5.99609375 l 25
 3.0078125 5 l 25xf0
 4.00390625 5 l 25
 4.00390625 4.00390625 l 25xe8
 3.0078125 4.00390625 l 25
 3.0078125 3.0078125 l 25
 0.99609375 3.0078125 l 25
 0.99609375 4.00390625 l 25
 3.0078125 4.00390625 l 25
 3.0078125 5 l 25
 0.99609375 5 l 25
 0.99609375 5.99609375 l 25
 3.0078125 5.99609375 l 25
 3.0078125 7.001953125 l 25
 0.99609375 7.001953125 l 25
 0.99609375 7.998046875 l 25xf0
EndSplineSet
EndChar

StartChar: acute
Encoding: 259 180 114
Width: 6
VWidth: 0
Flags: W
HStem: 4.00391 0.996094<2.08984 3.125> 7.00195 0G<3.125 4.17969>
VStem: 2.01172 0.996094<4.17969 5.21484> 3.00781 0.996094<5.21484 7.28516>
LayerCount: 2
Back
Fore
SplineSet
3.0078125 7.001953125 m 25xd0
 4.00390625 7.001953125 l 25
 4.00390625 5 l 25xd0
 3.0078125 5 l 25
 3.0078125 4.00390625 l 25
 2.01171875 4.00390625 l 25
 2.01171875 5 l 25
 3.0078125 5 l 25xe0
 3.0078125 7.001953125 l 25xd0
EndSplineSet
EndChar

StartChar: mu
Encoding: 181 181 115
Width: 6
VWidth: 0
Flags: W
HStem: 0 0.996094<2.08984 3.125> 0.996094 0.996094<3.125 4.17969> 5 0G<1.03516 2.08984 4.17969 5.21484>
VStem: 0.996094 0.996094<-2.08984 0 1.03516 5.21484> 4.00391 0.996094<0 1.03516 2.08984 5.21484>
LayerCount: 2
Back
Fore
SplineSet
0.99609375 5 m 25xb8
 2.01171875 5 l 25
 2.01171875 0.99609375 l 25
 3.0078125 0.99609375 l 25xb8
 3.0078125 2.01171875 l 25
 4.00390625 2.01171875 l 25x78
 4.00390625 5 l 25
 5 5 l 25
 5 0 l 25
 4.00390625 0 l 25xb8
 4.00390625 0.99609375 l 25x78
 3.0078125 0.99609375 l 25
 3.0078125 0 l 25
 2.01171875 0 l 25
 2.01171875 -2.01171875 l 25
 0.99609375 -2.01171875 l 25
 0.99609375 5 l 25xb8
EndSplineSet
EndChar

StartChar: paragraph
Encoding: 182 182 116
Width: 6
VWidth: 0
Flags: W
HStem: -0.996094 0G<2.08984 3.125 4.17969 5.21484> 5 0.996094<3.125 4.17969>
VStem: 0 3.00781<3.125 5.21484> 2.01172 0.996094<-1.03516 2.08984> 4.00391 0.996094<-1.03516 5.21484>
LayerCount: 2
Back
Fore
SplineSet
0 5 m 25xe8
 0.99609375 5 l 25
 0.99609375 5.99609375 l 25
 5 5.99609375 l 25
 5 -0.99609375 l 25
 4.00390625 -0.99609375 l 25
 4.00390625 5 l 25
 3.0078125 5 l 25xe8
 3.0078125 -0.99609375 l 25
 2.01171875 -0.99609375 l 25
 2.01171875 2.01171875 l 25xd8
 0.99609375 2.01171875 l 25
 0.99609375 3.0078125 l 25
 0 3.0078125 l 25
 0 5 l 25xe8
EndSplineSet
EndChar

StartChar: periodcentered
Encoding: 183 183 117
Width: 6
VWidth: 0
Flags: W
HStem: 0.996094 2.01172<2.08984 4.17969>
VStem: 2.01172 2.01172<1.03516 3.125>
LayerCount: 2
Back
Fore
SplineSet
2.01171875 3.0078125 m 25
 4.00390625 3.0078125 l 25
 4.00390625 0.99609375 l 25
 2.01171875 0.99609375 l 25
 2.01171875 3.0078125 l 25
EndSplineSet
EndChar

StartChar: cedilla
Encoding: 260 184 118
Width: 6
VWidth: 0
Flags: W
HStem: -2.01172 0.996094<2.08984 4.17969> 0 0.996094<3.125 4.17969>
VStem: 3.00781 0.996094<0 1.03516> 4.00391 0.996094<-1.03516 0>
LayerCount: 2
Back
Fore
SplineSet
3.0078125 0.99609375 m 25xe0
 4.00390625 0.99609375 l 25
 4.00390625 0 l 25xe0
 5 0 l 25
 5 -2.01171875 l 25
 2.01171875 -2.01171875 l 25
 2.01171875 -0.99609375 l 25
 4.00390625 -0.99609375 l 25xd0
 4.00390625 0 l 25
 3.0078125 0 l 25
 3.0078125 0.99609375 l 25xe0
EndSplineSet
EndChar

StartChar: uni00B9
Encoding: 185 185 119
Width: 6
VWidth: 0
Flags: W
HStem: 4.00391 0.996094<1.03516 2.08984> 5.99609 0G<2.08984 3.125>
VStem: 2.01172 0.996094<1.03516 4.17969 5.21484 6.25>
LayerCount: 2
Back
Fore
SplineSet
0.99609375 5 m 25
 2.01171875 5 l 25
 2.01171875 5.99609375 l 25
 3.0078125 5.99609375 l 25
 3.0078125 0.99609375 l 25
 2.01171875 0.99609375 l 25
 2.01171875 4.00390625 l 25
 0.99609375 4.00390625 l 25
 0.99609375 5 l 25
EndSplineSet
EndChar

StartChar: ordmasculine
Encoding: 186 186 120
Width: 6
VWidth: 0
Flags: W
HStem: 2.01172 0.996094<2.08984 4.17969> 3.00781 2.01172<1.03516 2.08984 4.17969 5.21484> 5 0.996094<2.08984 4.17969>
VStem: 0.996094 0.996094<3.125 5.21484> 2.01172 2.01172<2.08984 3.125 5.21484 6.25> 4.00391 0.996094<3.125 5.21484>
LayerCount: 2
Back
Fore
SplineSet
2.01171875 5.99609375 m 25x28
 4.00390625 5.99609375 l 25x28
 4.00390625 5 l 25x48
 5 5 l 25
 5 3.0078125 l 25x44
 4.00390625 3.0078125 l 25
 4.00390625 2.01171875 l 25
 2.01171875 2.01171875 l 25x88
 2.01171875 3.0078125 l 25x90
 4.00390625 3.0078125 l 25x88
 4.00390625 5 l 25x48
 2.01171875 5 l 25x50
 2.01171875 3.0078125 l 25x90
 0.99609375 3.0078125 l 25
 0.99609375 5 l 25
 2.01171875 5 l 25x50
 2.01171875 5.99609375 l 25x28
EndSplineSet
EndChar

StartChar: guillemotright
Encoding: 187 187 121
Width: 6
VWidth: 0
Flags: W
HStem: 0 0.996094<0 1.03516 3.125 4.17969> 0.996094 0.996094<1.03516 2.08984 4.17969 5.21484> 2.01172 0.996094<2.08984 3.125 5.21484 6.25> 3.00781 0.996094<1.03516 2.08984 4.17969 5.21484> 4.00391 0.996094<0 1.03516 3.125 4.17969>
VStem: 0 0.996094<0 1.03516 4.17969 5.21484> 0.996094 0.996094<1.03516 2.08984 3.125 4.17969> 2.01172 0.996094<2.08984 3.125> 3.00781 0.996094<0 1.03516 4.17969 5.21484> 4.00391 0.996094<1.03516 2.08984 3.125 4.17969> 5 0.996094<2.08984 3.125>
LayerCount: 2
Back
Fore
SplineSet
3.0078125 5 m 25x0880
 4.00390625 5 l 25x0880
 4.00390625 4.00390625 l 25x1080
 5 4.00390625 l 25x1040
 5 3.0078125 l 25x2040
 5.99609375 3.0078125 l 25
 5.99609375 2.01171875 l 25x2020
 5 2.01171875 l 25
 5 0.99609375 l 25x4040
 4.00390625 0.99609375 l 25
 4.00390625 0 l 25
 3.0078125 0 l 25
 3.0078125 0.99609375 l 25
 4.00390625 0.99609375 l 25x8080
 4.00390625 2.01171875 l 25
 5 2.01171875 l 25x4040
 5 3.0078125 l 25x2040
 4.00390625 3.0078125 l 25x1040
 4.00390625 4.00390625 l 25x1080
 3.0078125 4.00390625 l 25
 3.0078125 5 l 25x0880
0 5 m 25x0c
 0.99609375 5 l 25x0c
 0.99609375 4.00390625 l 25x14
 2.01171875 4.00390625 l 25x12
 2.01171875 3.0078125 l 25x22
 3.0078125 3.0078125 l 25
 3.0078125 2.01171875 l 25x21
 2.01171875 2.01171875 l 25
 2.01171875 0.99609375 l 25x42
 0.99609375 0.99609375 l 25
 0.99609375 0 l 25
 0 0 l 25
 0 0.99609375 l 25
 0.99609375 0.99609375 l 25x84
 0.99609375 2.01171875 l 25
 2.01171875 2.01171875 l 25x42
 2.01171875 3.0078125 l 25x22
 0.99609375 3.0078125 l 25x12
 0.99609375 4.00390625 l 25x14
 0 4.00390625 l 25
 0 5 l 25x0c
EndSplineSet
EndChar

StartChar: onequarter
Encoding: 261 188 122
Width: 6
VWidth: 0
Flags: W
HStem: -0.996094 0G<5.17969 6.21484> 0 0.996094<4.125 5.17969 6.21484 7.25> 0.996094 0.996094<1 2.03516> 2.01172 0.996094<2.03516 3.08984 4.125 5.17969> 3.00781 0.996094<3.08984 4.125> 4.00391 0.996094<4.125 5.17969> 5 0.996094<5.17969 6.21484> 5.99609 0.996094<1 2.03516>
VStem: 1 0.996094<1.03516 2.08984> 1.99609 0.996094<2.08984 3.125 4.17969 6.25 7.28516 8.33984> 3.01172 0.996094<1.03516 2.08984 3.125 4.17969> 4.00781 0.996094<4.17969 5.21484> 5.00391 0.996094<-1.03516 0 1.03516 2.08984 3.125 4.17969 5.21484 6.25>
LayerCount: 2
Back
Fore
SplineSet
1 7.001953125 m 25x8580
 1.99609375 7.001953125 l 1
 2 8 l 5
 3 8 l 1
 3.01171875 4.00390625 l 1x8940
 4.0078125 4.00390625 l 25x8920
 4.0078125 5 l 25
 5.00390625 5 l 25x8410
 5.00390625 5.99609375 l 25
 6 5.99609375 l 25
 6 5 l 25x8208
 5.00390625 5 l 25
 5.00390625 4.00390625 l 25x8410
 6 4.00390625 l 25
 6 0.99609375 l 25
 6.99609375 0.99609375 l 25
 6.99609375 0 l 25
 6 0 l 25
 6 -0.99609375 l 25
 5.00390625 -0.99609375 l 25
 5.00390625 0 l 25
 3.01171875 0 l 25xc428
 3.01171875 2.01171875 l 25xd440
 4.0078125 2.01171875 l 25
 4.0078125 0.99609375 l 25
 5.00390625 0.99609375 l 25
 5.00390625 2.01171875 l 25
 4.0078125 2.01171875 l 25
 4.0078125 3.0078125 l 25
 5.00390625 3.0078125 l 25xd428
 5.00390625 4.00390625 l 25xd410
 4.0078125 4.00390625 l 25x8820
 4.0078125 3.0078125 l 25x9020
 3.01171875 3.0078125 l 25
 3.01171875 2.01171875 l 25x9040
 1.99609375 2.01171875 l 25
 1.99609375 0.99609375 l 25
 1 0.99609375 l 25
 1 2.01171875 l 25
 1.99609375 2.01171875 l 25xa080
 1.99609375 3.0078125 l 25
 3.01171875 3.0078125 l 25x9040
 3.01171875 4.00390625 l 25x8840
 1.99609375 4.00390625 l 25
 1.99609375 5.99609375 l 25x8540
 1 5.99609375 l 25
 1 7.001953125 l 25x8580
EndSplineSet
EndChar

StartChar: onehalf
Encoding: 262 189 123
Width: 6
VWidth: 0
Flags: W
HStem: 0 0.996094<3.125 4.17969 5.21484 6.25> 0.996094 0.996094<0 1.03516> 2.01172 0.996094<1.03516 2.08984 5.21484 6.25> 3.00781 0.996094<2.08984 3.125 4.17969 5.21484> 5 0.996094<4.17969 5.21484> 5.99609 0.996094<0 1.03516>
VStem: 0 0.996094<1.03516 2.08984> 0.996094 0.996094<2.08984 3.125 4.17969 6.25 7.28516 8.33984> 3.00781 0.996094<4.17969 5.21484> 4.00391 0.996094<1.03516 2.08984 5.21484 6.25> 5 0.996094<2.08984 3.125>
LayerCount: 2
Back
Fore
SplineSet
0 7.001953125 m 25x16
 0.99609375 7.001953125 l 1x15
 1 8 l 1
 2 8 l 5
 2.01171875 4.00390625 l 1
 3.0078125 4.00390625 l 25
 3.0078125 5 l 25
 4.00390625 5 l 25x1980
 4.00390625 5.99609375 l 25
 5 5.99609375 l 25
 5 5 l 25x1840
 4.00390625 5 l 25
 4.00390625 4.00390625 l 25
 5 4.00390625 l 25x18a0
 5 3.0078125 l 25
 5.99609375 3.0078125 l 25
 5.99609375 2.01171875 l 25x20a0
 5 2.01171875 l 25
 5 0.99609375 l 25xa040
 5.99609375 0.99609375 l 25
 5.99609375 0 l 25
 3.0078125 0 l 25
 3.0078125 0.99609375 l 25xa0a0
 4.00390625 0.99609375 l 25
 4.00390625 2.01171875 l 25
 5 2.01171875 l 25xa040
 5 3.0078125 l 25
 2.01171875 3.0078125 l 25
 2.01171875 2.01171875 l 25xa120
 0.99609375 2.01171875 l 25
 0.99609375 0.99609375 l 25
 0 0.99609375 l 25
 0 2.01171875 l 25
 0.99609375 2.01171875 l 25x42
 0.99609375 3.0078125 l 25
 2.01171875 3.0078125 l 25x21
 2.01171875 4.00390625 l 25
 0.99609375 4.00390625 l 25
 0.99609375 5.99609375 l 25x15
 0 5.99609375 l 25
 0 7.001953125 l 25x16
EndSplineSet
EndChar

StartChar: threequarters
Encoding: 263 190 124
Width: 6
VWidth: 0
Flags: W
HStem: -0.996094 0G<4.17969 5.21484> 0 0.996094<3.125 4.17969 5.21484 6.25> 0.996094 0.996094<0 1.03516> 2.01172 0.996094<1.03516 2.08984 3.125 4.17969> 4.00391 0.996094<0 2.08984 3.125 4.17969> 5 0.996094<4.17969 5.21484> 7.00195 0.996094<0 1.03516>
VStem: 0 0.996094<1.03516 2.08984> 0.996094 0.996094<2.08984 3.125> 2.01172 0.996094<1.03516 2.08984 3.125 4.17969 5.21484 6.25> 4.00391 0.996094<-1.03516 0 1.03516 2.08984 3.125 4.17969 5.21484 6.25>
LayerCount: 2
Back
Fore
SplineSet
0 7.998046875 m 25x8720
 3.0078125 7.998046875 l 25
 3.0078125 5 l 25
 4.00390625 5 l 25x8b60
 4.00390625 5.99609375 l 25
 5 5.99609375 l 25
 5 5 l 25x8760
 4.00390625 5 l 25
 4.00390625 4.00390625 l 25
 5 4.00390625 l 25
 5 0.99609375 l 25
 5.99609375 0.99609375 l 25
 5.99609375 0 l 25
 5 0 l 25
 5 -0.99609375 l 25
 4.00390625 -0.99609375 l 25
 4.00390625 0 l 25
 2.01171875 0 l 25xcb60
 2.01171875 2.01171875 l 25xdaa0
 3.0078125 2.01171875 l 25
 3.0078125 0.99609375 l 25
 4.00390625 0.99609375 l 25
 4.00390625 2.01171875 l 25
 3.0078125 2.01171875 l 25
 3.0078125 3.0078125 l 25
 4.00390625 3.0078125 l 25
 4.00390625 4.00390625 l 25
 3.0078125 4.00390625 l 25
 3.0078125 3.0078125 l 25xda60
 2.01171875 3.0078125 l 25
 2.01171875 2.01171875 l 25xdaa0
 0.99609375 2.01171875 l 25
 0.99609375 0.99609375 l 25
 0 0.99609375 l 25
 0 2.01171875 l 25
 0.99609375 2.01171875 l 25xa320
 0.99609375 3.0078125 l 25
 2.01171875 3.0078125 l 25x92a0
 2.01171875 4.00390625 l 25
 0 4.00390625 l 25
 0 5 l 25
 2.01171875 5 l 25x9b60
 2.01171875 5.99609375 l 25x8760
 0.99609375 5.99609375 l 25
 0.99609375 7.001953125 l 25x86a0
 0 7.001953125 l 25
 0 7.998046875 l 25x8720
EndSplineSet
EndChar

StartChar: questiondown
Encoding: 191 191 125
Width: 6
VWidth: 0
Flags: W
HStem: -0.996094 0.996094<2.08984 4.17969> 0 0.996094<4.17969 5.21484> 2.01172 0.996094<2.08984 3.125> 3.00781 0.996094<3.125 4.17969> 5 0.996094<3.125 4.17969>
VStem: 0.996094 0.996094<0 2.08984> 2.01172 0.996094<2.08984 3.125> 3.00781 0.996094<3.125 4.17969 5.21484 6.25> 4.00391 0.996094<0 1.03516>
LayerCount: 2
Back
Fore
SplineSet
3.0078125 4.00390625 m 25x19
 4.00390625 4.00390625 l 25
 4.00390625 3.0078125 l 25x19
 3.0078125 3.0078125 l 25
 3.0078125 2.01171875 l 25x2a
 2.01171875 2.01171875 l 25
 2.01171875 0 l 25
 4.00390625 0 l 25xac80
 4.00390625 0.99609375 l 25
 5 0.99609375 l 25
 5 0 l 25x4c80
 4.00390625 0 l 25
 4.00390625 -0.99609375 l 25
 2.01171875 -0.99609375 l 25x8a80
 2.01171875 0 l 25x8c
 0.99609375 0 l 25
 0.99609375 2.01171875 l 25
 2.01171875 2.01171875 l 25x6c
 2.01171875 3.0078125 l 25
 3.0078125 3.0078125 l 25x6a
 3.0078125 4.00390625 l 25x19
3.0078125 5.99609375 m 25
 4.00390625 5.99609375 l 25
 4.00390625 5 l 25
 3.0078125 5 l 25
 3.0078125 5.99609375 l 25
EndSplineSet
EndChar

StartChar: Agrave
Encoding: 192 192 126
Width: 6
VWidth: 0
Flags: W
HStem: 0 0G<1.03516 2.08984 4.17969 5.21484> 2.01172 0.996094<2.08984 4.17969> 5 0G<1.03516 2.08984> 5 0.996094<2.08984 3.125> 7.00195 0.996094<2.08984 3.125>
VStem: 0.996094 0.996094<0 2.08984 3.125 5.21484> 2.01172 0.996094<7.28516 8.33984> 3.00781 0.996094<6.25 7.28516> 4.00391 0.996094<0 2.08984 3.125 5.21484>
LayerCount: 2
Back
Fore
SplineSet
2.01171875 7.998046875 m 25xda
 3.0078125 7.998046875 l 25
 3.0078125 7.001953125 l 25xda
 4.00390625 7.001953125 l 25xd9
 4.00390625 5 l 25
 5 5 l 25xd880
 5 0 l 25
 4.00390625 0 l 25
 4.00390625 2.01171875 l 25
 2.01171875 2.01171875 l 25
 2.01171875 0 l 25
 0.99609375 0 l 25
 0.99609375 5 l 25
 2.01171875 5 l 25xec80
 2.01171875 3.0078125 l 25
 4.00390625 3.0078125 l 25
 4.00390625 5 l 25xdc80
 2.01171875 5 l 25xec80
 2.01171875 5.99609375 l 25xda
 3.0078125 5.99609375 l 25xd9
 3.0078125 7.001953125 l 25
 2.01171875 7.001953125 l 25
 2.01171875 7.998046875 l 25xda
EndSplineSet
EndChar

StartChar: Aacute
Encoding: 193 193 127
Width: 6
VWidth: 0
Flags: W
HStem: 0 0G<1.03516 2.08984 4.17969 5.21484> 2.01172 0.996094<2.08984 4.17969> 5 0G<1.03516 2.08984> 5 0.996094<2.08984 3.125> 7.00195 0.996094<4.17969 5.21484>
VStem: 0.996094 0.996094<0 2.08984 3.125 5.21484> 3.00781 0.996094<6.25 7.28516> 4.00391 0.996094<0 2.08984 3.125 5.21484 7.28516 8.33984>
LayerCount: 2
Back
Fore
SplineSet
4.00390625 7.998046875 m 25xdd
 5 7.998046875 l 25
 5 7.001953125 l 25xdd
 4.00390625 7.001953125 l 25xde
 4.00390625 5 l 25
 5 5 l 25xdd
 5 0 l 25
 4.00390625 0 l 25
 4.00390625 2.01171875 l 25
 2.01171875 2.01171875 l 25
 2.01171875 0 l 25
 0.99609375 0 l 25
 0.99609375 5 l 25
 2.01171875 5 l 25xed
 2.01171875 3.0078125 l 25
 4.00390625 3.0078125 l 25
 4.00390625 5 l 25xdd
 2.01171875 5 l 25xed
 2.01171875 5.99609375 l 25
 3.0078125 5.99609375 l 25
 3.0078125 7.001953125 l 25
 4.00390625 7.001953125 l 25xde
 4.00390625 7.998046875 l 25xdd
EndSplineSet
EndChar

StartChar: Acircumflex
Encoding: 194 194 128
Width: 6
VWidth: 0
Flags: W
HStem: 0 0G<1.03516 2.08984 4.17969 5.21484> 2.01172 0.996094<2.08984 4.17969> 5 0G<4.17969 5.21484> 5 0.996094<2.08984 4.17969> 5.99609 0.996094<1.03516 2.08984 4.17969 5.21484> 7.00195 0.996094<2.08984 4.17969>
VStem: 0.996094 0.996094<0 2.08984 3.125 5.21484 6.25 7.28516> 2.01172 2.01172<5.21484 6.25 7.28516 8.33984> 4.00391 0.996094<0 2.08984 3.125 5.21484 6.25 7.28516>
LayerCount: 2
Back
Fore
SplineSet
0.99609375 5.99609375 m 25xca80
 0.99609375 7.001953125 l 25
 2.01171875 7.001953125 l 25xca80
 2.01171875 7.998046875 l 25
 4.00390625 7.998046875 l 25xc5
 4.00390625 7.001953125 l 25xc9
 2.01171875 7.001953125 l 25xca
 2.01171875 5.99609375 l 25xd2
 4.00390625 5.99609375 l 25xd1
 4.00390625 7.001953125 l 25xc9
 5 7.001953125 l 25
 5 5.99609375 l 25xc880
 4.00390625 5.99609375 l 25xd1
 4.00390625 5 l 25xe1
 2.01171875 5 l 25
 2.01171875 3.0078125 l 25
 4.00390625 3.0078125 l 25xd280
 4.00390625 5 l 25xe1
 5 5 l 25xe080
 5 0 l 25
 4.00390625 0 l 25
 4.00390625 2.01171875 l 25
 2.01171875 2.01171875 l 25
 2.01171875 0 l 25
 0.99609375 0 l 25
 0.99609375 5 l 25
 2.01171875 5 l 25
 2.01171875 5.99609375 l 25xd280
 0.99609375 5.99609375 l 25xca80
EndSplineSet
EndChar

StartChar: Atilde
Encoding: 195 195 129
Width: 6
VWidth: 0
Flags: W
HStem: 0 0G<1.03516 2.08984 4.17969 5.21484> 2.01172 0.996094<2.08984 4.17969> 5 0G<4.17969 5.21484> 5 0.996094<2.08984 3.125> 5.99609 0.996094<1.03516 2.08984> 7.00195 0.996094<2.08984 3.125 4.17969 5.21484>
VStem: 0.996094 0.996094<0 2.08984 3.125 5.21484 6.25 7.28516> 2.01172 0.996094<7.28516 8.33984> 3.00781 0.996094<6.25 7.28516> 4.00391 0.996094<0 2.08984 3.125 5.21484 7.28516 8.33984>
LayerCount: 2
Back
Fore
SplineSet
0.99609375 5.99609375 m 25xca40
 0.99609375 7.001953125 l 25
 2.01171875 7.001953125 l 25xca40
 2.01171875 5.99609375 l 25
 3.0078125 5.99609375 l 25xd280
 3.0078125 7.001953125 l 25xd5
 2.01171875 7.001953125 l 25xca
 2.01171875 7.998046875 l 25
 3.0078125 7.998046875 l 25
 3.0078125 7.001953125 l 25xc5
 4.00390625 7.001953125 l 25xc480
 4.00390625 7.998046875 l 25
 5 7.998046875 l 25
 5 7.001953125 l 25xc440
 4.00390625 7.001953125 l 25xc480
 4.00390625 5 l 25xe440
 2.01171875 5 l 25xd240
 2.01171875 3.0078125 l 25
 4.00390625 3.0078125 l 25
 4.00390625 5 l 25
 5 5 l 25xe240
 5 0 l 25
 4.00390625 0 l 25
 4.00390625 2.01171875 l 25
 2.01171875 2.01171875 l 25
 2.01171875 0 l 25
 0.99609375 0 l 25
 0.99609375 5 l 25
 2.01171875 5 l 25
 2.01171875 5.99609375 l 25xd240
 0.99609375 5.99609375 l 25xca40
EndSplineSet
EndChar

StartChar: Adieresis
Encoding: 196 196 130
Width: 6
VWidth: 0
Flags: W
HStem: 0 0G<1.03516 2.08984 4.17969 5.21484> 2.01172 0.996094<2.08984 4.17969> 5 0G<1.03516 2.08984> 5 0.996094<2.08984 4.17969> 7.00195 0.996094<1.03516 2.08984 4.17969 5.21484>
VStem: 0.996094 0.996094<0 2.08984 3.125 5.21484 7.28516 8.33984> 4.00391 0.996094<0 2.08984 3.125 5.21484 7.28516 8.33984>
LayerCount: 2
Back
Fore
SplineSet
2.01171875 5.99609375 m 25xde
 4.00390625 5.99609375 l 25
 4.00390625 5 l 25
 5 5 l 25xde
 5 0 l 25
 4.00390625 0 l 25
 4.00390625 2.01171875 l 25
 2.01171875 2.01171875 l 25
 2.01171875 0 l 25
 0.99609375 0 l 25
 0.99609375 5 l 25
 2.01171875 5 l 25xee
 2.01171875 3.0078125 l 25
 4.00390625 3.0078125 l 25
 4.00390625 5 l 25xde
 2.01171875 5 l 25xee
 2.01171875 5.99609375 l 25xde
4.00390625 7.998046875 m 25
 5 7.998046875 l 25
 5 7.001953125 l 25
 4.00390625 7.001953125 l 25
 4.00390625 7.998046875 l 25
0.99609375 7.998046875 m 25
 2.01171875 7.998046875 l 25
 2.01171875 7.001953125 l 25
 0.99609375 7.001953125 l 25
 0.99609375 7.998046875 l 25
EndSplineSet
EndChar

StartChar: Aring
Encoding: 197 197 131
Width: 6
VWidth: 0
Flags: W
HStem: 0 0G<1.03516 2.08984 4.17969 5.21484> 2.01172 0.996094<2.08984 4.17969> 5 0G<4.17969 5.21484> 5 0.996094<2.08984 3.125> 7.00195 0.996094<2.08984 3.125 4.17969 5.21484> 9.00391 0.996094<3.125 4.17969>
VStem: 0.996094 0.996094<0 2.08984 3.125 5.21484> 2.01172 0.996094<7.28516 8.33984> 3.00781 0.996094<6.25 7.28516 8.33984 9.375> 4.00391 0.996094<0 2.08984 3.125 5.21484 7.28516 8.33984>
LayerCount: 2
Back
Fore
SplineSet
2.015625 6.99609375 m 25xd9
 3.01171875 6.99609375 l 1xd9
 3.00390625 7.998046875 l 1
 4.00390625 7.998046875 l 1xc480
 4.0078125 6.99609375 l 1xc880
 3.01171875 6.99609375 l 25
 3.01171875 6 l 25xc9
 4.0078125 6 l 25
 4.0078125 6.99609375 l 25xc880
 5.00390625 6.99609375 l 25
 5.00390625 6 l 25xc840
 4.0078125 6 l 25xc880
 4.0078125 3.998046875 l 25xe840
 2.015625 3.998046875 l 25xd240
 2.01171875 3.0078125 l 1
 4.00390625 3.0078125 l 1
 4.0078125 3.998046875 l 25
 5.00390625 3.998046875 l 25xe240
 5 0 l 1
 4.00390625 0 l 25
 4.00390625 2.01171875 l 25
 2.01171875 2.01171875 l 25
 2.01171875 0 l 25
 0.99609375 0 l 1
 1 3.998046875 l 25
 2.015625 3.998046875 l 25xd240
 2.015625 4.994140625 l 25xd1
 3.01171875 4.994140625 l 25xd080
 3.01171875 6 l 25
 2.015625 6 l 25
 2.015625 6.99609375 l 25xd9
EndSplineSet
EndChar

StartChar: AE
Encoding: 198 198 132
Width: 6
VWidth: 0
Flags: W
HStem: 0 0.996094<4.17969 6.25> 2.01172 0.996094<1.03516 3.125> 3.00781 0.996094<4.17969 5.21484> 5 0.996094<1.03516 3.125 4.17969 6.25>
VStem: 0 0.996094<0 2.08984 3.125 5.21484> 3.00781 0.996094<1.03516 2.08984 4.17969 5.21484>
LayerCount: 2
Back
Fore
SplineSet
0 5 m 25xdc
 0.99609375 5 l 25
 0.99609375 5.99609375 l 25
 3.0078125 5.99609375 l 25
 3.0078125 5 l 25
 0.99609375 5 l 25
 0.99609375 3.0078125 l 25
 3.0078125 3.0078125 l 25xdc
 3.0078125 5 l 25
 4.00390625 5 l 25
 4.00390625 5.99609375 l 25
 5.99609375 5.99609375 l 25
 5.99609375 5 l 25
 4.00390625 5 l 25
 4.00390625 4.00390625 l 25
 5 4.00390625 l 25
 5 3.0078125 l 25
 4.00390625 3.0078125 l 25xbc
 4.00390625 0.99609375 l 25
 5.99609375 0.99609375 l 25
 5.99609375 0 l 25
 3.0078125 0 l 25
 3.0078125 2.01171875 l 25
 0.99609375 2.01171875 l 25
 0.99609375 0 l 25
 0 0 l 25
 0 5 l 25xdc
EndSplineSet
EndChar

StartChar: Ccedilla
Encoding: 199 199 133
Width: 6
VWidth: 0
Flags: W
HStem: -2.01172 0.996094<2.08984 3.125> 0 0.996094<2.08984 3.125 4.17969 5.21484> 5 0.996094<2.08984 5.21484>
VStem: 0.996094 0.996094<1.03516 5.21484> 2.01172 3.00781<0 1.03516 5.21484 6.25> 2.01172 0.996094<-2.08984 -1.03516> 3.00781 0.996094<-1.03516 0>
LayerCount: 2
Back
Fore
SplineSet
2.01171875 5.99609375 m 25xe8
 5 5.99609375 l 25
 5 5 l 25xe8
 2.01171875 5 l 25
 2.01171875 0.99609375 l 25xf0
 5 0.99609375 l 25
 5 0 l 25xe8
 4.00390625 0 l 25
 4.00390625 -0.99609375 l 25xe2
 3.0078125 -0.99609375 l 25
 3.0078125 -2.01171875 l 25
 2.01171875 -2.01171875 l 25
 2.01171875 -0.99609375 l 25
 3.0078125 -0.99609375 l 25xe4
 3.0078125 0 l 25xe2
 2.01171875 0 l 25xe8
 2.01171875 0.99609375 l 25
 0.99609375 0.99609375 l 25
 0.99609375 5 l 25
 2.01171875 5 l 25xf0
 2.01171875 5.99609375 l 25xe8
EndSplineSet
EndChar

StartChar: Egrave
Encoding: 200 200 134
Width: 6
VWidth: 0
Flags: W
HStem: 0 0.996094<2.08984 5.21484> 3.00781 0.996094<2.08984 4.17969> 5 0.996094<2.08984 3.125 4.17969 5.21484> 7.00195 0.996094<2.08984 3.125>
VStem: 0.996094 0.996094<1.03516 3.125 4.17969 5.21484> 2.01172 0.996094<7.28516 8.33984> 3.00781 0.996094<6.25 7.28516>
LayerCount: 2
Back
Fore
SplineSet
2.01171875 7.998046875 m 25xf4
 3.0078125 7.998046875 l 25
 3.0078125 7.001953125 l 25xf4
 4.00390625 7.001953125 l 25
 4.00390625 5.99609375 l 25
 5 5.99609375 l 25
 5 5 l 25
 2.01171875 5 l 25
 2.01171875 4.00390625 l 25
 4.00390625 4.00390625 l 25
 4.00390625 3.0078125 l 25
 2.01171875 3.0078125 l 25
 2.01171875 0.99609375 l 25
 5 0.99609375 l 25
 5 0 l 25
 0.99609375 0 l 25
 0.99609375 5.99609375 l 25
 3.0078125 5.99609375 l 25xfa
 3.0078125 7.001953125 l 25
 2.01171875 7.001953125 l 25
 2.01171875 7.998046875 l 25xf4
EndSplineSet
EndChar

StartChar: Eacute
Encoding: 201 201 135
Width: 6
VWidth: 0
Flags: W
HStem: 0 0.996094<2.08984 5.21484> 3.00781 0.996094<2.08984 4.17969> 5 0.996094<3.125 5.21484> 7.00195 0.996094<3.125 4.17969>
VStem: 0.996094 0.996094<1.03516 3.125 4.17969 5.21484> 2.01172 0.996094<6.25 7.28516> 3.00781 0.996094<7.28516 8.33984>
LayerCount: 2
Back
Fore
SplineSet
3.0078125 7.998046875 m 25xf2
 4.00390625 7.998046875 l 25
 4.00390625 7.001953125 l 25xf2
 3.0078125 7.001953125 l 25
 3.0078125 5.99609375 l 25xf4
 5 5.99609375 l 25
 5 5 l 25
 2.01171875 5 l 25
 2.01171875 4.00390625 l 25
 4.00390625 4.00390625 l 25
 4.00390625 3.0078125 l 25
 2.01171875 3.0078125 l 25
 2.01171875 0.99609375 l 25
 5 0.99609375 l 25
 5 0 l 25
 0.99609375 0 l 25
 0.99609375 5.99609375 l 25xfa
 2.01171875 5.99609375 l 25
 2.01171875 7.001953125 l 25
 3.0078125 7.001953125 l 25xf4
 3.0078125 7.998046875 l 25xf2
EndSplineSet
EndChar

StartChar: Ecircumflex
Encoding: 202 202 136
Width: 6
VWidth: 0
Flags: W
HStem: 0 0.996094<2.08984 5.21484> 3.00781 0.996094<2.08984 4.17969> 5 0.996094<2.08984 4.17969> 5.99609 0.996094<1.03516 2.08984> 7.00195 0.996094<2.08984 4.17969>
VStem: 0.996094 0.996094<1.03516 3.125 4.17969 5.21484 6.25 7.28516> 4.00391 0.996094<6.25 7.28516>
LayerCount: 2
Back
Fore
SplineSet
0.99609375 7.001953125 m 25xd6
 2.01171875 7.001953125 l 25xd6
 2.01171875 7.998046875 l 25
 4.00390625 7.998046875 l 25
 4.00390625 7.001953125 l 25xce
 2.01171875 7.001953125 l 25xd6
 2.01171875 5.99609375 l 25
 4.00390625 5.99609375 l 25
 4.00390625 7.001953125 l 25
 5 7.001953125 l 25
 5 5 l 25
 2.01171875 5 l 25
 2.01171875 4.00390625 l 25
 4.00390625 4.00390625 l 25
 4.00390625 3.0078125 l 25
 2.01171875 3.0078125 l 25
 2.01171875 0.99609375 l 25
 5 0.99609375 l 25
 5 0 l 25
 0.99609375 0 l 25
 0.99609375 5 l 25
 2.01171875 5 l 25
 2.01171875 5.99609375 l 25xee
 0.99609375 5.99609375 l 25
 0.99609375 7.001953125 l 25xd6
EndSplineSet
EndChar

StartChar: Edieresis
Encoding: 203 203 137
Width: 6
VWidth: 0
Flags: W
HStem: 0 0.996094<2.08984 5.21484> 3.00781 0.996094<2.08984 4.17969> 5 0.996094<2.08984 5.21484> 7.00195 0.996094<1.03516 2.08984 4.17969 5.21484>
VStem: 0.996094 0.996094<1.03516 3.125 4.17969 5.21484 7.28516 8.33984> 4.00391 0.996094<7.28516 8.33984>
LayerCount: 2
Back
Fore
SplineSet
0.99609375 5.99609375 m 25
 5 5.99609375 l 25
 5 5 l 25
 2.01171875 5 l 25
 2.01171875 4.00390625 l 25
 4.00390625 4.00390625 l 25
 4.00390625 3.0078125 l 25
 2.01171875 3.0078125 l 25
 2.01171875 0.99609375 l 25
 5 0.99609375 l 25
 5 0 l 25
 0.99609375 0 l 25
 0.99609375 5.99609375 l 25
4.00390625 7.998046875 m 25
 5 7.998046875 l 25
 5 7.001953125 l 25
 4.00390625 7.001953125 l 25
 4.00390625 7.998046875 l 25
0.99609375 7.998046875 m 25
 2.01171875 7.998046875 l 25
 2.01171875 7.001953125 l 25
 0.99609375 7.001953125 l 25
 0.99609375 7.998046875 l 25
EndSplineSet
EndChar

StartChar: Igrave
Encoding: 204 204 138
Width: 6
VWidth: 0
Flags: W
HStem: 0 0.996094<2.08984 3.125 4.17969 5.21484> 5 0.996094<2.08984 3.125 4.17969 5.21484> 7.00195 0.996094<2.08984 3.125>
VStem: 2.01172 3.00781<0 1.03516 5.21484 6.25> 2.01172 0.996094<7.28516 8.33984> 3.00781 0.996094<1.03516 5.21484 6.25 7.28516>
LayerCount: 2
Back
Fore
SplineSet
2.01171875 7.998046875 m 25xe8
 3.0078125 7.998046875 l 25
 3.0078125 7.001953125 l 25xe8
 4.00390625 7.001953125 l 25
 4.00390625 5.99609375 l 25xe4
 5 5.99609375 l 25
 5 5 l 25xf0
 4.00390625 5 l 25
 4.00390625 0.99609375 l 25xe4
 5 0.99609375 l 25
 5 0 l 25
 2.01171875 0 l 25
 2.01171875 0.99609375 l 25xf0
 3.0078125 0.99609375 l 25
 3.0078125 5 l 25xe4
 2.01171875 5 l 25
 2.01171875 5.99609375 l 25xf0
 3.0078125 5.99609375 l 25xe4
 3.0078125 7.001953125 l 25
 2.01171875 7.001953125 l 25
 2.01171875 7.998046875 l 25xe8
EndSplineSet
EndChar

StartChar: Iacute
Encoding: 205 205 139
Width: 6
VWidth: 0
Flags: W
HStem: 0 0.996094<2.08984 3.125 4.17969 5.21484> 5 0.996094<2.08984 3.125 4.17969 5.21484> 7.00195 0.996094<4.17969 5.21484>
VStem: 2.01172 3.00781<0 1.03516 5.21484 6.25> 3.00781 0.996094<1.03516 5.21484 6.25 7.28516> 4.00391 0.996094<7.28516 8.33984>
LayerCount: 2
Back
Fore
SplineSet
4.00390625 7.998046875 m 25xe4
 5 7.998046875 l 25
 5 7.001953125 l 25xe4
 4.00390625 7.001953125 l 25
 4.00390625 5.99609375 l 25xe8
 5 5.99609375 l 25
 5 5 l 25xf0
 4.00390625 5 l 25
 4.00390625 0.99609375 l 25xe8
 5 0.99609375 l 25
 5 0 l 25
 2.01171875 0 l 25
 2.01171875 0.99609375 l 25xf0
 3.0078125 0.99609375 l 25
 3.0078125 5 l 25xe8
 2.01171875 5 l 25
 2.01171875 5.99609375 l 25xf0
 3.0078125 5.99609375 l 25
 3.0078125 7.001953125 l 25
 4.00390625 7.001953125 l 25xe8
 4.00390625 7.998046875 l 25xe4
EndSplineSet
EndChar

StartChar: Icircumflex
Encoding: 206 206 140
Width: 6
VWidth: 0
Flags: W
HStem: 0 0.996094<2.08984 3.125 4.17969 5.21484> 4.00391 0.996094<2.08984 3.125 4.17969 5.21484> 5.99609 0.996094<2.08984 3.125 4.17969 5.21484> 7.00195 0.996094<3.125 4.17969>
VStem: 2.01172 0.996094<6.25 7.28516> 3.00781 0.996094<1.03516 4.17969 7.28516 8.33984> 4.00391 0.996094<6.25 7.28516>
LayerCount: 2
Back
Fore
SplineSet
2.01171875 5 m 25xc8
 5 5 l 25
 5 4.00390625 l 25xca
 4.00390625 4.00390625 l 25
 4.00390625 0.99609375 l 25xc4
 5 0.99609375 l 25
 5 0 l 25
 2.01171875 0 l 25
 2.01171875 0.99609375 l 25xca
 3.0078125 0.99609375 l 25
 3.0078125 4.00390625 l 25xc4
 2.01171875 4.00390625 l 25
 2.01171875 5 l 25xc8
2.01171875 7.001953125 m 25xe8
 3.0078125 7.001953125 l 25xe8
 3.0078125 7.998046875 l 25
 4.00390625 7.998046875 l 25xd4
 4.00390625 7.001953125 l 25xe4
 5 7.001953125 l 25
 5 5.99609375 l 25
 4.00390625 5.99609375 l 25xe2
 4.00390625 7.001953125 l 25xe4
 3.0078125 7.001953125 l 25
 3.0078125 5.99609375 l 25
 2.01171875 5.99609375 l 25
 2.01171875 7.001953125 l 25xe8
EndSplineSet
EndChar

StartChar: Idieresis
Encoding: 207 207 141
Width: 6
VWidth: 0
Flags: W
HStem: 0 0.996094<2.08984 3.125 4.17969 5.21484> 5 0.996094<2.08984 3.125 4.17969 5.21484> 7.00195 0.996094<2.08984 3.125 4.17969 5.21484>
VStem: 2.01172 0.996094<7.28516 8.33984> 4.00391 0.996094<7.28516 8.33984>
LayerCount: 2
Back
Fore
SplineSet
2.01171875 5.99609375 m 25
 5 5.99609375 l 25
 5 5 l 25
 4.00390625 5 l 25
 4.00390625 0.99609375 l 25
 5 0.99609375 l 25
 5 0 l 25
 2.01171875 0 l 25
 2.01171875 0.99609375 l 25
 3.0078125 0.99609375 l 25
 3.0078125 5 l 25
 2.01171875 5 l 25
 2.01171875 5.99609375 l 25
4.00390625 7.998046875 m 25
 5 7.998046875 l 25
 5 7.001953125 l 25
 4.00390625 7.001953125 l 25
 4.00390625 7.998046875 l 25
2.01171875 7.998046875 m 25
 3.0078125 7.998046875 l 25
 3.0078125 7.001953125 l 25
 2.01171875 7.001953125 l 25
 2.01171875 7.998046875 l 25
EndSplineSet
EndChar

StartChar: Eth
Encoding: 208 208 142
Width: 6
VWidth: 0
Flags: W
HStem: 0 0.996094<3.125 5.21484> 3.00781 0.996094<1.03516 2.08984 3.125 4.17969> 5 0G<5.21484 6.25> 5 0.996094<3.125 5.21484>
VStem: 2.01172 3.00781<0 1.03516 5.21484 6.25> 2.01172 0.996094<1.03516 3.125 4.17969 5.21484> 5 0.996094<1.03516 5.21484>
LayerCount: 2
Back
Fore
SplineSet
0.99609375 4.00390625 m 25xe4
 2.01171875 4.00390625 l 25xe4
 2.01171875 5.99609375 l 25
 5 5.99609375 l 25xd8
 5 5 l 25xe8
 3.0078125 5 l 25
 3.0078125 4.00390625 l 25
 4.00390625 4.00390625 l 25
 4.00390625 3.0078125 l 25
 3.0078125 3.0078125 l 25
 3.0078125 0.99609375 l 25xd4
 5 0.99609375 l 25
 5 5 l 25xe8
 5.99609375 5 l 25
 5.99609375 0.99609375 l 25xe2
 5 0.99609375 l 25
 5 0 l 25
 2.01171875 0 l 25xe8
 2.01171875 3.0078125 l 25
 0.99609375 3.0078125 l 25
 0.99609375 4.00390625 l 25xe4
EndSplineSet
EndChar

StartChar: Ntilde
Encoding: 209 209 143
Width: 6
VWidth: 0
Flags: W
HStem: 0 0G<1.03516 2.08984 4.17969 5.21484> 2.01172 0.996094<3.125 4.17969> 3.00781 0.996094<2.08984 3.125> 5.99609 0G<4.17969 5.21484> 5.99609 0.996094<3.125 4.17969> 7.00195 0.996094<2.08984 3.125 4.17969 5.21484>
VStem: 0.996094 0.996094<0 3.125 4.17969 7.28516> 2.01172 0.996094<7.28516 8.33984> 3.00781 0.996094<6.25 7.28516> 4.00391 0.996094<0 2.08984 3.125 6.25 7.28516 8.33984>
LayerCount: 2
Back
Fore
SplineSet
0.99609375 0 m 25xa280
 0.99609375 7.001953125 l 25
 2.01171875 7.001953125 l 25xa680
 2.01171875 7.998046875 l 25
 3.0078125 7.998046875 l 25xa5
 3.0078125 7.001953125 l 25x89
 4.00390625 7.001953125 l 25x8880
 4.00390625 7.998046875 l 25
 5 7.998046875 l 25
 5 7.001953125 l 25x8440
 4.00390625 7.001953125 l 25x8880
 4.00390625 5.99609375 l 25x9080
 3.0078125 5.99609375 l 25x8880
 3.0078125 7.001953125 l 25x89
 2.01171875 7.001953125 l 25
 2.01171875 4.00390625 l 25
 3.0078125 4.00390625 l 25xa680
 3.0078125 3.0078125 l 25xc280
 4.00390625 3.0078125 l 25xc040
 4.00390625 5.99609375 l 25xd080
 5 5.99609375 l 25
 5 0 l 25
 4.00390625 0 l 25
 4.00390625 2.01171875 l 25xd040
 3.0078125 2.01171875 l 25
 3.0078125 3.0078125 l 25xd080
 2.01171875 3.0078125 l 25
 2.01171875 0 l 25
 0.99609375 0 l 25xa280
EndSplineSet
EndChar

StartChar: Ograve
Encoding: 210 210 144
Width: 6
VWidth: 0
Flags: W
HStem: 0 0.996094<2.08984 4.17969> 5 0G<4.17969 5.21484> 5 0.996094<2.08984 3.125> 7.00195 0.996094<2.08984 3.125>
VStem: 0.996094 0.996094<1.03516 5.21484> 2.01172 0.996094<7.28516 8.33984> 3.00781 0.996094<6.25 7.28516> 4.00391 0.996094<1.03516 5.21484>
LayerCount: 2
Back
Fore
SplineSet
2.01171875 7.998046875 m 25xb4
 3.0078125 7.998046875 l 25
 3.0078125 7.001953125 l 25xb4
 4.00390625 7.001953125 l 25xb2
 4.00390625 5 l 25xd1
 2.01171875 5 l 25
 2.01171875 0.99609375 l 25xb9
 4.00390625 0.99609375 l 25
 4.00390625 5 l 25
 5 5 l 25
 5 0.99609375 l 25
 4.00390625 0.99609375 l 25
 4.00390625 0 l 25
 2.01171875 0 l 25xd5
 2.01171875 0.99609375 l 25
 0.99609375 0.99609375 l 25
 0.99609375 5 l 25
 2.01171875 5 l 25xb8
 2.01171875 5.99609375 l 25xb4
 3.0078125 5.99609375 l 25xb2
 3.0078125 7.001953125 l 25
 2.01171875 7.001953125 l 25
 2.01171875 7.998046875 l 25xb4
EndSplineSet
EndChar

StartChar: Oacute
Encoding: 211 211 145
Width: 6
VWidth: 0
Flags: W
HStem: 0 0.996094<2.08984 4.17969> 5 0G<4.17969 5.21484> 5 0.996094<3.125 4.17969> 7.00195 0.996094<3.125 4.17969>
VStem: 0.996094 0.996094<1.03516 5.21484> 2.01172 0.996094<6.25 7.28516> 3.00781 0.996094<7.28516 8.33984> 4.00391 0.996094<1.03516 5.21484>
LayerCount: 2
Back
Fore
SplineSet
3.0078125 7.998046875 m 25xb2
 4.00390625 7.998046875 l 25
 4.00390625 7.001953125 l 25xb2
 3.0078125 7.001953125 l 25
 3.0078125 5.99609375 l 25
 4.00390625 5.99609375 l 25xb5
 4.00390625 5 l 25xd5
 2.01171875 5 l 25
 2.01171875 0.99609375 l 25xb9
 4.00390625 0.99609375 l 25
 4.00390625 5 l 25
 5 5 l 25
 5 0.99609375 l 25
 4.00390625 0.99609375 l 25
 4.00390625 0 l 25
 2.01171875 0 l 25xd5
 2.01171875 0.99609375 l 25
 0.99609375 0.99609375 l 25
 0.99609375 5 l 25
 2.01171875 5 l 25xb8
 2.01171875 7.001953125 l 25
 3.0078125 7.001953125 l 25xb4
 3.0078125 7.998046875 l 25xb2
EndSplineSet
EndChar

StartChar: Ocircumflex
Encoding: 212 212 146
Width: 6
VWidth: 0
Flags: W
HStem: 0 0.996094<2.08984 4.17969> 5 0G<4.17969 5.21484> 5 0.996094<2.08984 4.17969> 5.99609 0.996094<1.03516 2.08984 4.17969 5.21484> 7.00195 0.996094<2.08984 4.17969>
VStem: 0.996094 0.996094<1.03516 5.21484 6.25 7.28516> 2.01172 2.01172<0 1.03516 5.21484 6.25 7.28516 8.33984> 4.00391 0.996094<1.03516 5.21484 6.25 7.28516>
LayerCount: 2
Back
Fore
SplineSet
2.01171875 7.998046875 m 25x8a
 4.00390625 7.998046875 l 25x8a
 4.00390625 7.001953125 l 25x92
 2.01171875 7.001953125 l 25x94
 2.01171875 5.99609375 l 25xa4
 4.00390625 5.99609375 l 25xa2
 4.00390625 7.001953125 l 25x92
 5 7.001953125 l 25
 5 5.99609375 l 25x91
 4.00390625 5.99609375 l 25xa2
 4.00390625 5 l 25xc2
 2.01171875 5 l 25
 2.01171875 0.99609375 l 25xa4
 4.00390625 0.99609375 l 25
 4.00390625 5 l 25xc2
 5 5 l 25
 5 0.99609375 l 25xc1
 4.00390625 0.99609375 l 25
 4.00390625 0 l 25
 2.01171875 0 l 25xc2
 2.01171875 0.99609375 l 25
 0.99609375 0.99609375 l 25
 0.99609375 5 l 25
 2.01171875 5 l 25
 2.01171875 5.99609375 l 25xa4
 0.99609375 5.99609375 l 25
 0.99609375 7.001953125 l 25
 2.01171875 7.001953125 l 25x94
 2.01171875 7.998046875 l 25x8a
EndSplineSet
EndChar

StartChar: Otilde
Encoding: 213 213 147
Width: 6
VWidth: 0
Flags: W
HStem: 0 0.996094<2.08984 4.17969> 5 0G<4.17969 5.21484> 5 0.996094<2.08984 3.125> 5.99609 0.996094<1.03516 2.08984> 7.00195 0.996094<2.08984 3.125 4.17969 5.21484>
VStem: 0.996094 0.996094<1.03516 5.21484 6.25 7.28516> 2.01172 0.996094<7.28516 8.33984> 3.00781 0.996094<6.25 7.28516> 4.00391 0.996094<1.03516 5.21484 7.28516 8.33984>
LayerCount: 2
Back
Fore
SplineSet
0.99609375 7.001953125 m 25x94
 2.01171875 7.001953125 l 25x94
 2.01171875 5.99609375 l 25
 3.0078125 5.99609375 l 25xa5
 3.0078125 7.001953125 l 25xaa
 2.01171875 7.001953125 l 25x94
 2.01171875 7.998046875 l 25
 3.0078125 7.998046875 l 25
 3.0078125 7.001953125 l 25x8a
 4.00390625 7.001953125 l 25x89
 4.00390625 7.998046875 l 25
 5 7.998046875 l 25
 5 7.001953125 l 25x8880
 4.00390625 7.001953125 l 25x89
 4.00390625 5 l 25xc880
 2.01171875 5 l 25
 2.01171875 0.99609375 l 25xa480
 4.00390625 0.99609375 l 25
 4.00390625 5 l 25
 5 5 l 25
 5 0.99609375 l 25
 4.00390625 0.99609375 l 25
 4.00390625 0 l 25
 2.01171875 0 l 25xc280
 2.01171875 0.99609375 l 25
 0.99609375 0.99609375 l 25
 0.99609375 5 l 25
 2.01171875 5 l 25
 2.01171875 5.99609375 l 25xa4
 0.99609375 5.99609375 l 25
 0.99609375 7.001953125 l 25x94
EndSplineSet
EndChar

StartChar: Odieresis
Encoding: 214 214 148
Width: 6
VWidth: 0
Flags: W
HStem: 0 0.996094<2.08984 4.17969> 5 0G<4.17969 5.21484> 5 0.996094<2.08984 4.17969> 7.00195 0.996094<1.03516 2.08984 4.17969 5.21484>
VStem: 0.996094 0.996094<1.03516 5.21484 7.28516 8.33984> 2.01172 2.01172<0 1.03516 5.21484 6.25> 4.00391 0.996094<1.03516 5.21484 7.28516 8.33984>
LayerCount: 2
Back
Fore
SplineSet
2.01171875 5.99609375 m 25xb4
 4.00390625 5.99609375 l 25xb4
 4.00390625 5 l 25xd4
 2.01171875 5 l 25
 2.01171875 0.99609375 l 25xb8
 4.00390625 0.99609375 l 25
 4.00390625 5 l 25xd4
 5 5 l 25
 5 0.99609375 l 25xd2
 4.00390625 0.99609375 l 25
 4.00390625 0 l 25
 2.01171875 0 l 25xd4
 2.01171875 0.99609375 l 25
 0.99609375 0.99609375 l 25
 0.99609375 5 l 25
 2.01171875 5 l 25xb8
 2.01171875 5.99609375 l 25xb4
4.00390625 7.998046875 m 25x92
 5 7.998046875 l 25
 5 7.001953125 l 25
 4.00390625 7.001953125 l 25
 4.00390625 7.998046875 l 25x92
0.99609375 7.998046875 m 25x98
 2.01171875 7.998046875 l 25
 2.01171875 7.001953125 l 25
 0.99609375 7.001953125 l 25
 0.99609375 7.998046875 l 25x98
EndSplineSet
EndChar

StartChar: multiply
Encoding: 215 215 149
Width: 6
VWidth: 0
Flags: W
HStem: 2.01172 0.996094<2.08984 3.125 4.17969 5.21484> 4.00391 0.996094<2.08984 3.125 4.17969 5.21484>
VStem: 2.01172 0.996094<2.08984 3.125 4.17969 5.21484> 4.00391 0.996094<2.08984 3.125 4.17969 5.21484>
LayerCount: 2
Back
Fore
SplineSet
2.01171875 5 m 25
 3.0078125 5 l 25
 3.0078125 4.00390625 l 25
 4.00390625 4.00390625 l 25
 4.00390625 5 l 25
 5 5 l 25
 5 4.00390625 l 25
 4.00390625 4.00390625 l 25
 4.00390625 3.0078125 l 25
 5 3.0078125 l 25
 5 2.01171875 l 25
 4.00390625 2.01171875 l 25
 4.00390625 3.0078125 l 25
 3.0078125 3.0078125 l 25
 3.0078125 2.01171875 l 25
 2.01171875 2.01171875 l 25
 2.01171875 3.0078125 l 25
 3.0078125 3.0078125 l 25
 3.0078125 4.00390625 l 25
 2.01171875 4.00390625 l 25
 2.01171875 5 l 25
EndSplineSet
EndChar

StartChar: Oslash
Encoding: 216 216 150
Width: 6
VWidth: 0
Flags: W
HStem: 0 0.996094<0 1.03516 2.08984 4.17969> 3.00781 0.996094<3.125 4.17969> 5 0.996094<2.08984 4.17969 5.21484 6.25>
VStem: 0 0.996094<0 1.03516> 0.996094 0.996094<1.03516 2.08984 3.125 5.21484> 2.01172 2.01172<0 1.03516 5.21484 6.25> 4.00391 0.996094<1.03516 3.125 4.17969 5.21484> 5 0.996094<5.21484 6.25>
LayerCount: 2
Back
Fore
SplineSet
2.01171875 5.99609375 m 25xe4
 4.00390625 5.99609375 l 25
 4.00390625 5 l 25xe4
 2.01171875 5 l 25
 2.01171875 3.0078125 l 25
 3.0078125 3.0078125 l 25
 3.0078125 2.01171875 l 25
 2.01171875 2.01171875 l 25
 2.01171875 0.99609375 l 25xe8
 4.00390625 0.99609375 l 25xe4
 4.00390625 3.0078125 l 25
 3.0078125 3.0078125 l 25
 3.0078125 4.00390625 l 25
 4.00390625 4.00390625 l 25xe2
 4.00390625 5 l 25xe4
 5 5 l 25xe2
 5 5.99609375 l 25
 5.99609375 5.99609375 l 25
 5.99609375 5 l 25xe1
 5 5 l 25
 5 0.99609375 l 25xe2
 4.00390625 0.99609375 l 25
 4.00390625 0 l 25
 2.01171875 0 l 25xe4
 2.01171875 0.99609375 l 25xe8
 0.99609375 0.99609375 l 25
 0.99609375 0 l 25
 0 0 l 25
 0 0.99609375 l 25
 0.99609375 0.99609375 l 25xf0
 0.99609375 5 l 25
 2.01171875 5 l 25xe8
 2.01171875 5.99609375 l 25xe4
EndSplineSet
EndChar

StartChar: Ugrave
Encoding: 217 217 151
Width: 6
VWidth: 0
Flags: W
HStem: 0 0.996094<2.08984 4.17969> 5.99609 0G<1.03516 2.08984> 5.99609 0.996094<3.125 4.17969> 7.00195 0.996094<2.08984 3.125>
VStem: 0.996094 0.996094<1.03516 6.25> 2.01172 0.996094<7.28516 8.33984> 3.00781 0.996094<6.25 7.28516> 4.00391 0.996094<1.03516 6.25>
LayerCount: 2
Back
Fore
SplineSet
2.01171875 7.998046875 m 25x94
 3.0078125 7.998046875 l 25x94
 3.0078125 7.001953125 l 25xa4
 4.00390625 7.001953125 l 25
 4.00390625 5.99609375 l 25xa2
 5 5.99609375 l 25
 5 0 l 25
 2.01171875 0 l 25xa5
 2.01171875 0.99609375 l 25
 0.99609375 0.99609375 l 25
 0.99609375 5.99609375 l 25
 2.01171875 5.99609375 l 25
 2.01171875 0.99609375 l 25
 4.00390625 0.99609375 l 25xc9
 4.00390625 5.99609375 l 25
 3.0078125 5.99609375 l 25xa2
 3.0078125 7.001953125 l 25xa4
 2.01171875 7.001953125 l 25
 2.01171875 7.998046875 l 25x94
EndSplineSet
EndChar

StartChar: Uacute
Encoding: 218 218 152
Width: 6
VWidth: 0
Flags: W
HStem: 0 0.996094<2.08984 4.17969> 5.99609 0G<4.17969 5.21484> 5.99609 0.996094<2.08984 3.125> 7.00195 0.996094<3.125 4.17969>
VStem: 0.996094 0.996094<1.03516 6.25> 2.01172 0.996094<6.25 7.28516> 3.00781 0.996094<7.28516 8.33984> 4.00391 0.996094<1.03516 6.25>
LayerCount: 2
Back
Fore
SplineSet
3.0078125 7.998046875 m 25x92
 4.00390625 7.998046875 l 25
 4.00390625 7.001953125 l 25x92
 3.0078125 7.001953125 l 25
 3.0078125 5.99609375 l 25xa4
 2.01171875 5.99609375 l 25
 2.01171875 0.99609375 l 25xa8
 4.00390625 0.99609375 l 25
 4.00390625 5.99609375 l 25
 5 5.99609375 l 25
 5 0 l 25
 2.01171875 0 l 25xc5
 2.01171875 0.99609375 l 25
 0.99609375 0.99609375 l 25
 0.99609375 5.99609375 l 25
 2.01171875 5.99609375 l 25xa8
 2.01171875 7.001953125 l 25
 3.0078125 7.001953125 l 25xa4
 3.0078125 7.998046875 l 25x92
EndSplineSet
EndChar

StartChar: Ucircumflex
Encoding: 219 219 153
Width: 6
VWidth: 0
Flags: W
HStem: 0 0.996094<2.08984 4.17969> 5 0G<1.03516 2.08984 4.17969 5.21484> 5.99609 0.996094<1.03516 2.08984 4.17969 5.21484> 7.00195 0.996094<2.08984 4.17969>
VStem: 0.996094 0.996094<1.03516 5.21484 6.25 7.28516> 4.00391 0.996094<1.03516 5.21484 6.25 7.28516>
LayerCount: 2
Back
Fore
SplineSet
0.99609375 5 m 25xcc
 2.01171875 5 l 25
 2.01171875 0.99609375 l 25
 4.00390625 0.99609375 l 25
 4.00390625 5 l 25
 5 5 l 25
 5 0 l 25
 2.01171875 0 l 25
 2.01171875 0.99609375 l 25
 0.99609375 0.99609375 l 25
 0.99609375 5 l 25xcc
0.99609375 7.001953125 m 25xec
 2.01171875 7.001953125 l 25xec
 2.01171875 7.998046875 l 25
 4.00390625 7.998046875 l 25xdc
 4.00390625 7.001953125 l 25
 5 7.001953125 l 25
 5 5.99609375 l 25
 4.00390625 5.99609375 l 25
 4.00390625 7.001953125 l 25
 2.01171875 7.001953125 l 25
 2.01171875 5.99609375 l 25
 0.99609375 5.99609375 l 25
 0.99609375 7.001953125 l 25xec
EndSplineSet
EndChar

StartChar: Udieresis
Encoding: 220 220 154
Width: 6
VWidth: 0
Flags: W
HStem: 0 0.996094<2.08984 4.17969> 5.99609 0G<1.03516 2.08984 4.17969 5.21484> 7.00195 0.996094<1.03516 2.08984 4.17969 5.21484>
VStem: 0.996094 0.996094<1.03516 6.25 7.28516 8.33984> 4.00391 0.996094<1.03516 6.25 7.28516 8.33984>
LayerCount: 2
Back
Fore
SplineSet
0.99609375 5.99609375 m 25
 2.01171875 5.99609375 l 25
 2.01171875 0.99609375 l 25
 4.00390625 0.99609375 l 25
 4.00390625 5.99609375 l 25
 5 5.99609375 l 25
 5 0 l 25
 2.01171875 0 l 25
 2.01171875 0.99609375 l 25
 0.99609375 0.99609375 l 25
 0.99609375 5.99609375 l 25
4.00390625 7.998046875 m 25
 5 7.998046875 l 25
 5 7.001953125 l 25
 4.00390625 7.001953125 l 25
 4.00390625 7.998046875 l 25
0.99609375 7.998046875 m 25
 2.01171875 7.998046875 l 25
 2.01171875 7.001953125 l 25
 0.99609375 7.001953125 l 25
 0.99609375 7.998046875 l 25
EndSplineSet
EndChar

StartChar: Yacute
Encoding: 221 221 155
Width: 6
VWidth: 0
Flags: W
HStem: 0 0G<3.125 4.17969> 3.00781 0.996094<2.08984 3.125 4.17969 5.21484> 4.00391 2.01172<1.03516 2.08984 5.21484 6.25> 5.99609 0.996094<3.125 4.17969> 7.00195 0.996094<4.17969 5.21484>
VStem: 0.996094 0.996094<4.17969 6.25> 2.01172 0.996094<3.125 4.17969> 3.00781 0.996094<0 3.125 6.25 7.28516> 4.00391 0.996094<3.125 4.17969 7.28516 8.33984> 5 0.996094<4.17969 6.25>
LayerCount: 2
Back
Fore
SplineSet
0.99609375 5.99609375 m 25xa4
 2.01171875 5.99609375 l 25xa4
 2.01171875 4.00390625 l 25xc4
 3.0078125 4.00390625 l 25
 3.0078125 3.0078125 l 25xc2
 4.00390625 3.0078125 l 25xc1
 4.00390625 4.00390625 l 25
 5 4.00390625 l 25xc080
 5 5.99609375 l 25
 5.99609375 5.99609375 l 25
 5.99609375 4.00390625 l 25xa040
 5 4.00390625 l 25
 5 3.0078125 l 25xc080
 4.00390625 3.0078125 l 25
 4.00390625 0 l 25
 3.0078125 0 l 25xc1
 3.0078125 3.0078125 l 25
 2.01171875 3.0078125 l 25xc2
 2.01171875 4.00390625 l 25xc4
 0.99609375 4.00390625 l 25
 0.99609375 5.99609375 l 25xa4
4.00390625 7.998046875 m 25x8880
 5 7.998046875 l 25
 5 7.001953125 l 25x8880
 4.00390625 7.001953125 l 25
 4.00390625 5.99609375 l 25
 3.0078125 5.99609375 l 25
 3.0078125 7.001953125 l 25
 4.00390625 7.001953125 l 25x91
 4.00390625 7.998046875 l 25x8880
EndSplineSet
EndChar

StartChar: Thorn
Encoding: 222 222 156
Width: 6
VWidth: 0
Flags: W
HStem: -0.996094 0G<1.03516 2.08984> 0.996094 0.996094<2.08984 4.17969> 4.00391 0.996094<2.08984 4.17969> 7.00195 0G<1.03516 2.08984>
VStem: 0.996094 3.00781<1.03516 2.08984 4.17969 5.21484> 0.996094 0.996094<-1.03516 1.03516 2.08984 4.17969 5.21484 7.28516> 4.00391 0.996094<2.08984 4.17969>
LayerCount: 2
Back
Fore
SplineSet
0.99609375 7.001953125 m 25xf4
 2.01171875 7.001953125 l 25
 2.01171875 5 l 25xf4
 4.00390625 5 l 25
 4.00390625 4.00390625 l 25xf8
 2.01171875 4.00390625 l 25
 2.01171875 2.01171875 l 25xf4
 4.00390625 2.01171875 l 25
 4.00390625 4.00390625 l 25xf8
 5 4.00390625 l 25
 5 2.01171875 l 25xf2
 4.00390625 2.01171875 l 25
 4.00390625 0.99609375 l 25xf8
 2.01171875 0.99609375 l 25
 2.01171875 -0.99609375 l 25
 0.99609375 -0.99609375 l 25
 0.99609375 7.001953125 l 25xf4
EndSplineSet
EndChar

StartChar: germandbls
Encoding: 223 223 157
Width: 6
VWidth: 0
Flags: W
HStem: -0.996094 0G<1.03516 2.08984> 0 0.996094<3.125 4.17969> 5.99609 0.996094<2.08984 3.125>
VStem: 0.996094 0.996094<-1.03516 6.25> 3.00781 0.996094<0 1.03516 4.17969 6.25> 4.00391 0.996094<1.03516 4.17969>
LayerCount: 2
Back
Fore
SplineSet
0.99609375 5.99609375 m 25xf8
 2.01171875 5.99609375 l 25
 2.01171875 7.001953125 l 25
 4.00390625 7.001953125 l 25xf4
 4.00390625 4.00390625 l 25xf8
 5 4.00390625 l 25
 5 0.99609375 l 25xf4
 4.00390625 0.99609375 l 25
 4.00390625 0 l 25
 3.0078125 0 l 25
 3.0078125 0.99609375 l 25
 4.00390625 0.99609375 l 25
 4.00390625 4.00390625 l 25
 3.0078125 4.00390625 l 25
 3.0078125 5.99609375 l 25
 2.01171875 5.99609375 l 25
 2.01171875 -0.99609375 l 25
 0.99609375 -0.99609375 l 25
 0.99609375 5.99609375 l 25xf8
EndSplineSet
EndChar

StartChar: agrave
Encoding: 224 224 158
Width: 6
VWidth: 0
Flags: W
HStem: 0 0.996094<2.08984 4.17969 5.21484 6.25> 4.00391 0.996094<2.08984 4.17969> 5.99609 0.996094<3.125 4.17969> 7.00195 0.996094<2.08984 3.125>
VStem: 0.996094 0.996094<1.03516 4.17969> 2.01172 0.996094<7.28516 8.33984> 3.00781 0.996094<6.25 7.28516> 4.00391 0.996094<1.03516 4.17969> 5 0.996094<0 1.03516>
LayerCount: 2
Back
Fore
SplineSet
0.99609375 4.00390625 m 25xc8
 2.01171875 4.00390625 l 25xc8
 2.01171875 5 l 25
 5 5 l 25xc480
 5 0.99609375 l 25xc1
 5.99609375 0.99609375 l 25
 5.99609375 0 l 25
 5 0 l 25xc080
 5 0.99609375 l 25
 4.00390625 0.99609375 l 25
 4.00390625 4.00390625 l 25
 2.01171875 4.00390625 l 25
 2.01171875 0.99609375 l 25xc9
 4.00390625 0.99609375 l 25
 4.00390625 0 l 25
 2.01171875 0 l 25xc5
 2.01171875 0.99609375 l 25
 0.99609375 0.99609375 l 25
 0.99609375 4.00390625 l 25xc8
2.01171875 7.998046875 m 25xd4
 3.0078125 7.998046875 l 25xd4
 3.0078125 7.001953125 l 25xe4
 4.00390625 7.001953125 l 25
 4.00390625 5.99609375 l 25
 3.0078125 5.99609375 l 25xe2
 3.0078125 7.001953125 l 25xe4
 2.01171875 7.001953125 l 25
 2.01171875 7.998046875 l 25xd4
EndSplineSet
EndChar

StartChar: aacute
Encoding: 225 225 159
Width: 6
VWidth: 0
Flags: W
HStem: 0 0.996094<2.08984 4.17969 5.21484 6.25> 4.00391 0.996094<2.08984 4.17969> 5.99609 0.996094<3.125 4.17969> 7.00195 0.996094<4.17969 5.21484>
VStem: 0.996094 0.996094<1.03516 4.17969> 3.00781 0.996094<6.25 7.28516> 4.00391 0.996094<1.03516 4.17969 7.28516 8.33984> 5 0.996094<0 1.03516>
LayerCount: 2
Back
Fore
SplineSet
2.01171875 5 m 25xca
 5 5 l 25xc9
 5 0.99609375 l 25xca
 5.99609375 0.99609375 l 25
 5.99609375 0 l 25
 5 0 l 25xc9
 5 0.99609375 l 25
 4.00390625 0.99609375 l 25
 4.00390625 4.00390625 l 25
 2.01171875 4.00390625 l 25
 2.01171875 0.99609375 l 25
 4.00390625 0.99609375 l 25
 4.00390625 0 l 25
 2.01171875 0 l 25
 2.01171875 0.99609375 l 25
 0.99609375 0.99609375 l 25
 0.99609375 4.00390625 l 25
 2.01171875 4.00390625 l 25
 2.01171875 5 l 25xca
3.0078125 7.001953125 m 25xec
 4.00390625 7.001953125 l 25xec
 4.00390625 7.998046875 l 25
 5 7.998046875 l 25
 5 7.001953125 l 25xda
 4.00390625 7.001953125 l 25
 4.00390625 5.99609375 l 25
 3.0078125 5.99609375 l 25
 3.0078125 7.001953125 l 25xec
EndSplineSet
EndChar

StartChar: acircumflex
Encoding: 226 226 160
Width: 6
VWidth: 0
Flags: W
HStem: 0 0.996094<2.08984 4.17969 5.21484 6.25> 4.00391 0.996094<2.08984 4.17969> 5.99609 0.996094<2.08984 3.125 4.17969 5.21484> 7.00195 0.996094<3.125 4.17969>
VStem: 0.996094 0.996094<1.03516 4.17969> 2.01172 0.996094<6.25 7.28516> 3.00781 0.996094<7.28516 8.33984> 4.00391 0.996094<1.03516 4.17969 6.25 7.28516> 5 0.996094<0 1.03516>
LayerCount: 2
Back
Fore
SplineSet
0.99609375 4.00390625 m 25xc8
 2.01171875 4.00390625 l 25xc8
 2.01171875 5 l 25
 5 5 l 25xc480
 5 0.99609375 l 25xc1
 5.99609375 0.99609375 l 25
 5.99609375 0 l 25
 5 0 l 25xc080
 5 0.99609375 l 25
 4.00390625 0.99609375 l 25
 4.00390625 4.00390625 l 25
 2.01171875 4.00390625 l 25
 2.01171875 0.99609375 l 25xc9
 4.00390625 0.99609375 l 25
 4.00390625 0 l 25
 2.01171875 0 l 25xc5
 2.01171875 0.99609375 l 25
 0.99609375 0.99609375 l 25
 0.99609375 4.00390625 l 25xc8
2.01171875 7.001953125 m 25xe4
 3.0078125 7.001953125 l 25xe4
 3.0078125 7.998046875 l 25
 4.00390625 7.998046875 l 25xd2
 4.00390625 7.001953125 l 25xe2
 5 7.001953125 l 25
 5 5.99609375 l 25
 4.00390625 5.99609375 l 25xe1
 4.00390625 7.001953125 l 25xe2
 3.0078125 7.001953125 l 25
 3.0078125 5.99609375 l 25
 2.01171875 5.99609375 l 25
 2.01171875 7.001953125 l 25xe4
EndSplineSet
EndChar

StartChar: atilde
Encoding: 227 227 161
Width: 6
VWidth: 0
Flags: W
HStem: 0 0.996094<2.08984 4.17969 5.21484 6.25> 4.00391 0.996094<2.08984 4.17969> 5.99609 0.996094<1.03516 2.08984 3.125 4.17969> 7.00195 0.996094<2.08984 3.125 4.17969 5.21484>
VStem: 0.996094 0.996094<1.03516 4.17969 6.25 7.28516> 2.01172 0.996094<7.28516 8.33984> 3.00781 0.996094<6.25 7.28516> 4.00391 0.996094<1.03516 4.17969 7.28516 8.33984> 5 0.996094<0 1.03516>
LayerCount: 2
Back
Fore
SplineSet
0.99609375 4.00390625 m 25xc8
 2.01171875 4.00390625 l 25xc8
 2.01171875 5 l 25
 5 5 l 25xc480
 5 0.99609375 l 25xc1
 5.99609375 0.99609375 l 25
 5.99609375 0 l 25
 5 0 l 25xc080
 5 0.99609375 l 25
 4.00390625 0.99609375 l 25
 4.00390625 4.00390625 l 25
 2.01171875 4.00390625 l 25
 2.01171875 0.99609375 l 25xc9
 4.00390625 0.99609375 l 25
 4.00390625 0 l 25
 2.01171875 0 l 25xc5
 2.01171875 0.99609375 l 25
 0.99609375 0.99609375 l 25
 0.99609375 4.00390625 l 25xc8
0.99609375 7.001953125 m 25xe8
 2.01171875 7.001953125 l 25xe8
 2.01171875 7.998046875 l 25
 3.0078125 7.998046875 l 25xd4
 3.0078125 7.001953125 l 25xe4
 4.00390625 7.001953125 l 25xe2
 4.00390625 7.998046875 l 25
 5 7.998046875 l 25
 5 7.001953125 l 25xd1
 4.00390625 7.001953125 l 25
 4.00390625 5.99609375 l 25
 3.0078125 5.99609375 l 25xe2
 3.0078125 7.001953125 l 25xe4
 2.01171875 7.001953125 l 25
 2.01171875 5.99609375 l 25
 0.99609375 5.99609375 l 25
 0.99609375 7.001953125 l 25xe8
EndSplineSet
EndChar

StartChar: adieresis
Encoding: 228 228 162
Width: 6
VWidth: 0
Flags: W
HStem: 0 0.996094<2.08984 4.17969 5.21484 6.25> 4.00391 0.996094<2.08984 4.17969> 5.99609 0.996094<2.08984 3.125 4.17969 5.21484>
VStem: 0.996094 0.996094<1.03516 4.17969> 2.01172 0.996094<6.25 7.28516> 4.00391 0.996094<1.03516 4.17969 6.25 7.28516> 5 0.996094<0 1.03516>
LayerCount: 2
Back
Fore
SplineSet
0.99609375 4.00390625 m 25xf0
 2.01171875 4.00390625 l 25xf0
 2.01171875 5 l 25
 5 5 l 25xea
 5 0.99609375 l 25xe4
 5.99609375 0.99609375 l 25
 5.99609375 0 l 25
 5 0 l 25xe2
 5 0.99609375 l 25
 4.00390625 0.99609375 l 25
 4.00390625 4.00390625 l 25
 2.01171875 4.00390625 l 25
 2.01171875 0.99609375 l 25xf4
 4.00390625 0.99609375 l 25
 4.00390625 0 l 25
 2.01171875 0 l 25xec
 2.01171875 0.99609375 l 25
 0.99609375 0.99609375 l 25
 0.99609375 4.00390625 l 25xf0
4.00390625 7.001953125 m 25xe4
 5 7.001953125 l 25
 5 5.99609375 l 25
 4.00390625 5.99609375 l 25
 4.00390625 7.001953125 l 25xe4
2.01171875 7.001953125 m 25xe8
 3.0078125 7.001953125 l 25
 3.0078125 5.99609375 l 25
 2.01171875 5.99609375 l 25
 2.01171875 7.001953125 l 25xe8
EndSplineSet
EndChar

StartChar: aring
Encoding: 229 229 163
Width: 6
VWidth: 0
Flags: W
HStem: 0 0.996094<2.08984 4.17969 5.21484 6.25> 4.00391 0.996094<2.08984 3.125> 5.99609 0.996094<2.08984 3.125 4.17969 5.21484> 7.00195 0.996094<3.125 4.17969>
VStem: 0.996094 0.996094<1.03516 4.17969> 2.01172 0.996094<6.25 7.28516> 3.00781 0.996094<5.21484 6.25 7.28516 8.33984> 4.00391 0.996094<1.03516 4.17969 6.25 7.28516> 5 0.996094<0 1.03516>
LayerCount: 2
Back
Fore
SplineSet
2.01171875 7.001953125 m 25xe4
 3.0078125 7.001953125 l 25xe4
 3.0078125 7.998046875 l 25
 4.00390625 7.998046875 l 25xd2
 4.00390625 7.001953125 l 25xe2
 3.0078125 7.001953125 l 25
 3.0078125 5.99609375 l 25xe4
 4.00390625 5.99609375 l 25
 4.00390625 7.001953125 l 25xe2
 5 7.001953125 l 25
 5 5.99609375 l 25xe1
 4.00390625 5.99609375 l 25
 4.00390625 5 l 25
 5 5 l 25xe280
 5 0.99609375 l 25xe1
 5.99609375 0.99609375 l 25
 5.99609375 0 l 25
 5 0 l 25xe080
 5 0.99609375 l 25
 4.00390625 0.99609375 l 25
 4.00390625 4.00390625 l 25
 2.01171875 4.00390625 l 25
 2.01171875 0.99609375 l 25xe9
 4.00390625 0.99609375 l 25
 4.00390625 0 l 25
 2.01171875 0 l 25xe5
 2.01171875 0.99609375 l 25
 0.99609375 0.99609375 l 25
 0.99609375 4.00390625 l 25
 2.01171875 4.00390625 l 25xe8
 2.01171875 5 l 25xe4
 3.0078125 5 l 25xe2
 3.0078125 5.99609375 l 25
 2.01171875 5.99609375 l 25
 2.01171875 7.001953125 l 25xe4
EndSplineSet
EndChar

StartChar: ae
Encoding: 230 230 164
Width: 6
VWidth: 0
Flags: W
HStem: 0 0.996094<1.03516 3.125 4.17969 6.25> 0.996094 0.996094<0 1.03516> 2.01172 0.996094<1.03516 3.125 4.17969 5.21484> 4.00391 0.996094<1.03516 3.125 4.17969 5.21484>
VStem: 0 0.996094<1.03516 2.08984> 3.00781 0.996094<1.03516 2.08984 3.125 4.17969> 5 0.996094<3.125 4.17969>
LayerCount: 2
Back
Fore
SplineSet
0.99609375 5 m 25x3e
 5 5 l 25
 5 4.00390625 l 25
 4.00390625 4.00390625 l 25
 4.00390625 3.0078125 l 25
 5 3.0078125 l 25
 5 4.00390625 l 25
 5.99609375 4.00390625 l 25
 5.99609375 2.01171875 l 25
 4.00390625 2.01171875 l 25
 4.00390625 0.99609375 l 25
 5.99609375 0.99609375 l 25
 5.99609375 0 l 25
 4.00390625 0 l 25
 4.00390625 0.99609375 l 25
 3.0078125 0.99609375 l 25
 3.0078125 0 l 25
 0.99609375 0 l 25
 0.99609375 0.99609375 l 25
 3.0078125 0.99609375 l 25
 3.0078125 2.01171875 l 25xbe
 0.99609375 2.01171875 l 25x5e
 0.99609375 0.99609375 l 25x9e
 0 0.99609375 l 25
 0 2.01171875 l 25
 0.99609375 2.01171875 l 25x5e
 0.99609375 3.0078125 l 25
 3.0078125 3.0078125 l 25
 3.0078125 4.00390625 l 25
 0.99609375 4.00390625 l 25
 0.99609375 5 l 25x3e
EndSplineSet
EndChar

StartChar: ccedilla
Encoding: 231 231 165
Width: 6
VWidth: 0
Flags: W
HStem: -2.01172 0.996094<2.08984 3.125> 0 0.996094<2.08984 3.125 4.17969 5.21484> 4.00391 0.996094<2.08984 5.21484>
VStem: 0.996094 0.996094<1.03516 4.17969> 2.01172 3.00781<0 1.03516 4.17969 5.21484> 2.01172 0.996094<-2.08984 -1.03516> 3.00781 0.996094<-1.03516 0>
LayerCount: 2
Back
Fore
SplineSet
2.01171875 5 m 25xe8
 5 5 l 25
 5 4.00390625 l 25xe8
 2.01171875 4.00390625 l 25
 2.01171875 0.99609375 l 25xf0
 5 0.99609375 l 25
 5 0 l 25xe8
 4.00390625 0 l 25
 4.00390625 -0.99609375 l 25xe2
 3.0078125 -0.99609375 l 25
 3.0078125 -2.01171875 l 25
 2.01171875 -2.01171875 l 25
 2.01171875 -0.99609375 l 25
 3.0078125 -0.99609375 l 25xe4
 3.0078125 0 l 25xe2
 2.01171875 0 l 25xe8
 2.01171875 0.99609375 l 25
 0.99609375 0.99609375 l 25
 0.99609375 4.00390625 l 25
 2.01171875 4.00390625 l 25xf0
 2.01171875 5 l 25xe8
EndSplineSet
EndChar

StartChar: egrave
Encoding: 232 232 166
Width: 6
VWidth: 0
Flags: W
HStem: 0 0.996094<2.08984 5.21484> 2.01172 0.996094<2.08984 4.17969> 4.00391 0.996094<2.08984 4.17969> 5.99609 0.996094<3.125 4.17969> 7.00195 0.996094<2.08984 3.125>
VStem: 0.996094 0.996094<1.03516 2.08984 3.125 4.17969> 2.01172 0.996094<7.28516 8.33984> 3.00781 0.996094<6.25 7.28516> 4.00391 0.996094<3.125 4.17969>
LayerCount: 2
Back
Fore
SplineSet
2.01171875 5 m 25xe2
 4.00390625 5 l 25
 4.00390625 4.00390625 l 25
 2.01171875 4.00390625 l 25
 2.01171875 3.0078125 l 25
 4.00390625 3.0078125 l 25
 4.00390625 4.00390625 l 25
 5 4.00390625 l 25
 5 2.01171875 l 25
 2.01171875 2.01171875 l 25
 2.01171875 0.99609375 l 25xe480
 5 0.99609375 l 25
 5 0 l 25
 2.01171875 0 l 25xe280
 2.01171875 0.99609375 l 25
 0.99609375 0.99609375 l 25
 0.99609375 4.00390625 l 25
 2.01171875 4.00390625 l 25xe4
 2.01171875 5 l 25xe2
2.01171875 7.998046875 m 25xea
 3.0078125 7.998046875 l 25xea
 3.0078125 7.001953125 l 25xf2
 4.00390625 7.001953125 l 25
 4.00390625 5.99609375 l 25
 3.0078125 5.99609375 l 25xf1
 3.0078125 7.001953125 l 25xf2
 2.01171875 7.001953125 l 25
 2.01171875 7.998046875 l 25xea
EndSplineSet
EndChar

StartChar: eacute
Encoding: 233 233 167
Width: 6
VWidth: 0
Flags: W
HStem: 0 0.996094<2.08984 5.21484> 2.01172 0.996094<2.08984 4.17969> 4.00391 0.996094<2.08984 4.17969> 5.99609 0.996094<2.08984 3.125> 7.00195 0.996094<3.125 4.17969>
VStem: 0.996094 0.996094<1.03516 2.08984 3.125 4.17969> 2.01172 0.996094<6.25 7.28516> 3.00781 0.996094<7.28516 8.33984> 4.00391 0.996094<3.125 4.17969>
LayerCount: 2
Back
Fore
SplineSet
2.01171875 5 m 25xe2
 4.00390625 5 l 25
 4.00390625 4.00390625 l 25
 2.01171875 4.00390625 l 25
 2.01171875 3.0078125 l 25
 4.00390625 3.0078125 l 25
 4.00390625 4.00390625 l 25
 5 4.00390625 l 25
 5 2.01171875 l 25
 2.01171875 2.01171875 l 25
 2.01171875 0.99609375 l 25xe480
 5 0.99609375 l 25
 5 0 l 25
 2.01171875 0 l 25xe280
 2.01171875 0.99609375 l 25
 0.99609375 0.99609375 l 25
 0.99609375 4.00390625 l 25
 2.01171875 4.00390625 l 25xe4
 2.01171875 5 l 25xe2
2.01171875 7.001953125 m 25xf2
 3.0078125 7.001953125 l 25xf2
 3.0078125 7.998046875 l 25
 4.00390625 7.998046875 l 25
 4.00390625 7.001953125 l 25xe9
 3.0078125 7.001953125 l 25
 3.0078125 5.99609375 l 25
 2.01171875 5.99609375 l 25
 2.01171875 7.001953125 l 25xf2
EndSplineSet
EndChar

StartChar: ecircumflex
Encoding: 234 234 168
Width: 6
VWidth: 0
Flags: W
HStem: 0 0.996094<2.08984 5.21484> 2.01172 0.996094<2.08984 4.17969> 4.00391 0.996094<2.08984 4.17969> 5.99609 0.996094<1.03516 2.08984 4.17969 5.21484> 7.00195 0.996094<2.08984 4.17969>
VStem: 0.996094 0.996094<1.03516 2.08984 3.125 4.17969 6.25 7.28516> 2.01172 2.01172<4.17969 5.21484 7.28516 8.33984> 4.00391 0.996094<3.125 4.17969 6.25 7.28516>
LayerCount: 2
Back
Fore
SplineSet
2.01171875 5 m 25xe2
 4.00390625 5 l 25
 4.00390625 4.00390625 l 25xe2
 2.01171875 4.00390625 l 25
 2.01171875 3.0078125 l 25
 4.00390625 3.0078125 l 25xe5
 4.00390625 4.00390625 l 25xe2
 5 4.00390625 l 25
 5 2.01171875 l 25
 2.01171875 2.01171875 l 25
 2.01171875 0.99609375 l 25
 5 0.99609375 l 25
 5 0 l 25xe5
 2.01171875 0 l 25xe2
 2.01171875 0.99609375 l 25
 0.99609375 0.99609375 l 25
 0.99609375 4.00390625 l 25
 2.01171875 4.00390625 l 25xe4
 2.01171875 5 l 25xe2
0.99609375 7.001953125 m 25xf4
 2.01171875 7.001953125 l 25xf4
 2.01171875 7.998046875 l 25
 4.00390625 7.998046875 l 25xea
 4.00390625 7.001953125 l 25xf2
 5 7.001953125 l 25
 5 5.99609375 l 25
 4.00390625 5.99609375 l 25xf1
 4.00390625 7.001953125 l 25xf2
 2.01171875 7.001953125 l 25
 2.01171875 5.99609375 l 25
 0.99609375 5.99609375 l 25
 0.99609375 7.001953125 l 25xf4
EndSplineSet
EndChar

StartChar: edieresis
Encoding: 235 235 169
Width: 6
VWidth: 0
Flags: W
HStem: 0 0.996094<2.08984 5.21484> 2.01172 0.996094<2.08984 4.17969> 4.00391 0.996094<2.08984 4.17969> 5.99609 0.996094<1.03516 2.08984 4.17969 5.21484>
VStem: 0.996094 0.996094<1.03516 2.08984 3.125 4.17969 6.25 7.28516> 4.00391 0.996094<3.125 4.17969 6.25 7.28516>
LayerCount: 2
Back
Fore
SplineSet
2.01171875 5 m 25
 4.00390625 5 l 25
 4.00390625 4.00390625 l 25
 2.01171875 4.00390625 l 25
 2.01171875 3.0078125 l 25
 4.00390625 3.0078125 l 25
 4.00390625 4.00390625 l 25
 5 4.00390625 l 25
 5 2.01171875 l 25
 2.01171875 2.01171875 l 25
 2.01171875 0.99609375 l 25
 5 0.99609375 l 25
 5 0 l 25
 2.01171875 0 l 25
 2.01171875 0.99609375 l 25
 0.99609375 0.99609375 l 25
 0.99609375 4.00390625 l 25
 2.01171875 4.00390625 l 25
 2.01171875 5 l 25
4.00390625 7.001953125 m 25
 5 7.001953125 l 25
 5 5.99609375 l 25
 4.00390625 5.99609375 l 25
 4.00390625 7.001953125 l 25
0.99609375 7.001953125 m 25
 2.01171875 7.001953125 l 25
 2.01171875 5.99609375 l 25
 0.99609375 5.99609375 l 25
 0.99609375 7.001953125 l 25
EndSplineSet
EndChar

StartChar: igrave
Encoding: 236 236 170
Width: 6
VWidth: 0
Flags: W
HStem: 0 0G<3.125 4.17969> 5 0G<3.125 4.17969> 5.99609 0.996094<3.125 4.17969> 7.00195 0.996094<2.08984 3.125>
VStem: 2.01172 0.996094<7.28516 8.33984> 3.00781 0.996094<0 5.21484 6.25 7.28516>
LayerCount: 2
Back
Fore
SplineSet
3.0078125 5 m 25xc4
 4.00390625 5 l 25
 4.00390625 0 l 25
 3.0078125 0 l 25
 3.0078125 5 l 25xc4
2.01171875 7.998046875 m 25xd8
 3.0078125 7.998046875 l 25xd8
 3.0078125 7.001953125 l 25xe8
 4.00390625 7.001953125 l 25
 4.00390625 5.99609375 l 25
 3.0078125 5.99609375 l 25xe4
 3.0078125 7.001953125 l 25xe8
 2.01171875 7.001953125 l 25
 2.01171875 7.998046875 l 25xd8
EndSplineSet
EndChar

StartChar: iacute
Encoding: 237 237 171
Width: 6
VWidth: 0
Flags: W
HStem: 0 0G<3.125 4.17969> 5 0G<3.125 4.17969> 5.99609 0.996094<3.125 4.17969> 7.00195 0.996094<4.17969 5.21484>
VStem: 3.00781 0.996094<0 5.21484 6.25 7.28516> 4.00391 0.996094<7.28516 8.33984>
LayerCount: 2
Back
Fore
SplineSet
3.0078125 5 m 25xc8
 4.00390625 5 l 25
 4.00390625 0 l 25
 3.0078125 0 l 25
 3.0078125 5 l 25xc8
4.00390625 7.998046875 m 25xd4
 5 7.998046875 l 25
 5 7.001953125 l 25xd4
 4.00390625 7.001953125 l 25
 4.00390625 5.99609375 l 25
 3.0078125 5.99609375 l 25
 3.0078125 7.001953125 l 25
 4.00390625 7.001953125 l 25xe8
 4.00390625 7.998046875 l 25xd4
EndSplineSet
EndChar

StartChar: icircumflex
Encoding: 238 238 172
Width: 6
VWidth: 0
Flags: W
HStem: 0 0G<3.125 4.17969> 5 0G<3.125 4.17969> 5.99609 0.996094<2.08984 3.125 4.17969 5.21484> 7.00195 0.996094<3.125 4.17969>
VStem: 2.01172 0.996094<6.25 7.28516> 3.00781 0.996094<0 5.21484 7.28516 8.33984> 4.00391 0.996094<6.25 7.28516>
LayerCount: 2
Back
Fore
SplineSet
3.0078125 5 m 25xc4
 4.00390625 5 l 25
 4.00390625 0 l 25
 3.0078125 0 l 25
 3.0078125 5 l 25xc4
2.01171875 7.001953125 m 25xe8
 3.0078125 7.001953125 l 25xe8
 3.0078125 7.998046875 l 25
 4.00390625 7.998046875 l 25xd4
 4.00390625 7.001953125 l 25xe4
 5 7.001953125 l 25
 5 5.99609375 l 25
 4.00390625 5.99609375 l 25xe2
 4.00390625 7.001953125 l 25xe4
 3.0078125 7.001953125 l 25
 3.0078125 5.99609375 l 25
 2.01171875 5.99609375 l 25
 2.01171875 7.001953125 l 25xe8
EndSplineSet
EndChar

StartChar: idieresis
Encoding: 239 239 173
Width: 6
VWidth: 0
Flags: W
HStem: 0 0G<3.125 4.17969> 5 0G<3.125 4.17969> 5.99609 0.996094<2.08984 3.125 4.17969 5.21484>
VStem: 2.01172 0.996094<6.25 7.28516> 3.00781 0.996094<0 5.21484> 4.00391 0.996094<6.25 7.28516>
LayerCount: 2
Back
Fore
SplineSet
3.0078125 5 m 25xe8
 4.00390625 5 l 25
 4.00390625 0 l 25
 3.0078125 0 l 25
 3.0078125 5 l 25xe8
4.00390625 7.001953125 m 25xe4
 5 7.001953125 l 25
 5 5.99609375 l 25
 4.00390625 5.99609375 l 25
 4.00390625 7.001953125 l 25xe4
2.01171875 7.001953125 m 25xf0
 3.0078125 7.001953125 l 25
 3.0078125 5.99609375 l 25
 2.01171875 5.99609375 l 25
 2.01171875 7.001953125 l 25xf0
EndSplineSet
EndChar

StartChar: eth
Encoding: 240 240 174
Width: 6
VWidth: 0
Flags: W
HStem: 0 0.996094<2.08984 4.17969> 0.996094 0.996094<1.03516 2.08984> 2.01172 0.996094<2.08984 4.17969> 4.00391 0.996094<3.125 4.17969> 5 0.996094<5.21484 6.25> 5.99609 0.996094<3.125 4.17969>
VStem: 0.996094 0.996094<1.03516 2.08984> 3.00781 0.996094<6.25 7.28516> 4.00391 0.996094<1.03516 2.08984 3.125 4.17969>
LayerCount: 2
Back
Fore
SplineSet
3.0078125 7.001953125 m 25x37
 4.00390625 7.001953125 l 25
 4.00390625 5.99609375 l 25x37
 5.99609375 5.99609375 l 25
 5.99609375 5 l 25
 5 5 l 25
 5 0.99609375 l 25x4a80
 4.00390625 0.99609375 l 25
 4.00390625 2.01171875 l 25xa280
 2.01171875 2.01171875 l 25x4280
 2.01171875 0.99609375 l 25
 4.00390625 0.99609375 l 25
 4.00390625 0 l 25
 2.01171875 0 l 25
 2.01171875 0.99609375 l 25x8280
 0.99609375 0.99609375 l 25
 0.99609375 2.01171875 l 25
 2.01171875 2.01171875 l 25x4280
 2.01171875 3.0078125 l 25
 4.00390625 3.0078125 l 25
 4.00390625 4.00390625 l 25x3280
 3.0078125 4.00390625 l 25
 3.0078125 5 l 25x33
 4.00390625 5 l 25x3280
 4.00390625 5.99609375 l 25
 3.0078125 5.99609375 l 25
 3.0078125 7.001953125 l 25x37
EndSplineSet
EndChar

StartChar: ntilde
Encoding: 241 241 175
Width: 6
VWidth: 0
Flags: W
HStem: 0 0G<1.03516 2.08984 4.17969 5.21484> 4.00391 0.996094<2.08984 4.17969> 5.99609 0.996094<1.03516 2.08984 3.125 4.17969> 7.00195 0.996094<2.08984 3.125 4.17969 5.21484>
VStem: 0.996094 0.996094<0 4.17969 6.25 7.28516> 3.00781 0.996094<6.25 7.28516> 4.00391 0.996094<0 4.17969 7.28516 8.33984>
LayerCount: 2
Back
Fore
SplineSet
0.99609375 5 m 25xca
 4.00390625 5 l 25
 4.00390625 4.00390625 l 25
 5 4.00390625 l 25
 5 0 l 25
 4.00390625 0 l 25
 4.00390625 4.00390625 l 25
 2.01171875 4.00390625 l 25
 2.01171875 0 l 25
 0.99609375 0 l 25
 0.99609375 5 l 25xca
0.99609375 7.001953125 m 25xec
 2.01171875 7.001953125 l 25xec
 2.01171875 7.998046875 l 25
 3.0078125 7.998046875 l 25xdc
 3.0078125 7.001953125 l 25
 4.00390625 7.001953125 l 25xec
 4.00390625 7.998046875 l 25
 5 7.998046875 l 25
 5 7.001953125 l 25xda
 4.00390625 7.001953125 l 25
 4.00390625 5.99609375 l 25
 3.0078125 5.99609375 l 25
 3.0078125 7.001953125 l 25
 2.01171875 7.001953125 l 25
 2.01171875 5.99609375 l 25
 0.99609375 5.99609375 l 25
 0.99609375 7.001953125 l 25xec
EndSplineSet
EndChar

StartChar: ograve
Encoding: 242 242 176
Width: 6
VWidth: 0
Flags: W
HStem: 0 0.996094<2.08984 4.17969> 0.996094 3.00781<1.03516 2.08984 4.17969 5.21484> 4.00391 0.996094<2.08984 3.125> 5.99609 0.996094<2.08984 3.125>
VStem: 0.996094 0.996094<1.03516 4.17969> 2.01172 0.996094<6.25 7.28516> 3.00781 0.996094<5.21484 6.25> 4.00391 0.996094<1.03516 4.17969>
LayerCount: 2
Back
Fore
SplineSet
2.01171875 7.001953125 m 25x34
 3.0078125 7.001953125 l 25
 3.0078125 5.99609375 l 25x34
 4.00390625 5.99609375 l 25x32
 4.00390625 4.00390625 l 25
 2.01171875 4.00390625 l 25x59
 2.01171875 0.99609375 l 25
 4.00390625 0.99609375 l 25x99
 4.00390625 4.00390625 l 25
 5 4.00390625 l 25
 5 0.99609375 l 25x59
 4.00390625 0.99609375 l 25
 4.00390625 0 l 25
 2.01171875 0 l 25x95
 2.01171875 0.99609375 l 25x98
 0.99609375 0.99609375 l 25
 0.99609375 4.00390625 l 25
 2.01171875 4.00390625 l 25x58
 2.01171875 5 l 25x34
 3.0078125 5 l 25x32
 3.0078125 5.99609375 l 25
 2.01171875 5.99609375 l 25
 2.01171875 7.001953125 l 25x34
EndSplineSet
EndChar

StartChar: oacute
Encoding: 243 243 177
Width: 6
VWidth: 0
Flags: W
HStem: 0 0.996094<2.08984 4.17969> 0.996094 3.00781<1.03516 2.08984 4.17969 5.21484> 4.00391 0.996094<3.125 4.17969> 5.99609 0.996094<3.125 4.17969>
VStem: 0.996094 0.996094<1.03516 4.17969> 2.01172 0.996094<5.21484 6.25> 3.00781 0.996094<6.25 7.28516> 4.00391 0.996094<1.03516 4.17969>
LayerCount: 2
Back
Fore
SplineSet
4.00390625 7.001953125 m 25x52
 4.00390625 5.99609375 l 25x52
 3.0078125 5.99609375 l 25
 3.0078125 5 l 25
 4.00390625 5 l 25x35
 4.00390625 4.00390625 l 25
 2.01171875 4.00390625 l 25x59
 2.01171875 0.99609375 l 25
 4.00390625 0.99609375 l 25x99
 4.00390625 4.00390625 l 25
 5 4.00390625 l 25
 5 0.99609375 l 25x59
 4.00390625 0.99609375 l 25
 4.00390625 0 l 25
 2.01171875 0 l 25x95
 2.01171875 0.99609375 l 25x98
 0.99609375 0.99609375 l 25
 0.99609375 4.00390625 l 25
 2.01171875 4.00390625 l 25x58
 2.01171875 5.99609375 l 25
 3.0078125 5.99609375 l 25x54
 3.0078125 7.001953125 l 25
 4.00390625 7.001953125 l 25x52
EndSplineSet
EndChar

StartChar: ocircumflex
Encoding: 244 244 178
Width: 6
VWidth: 0
Flags: W
HStem: 0 0.996094<2.08984 4.17969> 0.996094 3.00781<1.03516 2.08984 4.17969 5.21484> 4.00391 0.996094<2.08984 4.17969> 5.99609 0.996094<1.03516 2.08984 4.17969 5.21484> 7.00195 0.996094<2.08984 4.17969>
VStem: 0.996094 0.996094<1.03516 4.17969 6.25 7.28516> 2.01172 2.01172<0 1.03516 4.17969 5.21484 7.28516 8.33984> 4.00391 0.996094<1.03516 4.17969 6.25 7.28516>
LayerCount: 2
Back
Fore
SplineSet
2.01171875 5 m 25x22
 4.00390625 5 l 25x22
 4.00390625 4.00390625 l 25x42
 2.01171875 4.00390625 l 25x44
 2.01171875 0.99609375 l 25x84
 4.00390625 0.99609375 l 25x82
 4.00390625 4.00390625 l 25x42
 5 4.00390625 l 25
 5 0.99609375 l 25x41
 4.00390625 0.99609375 l 25
 4.00390625 0 l 25
 2.01171875 0 l 25x82
 2.01171875 0.99609375 l 25x84
 0.99609375 0.99609375 l 25
 0.99609375 4.00390625 l 25
 2.01171875 4.00390625 l 25x44
 2.01171875 5 l 25x22
0.99609375 7.001953125 m 25x14
 2.01171875 7.001953125 l 25x14
 2.01171875 7.998046875 l 25
 4.00390625 7.998046875 l 25x0a
 4.00390625 7.001953125 l 25x12
 5 7.001953125 l 25
 5 5.99609375 l 25
 4.00390625 5.99609375 l 25x11
 4.00390625 7.001953125 l 25x12
 2.01171875 7.001953125 l 25
 2.01171875 5.99609375 l 25
 0.99609375 5.99609375 l 25
 0.99609375 7.001953125 l 25x14
EndSplineSet
EndChar

StartChar: otilde
Encoding: 245 245 179
Width: 6
VWidth: 0
Flags: W
HStem: 0 0.996094<2.08984 4.17969> 0.996094 3.00781<1.03516 2.08984 4.17969 5.21484> 4.00391 0.996094<2.08984 4.17969> 5.99609 0.996094<1.03516 2.08984 3.125 4.17969> 7.00195 0.996094<2.08984 3.125 4.17969 5.21484>
VStem: 0.996094 0.996094<1.03516 4.17969 6.25 7.28516> 2.01172 0.996094<7.28516 8.33984> 3.00781 0.996094<6.25 7.28516> 4.00391 0.996094<1.03516 4.17969 7.28516 8.33984>
LayerCount: 2
Back
Fore
SplineSet
2.01171875 5 m 25x22
 4.00390625 5 l 25x2280
 4.00390625 4.00390625 l 25
 2.01171875 4.00390625 l 25x4480
 2.01171875 0.99609375 l 25
 4.00390625 0.99609375 l 25x8480
 4.00390625 4.00390625 l 25
 5 4.00390625 l 25
 5 0.99609375 l 25x4480
 4.00390625 0.99609375 l 25
 4.00390625 0 l 25
 2.01171875 0 l 25x8280
 2.01171875 0.99609375 l 25x84
 0.99609375 0.99609375 l 25
 0.99609375 4.00390625 l 25
 2.01171875 4.00390625 l 25x44
 2.01171875 5 l 25x22
0.99609375 7.001953125 m 25x14
 2.01171875 7.001953125 l 25x14
 2.01171875 7.998046875 l 25
 3.0078125 7.998046875 l 25x0a
 3.0078125 7.001953125 l 25x12
 4.00390625 7.001953125 l 25x11
 4.00390625 7.998046875 l 25
 5 7.998046875 l 25
 5 7.001953125 l 25x0880
 4.00390625 7.001953125 l 25
 4.00390625 5.99609375 l 25
 3.0078125 5.99609375 l 25x11
 3.0078125 7.001953125 l 25x12
 2.01171875 7.001953125 l 25
 2.01171875 5.99609375 l 25
 0.99609375 5.99609375 l 25
 0.99609375 7.001953125 l 25x14
EndSplineSet
EndChar

StartChar: odieresis
Encoding: 246 246 180
Width: 6
VWidth: 0
Flags: W
HStem: 0 0.996094<2.08984 4.17969> 0.996094 3.00781<1.03516 2.08984 4.17969 5.21484> 4.00391 0.996094<2.08984 4.17969> 5.99609 0.996094<1.03516 2.08984 4.17969 5.21484>
VStem: 0.996094 0.996094<1.03516 4.17969 6.25 7.28516> 2.01172 2.01172<0 1.03516 4.17969 5.21484> 4.00391 0.996094<1.03516 4.17969 6.25 7.28516>
LayerCount: 2
Back
Fore
SplineSet
2.01171875 5 m 25x34
 4.00390625 5 l 25x34
 4.00390625 4.00390625 l 25x54
 2.01171875 4.00390625 l 25x58
 2.01171875 0.99609375 l 25x98
 4.00390625 0.99609375 l 25x94
 4.00390625 4.00390625 l 25x54
 5 4.00390625 l 25
 5 0.99609375 l 25x52
 4.00390625 0.99609375 l 25
 4.00390625 0 l 25
 2.01171875 0 l 25x94
 2.01171875 0.99609375 l 25x98
 0.99609375 0.99609375 l 25
 0.99609375 4.00390625 l 25
 2.01171875 4.00390625 l 25x58
 2.01171875 5 l 25x34
4.00390625 7.001953125 m 25x12
 5 7.001953125 l 25
 5 5.99609375 l 25
 4.00390625 5.99609375 l 25
 4.00390625 7.001953125 l 25x12
0.99609375 7.001953125 m 25x18
 2.01171875 7.001953125 l 25
 2.01171875 5.99609375 l 25
 0.99609375 5.99609375 l 25
 0.99609375 7.001953125 l 25x18
EndSplineSet
EndChar

StartChar: divide
Encoding: 247 247 181
Width: 6
VWidth: 0
Flags: W
HStem: 0.996094 0.996094<3.125 4.17969> 3.00781 0.996094<1.03516 6.25> 5 0.996094<3.125 4.17969>
VStem: 3.00781 0.996094<1.03516 2.08984 5.21484 6.25>
CounterMasks: 1 e0
LayerCount: 2
Back
Fore
SplineSet
3.0078125 2.01171875 m 25
 4.00390625 2.01171875 l 25
 4.00390625 0.99609375 l 25
 3.0078125 0.99609375 l 25
 3.0078125 2.01171875 l 25
0.99609375 4.00390625 m 25
 5.99609375 4.00390625 l 25
 5.99609375 3.0078125 l 25
 0.99609375 3.0078125 l 25
 0.99609375 4.00390625 l 25
3.0078125 5.99609375 m 25
 4.00390625 5.99609375 l 25
 4.00390625 5 l 25
 3.0078125 5 l 25
 3.0078125 5.99609375 l 25
EndSplineSet
EndChar

